<svg xmlns="http://www.w3.org/2000/svg" viewBox="0 0 1138.437 325.60488"><defs><style>.cls-1{fill:#ad8226;}.cls-2{fill:#141414;}</style></defs><g id="Layer_2" data-name="Layer 2"><g id="Layer_1-2" data-name="Layer 1"><g id="logo_1_dark"><path class="cls-1" d="M0,116.41317c0-9.05083,2.60282-20.93167,10.52315-30.32365C23.87426,70.1356,70.94393,29.74183,172.55127,29.74183c4.86519,0,9.84431,0,14.936.22651C260.69357,32.797,288.30183,60.51849,288.30183,88.24c0,14.70949-7.69383,29.419-20.47934,40.507-32.13436,27.72152-87.23762,37.67839-111.67747,43.56218-3.62075,5.99706-7.35475,12.33249-11.08875,18.66931,10.749,3.28167,23.761,7.468,38.13072,12.559,37.67839,13.35179,85.99319,36.5472,106.8123,50.352,20.70585,13.91669,35.7551,29.98387,38.58374,36.77233a7.60928,7.60928,0,0,1,.79211,2.9419,2.18222,2.18222,0,0,1-2.48957,2.26374,5.20217,5.20217,0,0,1-1.47095-.22651c-.56559-.11325-6.33613-30.21039-73.77257-59.28959a1144.29733,1144.29733,0,0,0-109.41442-40.507c-16.51951,27.83339-32.24693,53.63231-33.83113,53.63231-2.60282-.33977-8.03359-8.82569-8.03359-14.36972a6.66173,6.66173,0,0,1,.22651-1.58421c.56559-2.03723,10.86154-20.59328,23.53449-42.99728-11.76759-3.28029-20.48-5.20426-24.77962-5.43077H97.421c-13.012,0-29.98457,5.20426-42.20449,5.20426a31.26867,31.26867,0,0,1-4.75193-.33839c-6.22356-1.01931-11.42851-5.8838-11.42851-10.18339,0-3.84794,4.07377-7.24148,15.16251-7.24148,2.03654,0,4.41216.11325,7.015.33838,23.53449,2.49026,29.305,6.33682,40.0547,6.33682a71.00757,71.00757,0,0,0,14.36972-1.69746c7.58056-1.47095,13.3511-2.60213,17.8772-3.39354,17.65139-31.00318,36.65978-63.8157,40.8468-70.7188,0,0,3.16772-3.84656,7.92034-3.84656,2.82864,0,5.99636,1.35769,9.50454,5.43077a5.65007,5.65007,0,0,1,1.35769,3.9612c0,6.67521-8.59918,15.95392-12.44644,22.17611-8.03359,12.89877-10.86223,17.8779-20.027,33.49205,13.12459-3.95982,28.96595-8.37267,28.96595-8.37267,59.17634-17.8779,81.91873-46.39082,81.91873-70.15252a37.51932,37.51932,0,0,0-12.44575-27.72013c-14.59623-13.57831-53.18-23.875-97.421-23.875-32.92577,0-69.13321,5.77054-100.81524,20.027C9.84431,77.37709,1.924,104.30719,1.924,118.79017a31.64989,31.64989,0,0,0,1.58421,10.52315C1.5842,128.52053,0,123.31627,0,116.41317Zm116.88242,66.41921s3.734.90467,10.07013,2.71538l3.84726-6.67658Z"/><path class="cls-1" d="M248.30594,84.34024c9.16478,1.58421,12.5597,7.80777,12.5597,12.78552a10.505,10.505,0,0,1-.56628,3.28166c-1.47095,3.73331-29.07852,45.598-42.09055,67.43575l26.13662-.56489c6.56264.67815,8.939,3.7333,8.939,6.78846a6.33957,6.33957,0,0,1-2.37631,4.86587,40.40234,40.40234,0,0,1-9.16477,5.091s-2.71538-7.015-15.61415-7.58125H214.135l-4.41284,7.58125a11.06414,11.06414,0,0,1,7.01566,10.86292c0,25.34452-54.76418,79.8815-63.02359,79.8815a.95447.95447,0,0,1-.67885-.22513,1.41119,1.41119,0,0,1-.453-1.24582c0-11.08805,40.84679-83.16316,45.03313-90.5179-2.60213-.56629-5.65728-1.13119-9.278-1.58421-12.21992-1.471-20.93236-2.71539-20.93236-5.77054v-.453a10.918,10.918,0,0,1,4.07308-5.77054s15.27508-.5649,33.60531-1.01793l21.38469-41.29844v-1.0193c0-7.69314-2.60212-15.38765-11.54107-20.14026-23.42193-12.78552-54.19791-7.69452-54.19791-17.76465V87.847c.33908-10.182,44.91988-32.47275,144.37743-36.65908,12.10667-.453,23.42123-.67954,33.83113-.67954,75.92237,0,110.5456,12.10736,110.5456,25.23264,0,12.106-14.483,17.08511-22.29005,17.08511a7.81163,7.81163,0,0,1-4.18634-.79142c-4.187-2.94189,4.41285-17.31161-25.45846-22.06423-14.936-2.377-44.12777-4.07308-76.37539-4.07308-32.5867,0-68.11529,1.69608-95.38378,5.99706-42.65683,6.78846-55.66885,13.23715-55.66885,16.74533,0,.90467.90535,1.69746,2.48887,2.14911,7.24149,2.15048,35.30277,4.41284,46.84385,13.69156,5.20495,4.18633,8.48592,10.63641,9.16477,18.10441ZM207.45915,186.28735l-41.86473,76.03494s2.82864-1.471,25.00613-26.25057c19.00839-21.3847,22.85565-33.039,22.85565-39.71424a20.43249,20.43249,0,0,0-.22652-2.82864C212.325,189.00274,211.53291,187.64505,207.45915,186.28735Zm-6.56265-9.845c-8.71243,0-15.04856.11325-15.04856.11325a79.34593,79.34593,0,0,1,13.46505,2.9419Z"/><path class="cls-1" d="M380.48143,82.22846V318.53328H69.00551V203.20951c-2.376.36774-4.73794.66469-7.0716.89085V325.60488H387.553V82.9073C385.3467,82.667,382.9848,82.44047,380.48143,82.22846ZM66.672,67.42056c-1.61252.72132-3.19638,1.45679-4.73811,2.20642v89.11637c.16988.01415.32526.02831.49515.04212l.26864.02832c2.24872.24067,4.34206.481,6.30781.73547v-93.147C68.21358,66.72756,67.44979,67.067,66.672,67.42056ZM61.93391,0V35.00444q3.47927-1.42175,7.0716-2.72954V7.0716H380.48143V37.71982c2.41852.15573,4.76625.35358,7.0716.55144V0Z"/><path class="cls-2" d="M631.83349,131.05342c-.39991,0-1.6001,0-1.9502-.04981-4.20019-.25-5.20019-.75-7.20019-3.45019-1.6504-2.3003-4.0503-6.30078-5.80079-9.30078-1.2998-2.2002-1.85009-2.5-4.3999-2.5h-2.1001v9.50048c0,3.8501.39991,4.40039,4.39991,4.9502v.6001H602.48144v-.6001c3.90039-.6001,4.35058-1,4.35058-4.9502V103.75166c0-3.8501-.3501-4.25-4.35058-4.8501v-.6001h11.95068c3.40039,0,6.10058.54981,7.90088,1.8501a7.29948,7.29948,0,0,1,3.0498,6.15039c0,4.1001-2.75,6.9502-6.40039,8.5503.9502,1.70019,3.25049,5.50048,4.75049,7.75048a47.62553,47.62553,0,0,0,4.15039,5.75049,5.9666,5.9666,0,0,0,4.1001,2.1001Zm-18.40137-16.30078c2.50049,0,3.90039-.1001,5.30029-1.1001,2.00049-1.40039,2.65039-3.4502,2.65039-6.45069,0-5.45019-3-7.90039-7.25049-7.90039a6.75292,6.75292,0,0,0-3.15039.4502c-.4497.2998-.59961.75-.59961,2.3501v12.65088Z"/><path class="cls-2" d="M668.68163,97.60127c8.40088,0,15.80127,6.75049,15.80127,16.501,0,10.501-7.25049,17.45117-16.20117,17.45117-8.80029,0-15.85108-7.2002-15.85108-16.501C652.43065,106.00215,658.63134,97.60127,668.68163,97.60127Zm-.94971,1.1001c-5.80078,0-11.001,5.20019-11.001,14.90088,0,9.80078,5.10058,16.80126,12.65088,16.80126,5.90039,0,10.80078-5.10058,10.80078-14.751C680.18261,104.85176,674.93212,98.70137,667.73192,98.70137Z"/><path class="cls-2" d="M725.581,105.00166c-.90039-3.5-2.40039-6.3501-6.95068-6.3501-3.75,0-5.45019,2.80029-5.45019,5.75,0,3.85059,2.1499,5.40039,6.05029,7.70069,3.80029,2.25,8.20068,4.75048,8.20068,10.15087,0,5.25-4.40039,9.3003-10.251,9.3003a20.51,20.51,0,0,1-7.1001-1.4502c-.30029-1.3501-1.05029-5.75-1.15039-6.70019l.70019-.14991c.8501,3.04981,3.1001,7.25049,8.25049,7.25049,4.25049,0,6.05029-3.35058,6.05029-6.70068,0-3.8501-2.60009-5.9502-6.10009-8.10059-3.75049-2.2998-7.85059-4.70019-7.85059-9.75049,0-4.70019,3.8501-8.35058,9.50049-8.35058a25.929,25.929,0,0,1,6.05029.80029c.2002,1.75.4502,4.1001.80029,6.4502Z"/><path class="cls-2" d="M768.68065,105.00166c-.90039-3.5-2.40039-6.3501-6.95068-6.3501-3.75,0-5.45019,2.80029-5.45019,5.75,0,3.85059,2.1499,5.40039,6.05029,7.70069,3.80029,2.25,8.20068,4.75048,8.20068,10.15087,0,5.25-4.40039,9.3003-10.251,9.3003a20.51,20.51,0,0,1-7.1001-1.4502c-.3003-1.3501-1.0503-5.75-1.15039-6.70019l.70019-.14991c.8501,3.04981,3.1001,7.25049,8.25049,7.25049,4.25049,0,6.05029-3.35058,6.05029-6.70068,0-3.8501-2.60009-5.9502-6.10009-8.10059-3.75049-2.2998-7.85059-4.70019-7.85059-9.75049,0-4.70019,3.8501-8.35058,9.50049-8.35058a25.929,25.929,0,0,1,6.05029.80029c.2002,1.75.4502,4.1001.80029,6.4502Z"/><path class="cls-2" d="M817.63085,123.25312c-.25,1.39991-1.25,5.75-1.79981,7.5503H793.67968v-.6001c4.45019-.6001,4.70019-1,4.70019-5.1001V103.85176c0-4.1001-.45019-4.4502-4.35058-4.9502v-.6001H805.98v.6001c-3.70019.6499-4.0498.8501-4.0498,4.9502v21.95117c0,3.55029.59961,3.70019,3.95019,3.70019.94971,0,2.5-.0498,3.3501-.0498,2.95019,0,4.15039-.04981,5.45019-1.9502a19.3572,19.3572,0,0,0,2.25-4.45019Z"/><path class="cls-2" d="M860.12987,130.80342v-.6001c2.75049-.5,3.50049-.8999,2.90039-2.7002-.6499-2.1499-1.90039-5.80029-3.40039-9.95068H849.57958c-1.1001,3.2002-2.05029,5.75049-2.80029,8.15088-1.1001,3.3999-.3501,3.75,3.45019,4.5v.6001H839.7788v-.6001c2.80029-.5,3.65039-.8501,5.50049-5.55029l10.40039-26.95166.70019-.1001c3.1001,9.10058,6.3501,18.25146,9.70069,27.55176,1.5498,4.35009,2.1499,4.35009,5.30029,5.05029v.6001Zm-5.40039-27.45166c-1.6001,4.25-3.1001,8.60058-4.6499,12.751h9.10059Z"/><path class="cls-2" d="M925.63085,98.90156c-3.55029.79981-3.8501,1.3999-3.9502,4.80029-.05029,1.29981-.1499,2.2002-.1499,6.5503v21.10107h-.80029l-22.45117-27.65137v14.35059c0,4.80029.10009,6.35059.1499,7.95068.1001,2.90039.8999,3.5503,4.80029,4.2002v.6001H891.9287v-.6001c3.7002-.8501,4.50049-1.29981,4.60059-4.25.0498-1.30029.1499-3.15039.1499-7.90088V103.25166a2.972,2.972,0,0,0-.7002-2.1001c-1.20019-1.5-2.70019-1.8999-4.55029-2.25v-.6001h7.00049l21.55127,26.15137V110.25215c0-4.3501-.04981-5.0503-.1499-6.75049-.2002-3.2002-.8501-4.1001-5.00049-4.6001v-.6001h10.80078Z"/><path class="cls-2" d="M962.12841,98.30146c6.40039,0,10.80029,1.39991,13.75049,4.25a14.70887,14.70887,0,0,1,4.25048,10.80079c0,6.10058-2.5,10.60058-6.15039,13.45068-3.70019,2.90039-7.80029,4.00049-12.70068,4.00049H948.67724v-.6001c4.05029-.75,4.35058-1.1499,4.35058-5V103.95185c0-3.95019-.40039-4.50048-4.35058-5.05029v-.6001Zm-5.5503,26.15137c0,4.55029,2.04981,5.05029,6.25,5.05029,9.20069,0,13.15088-6.60009,13.15088-15.25048,0-5.90039-2.10009-10.80079-6.80029-13.251a16.59306,16.59306,0,0,0-8.00049-1.6001,10.88532,10.88532,0,0,0-3.70019.5c-.7002.3501-.89991.75-.89991,2.7002Z"/><path class="cls-2" d="M490.92479,185.44307c-.40039-1.36036-.64013-2.24024-1.12011-3.60059-1.6001-4.16016-3.12012-4.87988-8.96045-4.87988H472.604c-2.15966,0-2.3999.24023-2.3999,2.40039v19.28027h10.48047c5.91992,0,6.31982-.56055,7.6001-6.24023h1.04v14.96h-1.04c-1.2002-5.75977-1.84033-6.40039-7.76026-6.40039H470.20409v16.80078c0,6.32031.32031,7.12012,7.52,8.08008v.96H457.564v-.96c6.24024-.79981,6.96-1.59961,6.96-8.08008v-33.9209c0-6.55957-.56006-7.12012-6.96-8.08008v-.96h23.60059c7.43994,0,9.52-.08008,10.3999-.16016a104.88617,104.88617,0,0,0,.48,10.64063Z"/><path class="cls-2" d="M557.32421,173.68232c13.44043,0,25.28076,10.80078,25.28076,26.40039,0,16.80079-11.60059,27.9209-25.9209,27.9209-14.08008,0-25.36035-11.52051-25.36035-26.40039C531.32372,187.12275,541.24364,173.68232,557.32421,173.68232Zm-1.52,1.75977c-9.28027,0-17.60059,8.32031-17.60059,23.84082,0,15.68066,8.16016,26.88086,20.24073,26.88086,9.43994,0,17.28027-8.16016,17.28027-23.60059C575.7246,185.28291,567.32421,175.44209,555.80419,175.44209Z"/><path class="cls-2" d="M663.644,186.08271a32.92648,32.92648,0,0,0-1.52-4.71972c-1.35986-3.2002-2.56006-4.48047-7.35986-4.48047H644.76366v41.12109c0,6,.56006,6.87989,7.6001,7.83985v.96H631.72362v-.96c7.04-1.12012,7.35987-1.91993,7.35987-7.83985V176.88252H628.92333c-4.48,0-5.2002,1.44043-6.31982,3.52051a32.49766,32.49766,0,0,0-2.08008,5.67968h-1.28028c.56006-4.32031.96-8.64062,1.2002-12.64062h.7998c.96,1.20019,1.43995,1.36035,4.32032,1.36035h33.84082c2.31982,0,3.04-.24023,3.75976-1.36035h.96045c0,3.28027.31983,8.001.71973,12.40039Z"/><path class="cls-2" d="M728.042,173.68232c13.44043,0,25.28076,10.80078,25.28076,26.40039,0,16.80079-11.60058,27.9209-25.92089,27.9209-14.08008,0-25.36036-11.52051-25.36036-26.40039C702.04149,187.12275,711.96142,173.68232,728.042,173.68232Zm-1.52,1.75977c-9.28027,0-17.60058,8.32031-17.60058,23.84082,0,15.68066,8.16015,26.88086,20.24072,26.88086,9.43994,0,17.28027-8.16016,17.28027-23.60059C746.44237,185.28291,738.042,175.44209,726.522,175.44209Z"/><path class="cls-2" d="M810.60058,174.80244c5.43994,0,9.68017,1.04,12.72021,3.28027a13.48141,13.48141,0,0,1,5.12012,11.12012c0,10.7207-9.12012,15.84082-16.56055,15.84082a9.53588,9.53588,0,0,1-2.31982-.32031l-5.36035-1.28027v14.7207c0,6.24023.72021,6.71973,7.04,7.67969v.96H791.56005v-.96c6.3999-.87989,6.96-1.59961,6.96-7.91993V183.68232c0-6.63965-.48-7.04-6.79981-7.91992v-.96Zm-6.40039,27.12109a16.84022,16.84022,0,0,0,5.68017.79981c5.43994,0,12.16016-2.56055,12.16016-13.44043,0-8.87988-5.35987-12.88086-12.48-12.88086-2.16016,0-3.92041.40039-4.40039.88086-.63965.55957-.96,1.75976-.96,4.7998Z"/><path class="cls-2" d="M912.5205,227.20381c-.64014,0-2.56006,0-3.12012-.08008-6.72021-.40039-8.32031-1.2002-11.52-5.52051-2.64014-3.67969-6.48047-10.08008-9.28027-14.87988-2.08008-3.52051-2.96-4-7.04-4H878.1997v15.20019c0,6.16016.64013,7.04,7.04,7.91993v.96H865.55956v-.96c6.24023-.96,6.96-1.59961,6.96-7.91993V183.52314c0-6.16015-.56006-6.80078-6.96-7.76074v-.96h19.12061c5.43994,0,9.75976.87988,12.64013,2.96a11.67862,11.67862,0,0,1,4.87989,9.84082c0,6.55957-4.39991,11.12012-10.24024,13.67969,1.52,2.7207,5.2002,8.80078,7.6001,12.40039a76.32992,76.32992,0,0,0,6.64014,9.2002c2.00048,2.16015,3.36035,2.7998,6.56054,3.36035Zm-29.44043-26.08106c4,0,6.23974-.16015,8.48-1.75976,3.20019-2.24024,4.24023-5.52051,4.24023-10.32032,0-8.71972-4.80029-12.64062-11.60058-12.64062-2.96,0-4.39991.32031-5.04.7207-.71973.4795-.96,1.2002-.96,3.75977v20.24023Z"/><path class="cls-2" d="M945.39892,226.80342v-.96c6.32031-1.12012,6.96-1.83985,6.96-8v-34.001c0-6.63965-.56006-7.04-6.96-8.08008v-.96h19.68017v.96c-6.48.87988-7.04,1.44043-7.04,8.08008v34.001c0,6.08007.56006,6.7998,7.04,8v.96Z"/><path class="cls-2" d="M1056.5996,175.7624c-5.68018,1.28027-6.16016,2.24024-6.32031,7.68067-.08008,2.08007-.23975,3.51953-.23975,10.47949V227.6833h-1.28027l-35.9209-44.24023v22.96c0,7.68066.16016,10.16015.24023,12.7207.15967,4.63965,1.43994,5.67969,7.68018,6.71973v.96h-18.08057v-.96c5.92041-1.35938,7.2002-2.08008,7.36035-6.79981.08008-2.08008.23975-5.04.23975-12.64062V182.72236a4.752,4.752,0,0,0-1.12012-3.35937c-1.91992-2.40039-4.31982-3.04-7.27978-3.60059v-.96h11.20019l34.48047,41.84082v-22.7207c0-6.96-.07959-8.08008-.23974-10.79981-.31983-5.12011-1.35987-6.56054-8-7.36035v-.96h17.28027Z"/><path class="cls-2" d="M1137.23681,186.08271a32.92648,32.92648,0,0,0-1.52-4.71972c-1.35987-3.2002-2.56006-4.48047-7.35987-4.48047h-10.00048v41.12109c0,6,.56005,6.87989,7.60009,7.83985v.96H1105.3164v-.96c7.04-1.12012,7.35986-1.91993,7.35986-7.83985V176.88252H1102.5161c-4.48,0-5.20019,1.44043-6.31982,3.52051a32.49766,32.49766,0,0,0-2.08008,5.67968h-1.28027c.56006-4.32031.96-8.64062,1.20019-12.64062h.79981c.96,1.20019,1.43994,1.36035,4.32031,1.36035h33.84082c2.31982,0,3.04-.24023,3.75977-1.36035h.96045c0,3.28027.31982,8.001.71972,12.40039Z"/></g></g></g></svg>