<svg xmlns="http://www.w3.org/2000/svg" viewBox="0 0 1024.21229 840.8451"><defs><style>.cls-1{fill:#ad8226;}.cls-2{fill:#141414;}</style></defs><g id="Layer_2" data-name="Layer 2"><g id="Layer_1-2" data-name="Layer 1"><g id="logo_2_dark"><path class="cls-1" d="M121.74737,202.20058c0-15.72057,4.52089-36.35668,18.27789-52.6698,23.18983-27.71072,104.94617-97.87155,281.43019-97.87155,8.45044,0,17.0988,0,25.94267.39343,127.15361,4.91313,175.107,53.06324,175.107,101.21335,0,25.54923-13.36357,51.09846-35.571,70.35754-55.81488,48.15011-151.52494,65.44442-193.975,75.66411-6.28895,10.41641-12.77461,21.42058-19.26028,32.42714,18.67013,5.7,41.271,12.97133,66.23009,21.814,65.44441,23.191,149.36345,63.47965,185.52461,87.45754,35.96444,24.17222,62.10382,52.07965,67.01695,63.87068a13.21653,13.21653,0,0,1,1.37582,5.10985c0,3.14508-2.35941,3.93194-4.32418,3.93194a9.03568,9.03568,0,0,1-2.55492-.39343c-.98239-.19672-11.00536-52.47309-128.1372-102.9814a1987.55849,1987.55849,0,0,0-190.0443-70.35755c-28.69311,48.34443-56.01039,93.15514-58.762,93.15514-4.5209-.59015-13.95372-15.32954-13.95372-24.95908a11.571,11.571,0,0,1,.39343-2.75164c.98239-3.53851,18.86565-35.76892,40.87757-74.68292-20.43938-5.6976-35.57221-9.03939-43.04026-9.43283h-3.34059c-22.60088,0-52.08085,9.03939-73.30591,9.03939a54.31,54.31,0,0,1-8.25372-.58775C198.59058,328.17629,189.55,319.72705,189.55,312.259c0-6.68359,7.07582-12.5779,26.3361-12.5779,3.53731,0,7.66357.19671,12.18446.58775,40.87758,4.32538,50.90055,11.00656,69.57188,11.00656,6.68119,0,14.346-.78687,24.95908-2.94836,13.16685-2.55492,23.18983-4.51969,31.05132-5.89431,30.65908-53.85011,63.67516-110.84289,70.9477-122.833,0,0,5.50208-6.68119,13.757-6.68119,4.91313,0,10.41521,2.35821,16.50864,9.43283a9.81368,9.81368,0,0,1,2.35821,6.8803c0,11.59431-14.93611,27.71072-21.61849,38.51816C421.65217,250.154,416.739,258.80233,400.82055,285.9229c22.79639-6.87791,50.31159-14.54268,50.31159-14.54268C553.91682,240.32771,593.41858,190.803,593.41858,149.53078c0-18.47222-7.86029-35.37549-21.61729-48.14771C546.44877,77.79861,479.43182,59.91415,402.5886,59.91415c-57.18949,0-120.079,10.023-175.1082,34.78534-88.63424,39.69847-102.39124,86.474-102.39124,111.62975,0,11.20088,2.75164,18.2779,2.75164,18.2779C124.499,223.23012,121.74737,214.19073,121.74737,202.20058ZM324.763,317.56556s6.48567,1.57134,17.491,4.71641l6.68239-11.59671Z"/><path class="cls-1" d="M553.0354,146.49241c15.91849,2.75164,21.8152,13.56149,21.8152,22.20744a18.24665,18.24665,0,0,1-.98358,5.7c-2.55493,6.48447-50.50712,79.20022-73.108,117.13063l45.39726-.98118c11.3988,1.1779,15.52626,6.48446,15.52626,11.791a11.01137,11.01137,0,0,1-4.12746,8.45164c-6.68118,5.30416-15.91849,8.84267-15.91849,8.84267s-4.71641-12.18447-27.12057-13.168H493.68321l-7.66477,13.168c8.45044,3.73523,12.18566,10.41641,12.18566,18.868,0,44.02144-95.12111,138.74792-109.46706,138.74792a1.65785,1.65785,0,0,1-1.1791-.391,2.45115,2.45115,0,0,1-.78687-2.16389c0-19.25909,70.9477-144.44792,78.219-157.22254-4.51969-.98358-9.82626-1.96477-16.11521-2.75164-21.22505-2.55492-36.35787-4.71641-36.35787-10.023v-.78686c1.37582-6.091,7.07462-10.023,7.07462-10.023s26.53161-.98119,58.3698-1.76805L515.105,220.38847V218.618c0-13.36236-4.51969-26.72713-20.04595-34.982-40.68205-22.20744-94.13752-13.36477-94.13752-30.8558v-.19672c.589-17.68534,78.02231-56.40262,250.77231-63.674,21.02833-.78687,40.68085-1.1803,58.762-1.1803,131.87122,0,192.00908,21.02953,192.00908,43.82713,0,21.02713-25.1558,29.67549-38.71609,29.67549-3.34059,0-5.89551-.39343-7.27133-1.37462-7.27254-5.10985,7.66477-30.06893-44.21937-38.32385-25.94266-4.12866-76.64649-7.07462-132.65809-7.07462-56.60054,0-118.31093,2.946-165.67417,10.41641-74.09157,11.791-96.69245,22.99191-96.69245,29.08534,0,1.57134,1.57254,2.94836,4.323,3.73283,12.5779,3.73523,61.31816,7.66477,81.36411,23.78118,9.04059,7.27133,14.73938,18.47461,15.91849,31.446ZM482.0877,323.56658,409.37194,455.63332s4.91313-2.55492,43.4337-45.59518c33.01608-37.14355,39.69847-57.38622,39.69847-68.98053a35.49032,35.49032,0,0,0-.39344-4.91313C490.53934,328.283,489.16351,325.92479,482.0877,323.56658Zm-11.3988-17.1c-15.13282,0-26.13818.19672-26.13818.19672a137.81723,137.81723,0,0,1,23.38774,5.10984Z"/><path class="cls-1" d="M782.61389,142.82441v410.443H241.60455V352.959c-4.12686.63873-8.22943,1.15452-12.28282,1.54735V565.55025h565.575V144.00351C791.06448,143.58608,786.96206,143.19265,782.61389,142.82441ZM237.55146,117.10425c-2.80082,1.25287-5.55186,2.53033-8.22973,3.83238V275.72479c.29507.02459.565.04918.86.07317l.46661.04918c3.90585.418,7.54182.83545,10.95618,1.27746v-161.789C240.229,115.90055,238.90239,116.4901,237.55146,117.10425ZM229.32173,0V60.8q6.0432-2.46946,12.28282-4.741V12.28282H782.61389V65.51639c4.20078.27048,8.27861.61414,12.28282.95779V0Z"/><path class="cls-2" d="M262.14725,695.00649c-.60156,0-2.407,0-2.93361-.07492-6.3182-.37607-7.82246-1.1282-10.831-5.19-2.48262-3.46025-6.0927-9.478-8.7259-13.99083-1.95525-3.30967-2.783-3.76065-6.61861-3.76065H229.879v14.29123c0,5.79156.60156,6.61935,6.61861,7.4464v.9027H217.994v-.9027c5.86721-.90271,6.54442-1.50427,6.54442-7.4464V653.93746c0-5.79156-.52663-6.39312-6.54442-7.29583v-.9027h17.977c5.11508,0,9.17689.827,11.885,2.783a10.98032,10.98032,0,0,1,4.58771,9.25181c0,6.16763-4.13672,10.45492-9.62787,12.86189,1.42934,2.55754,4.88959,8.27418,7.146,11.65878a71.63917,71.63917,0,0,0,6.24328,8.65024c1.88032,2.03091,3.15909,2.63246,6.16762,3.1591Zm-27.6805-24.52067c3.76139,0,5.86721-.15057,7.973-1.65483,3.00927-2.10656,3.98689-5.19,3.98689-9.70353,0-8.19853-4.51279-11.88427-10.90664-11.88427-2.783,0-4.13673.30115-4.739.67722-.67648.451-.902,1.12819-.902,3.53516v19.03025Z"/><path class="cls-2" d="M317.57656,644.68565c12.63713,0,23.76927,10.15451,23.76927,24.82181,0,15.79624-10.90665,26.25116-24.37083,26.25116-13.238,0-23.84419-10.831-23.84419-24.82181C293.13081,657.32279,302.45827,644.68565,317.57656,644.68565Zm-1.42861,1.65484c-8.7259,0-16.54837,7.82246-16.54837,22.41484,0,14.743,7.67263,25.27353,19.03026,25.27353,8.87574,0,16.24721-7.67262,16.24721-22.18935C334.87705,655.59229,326.97894,646.34049,316.148,646.34049Z"/><path class="cls-2" d="M403.16825,655.81779c-1.35442-5.26492-3.61081-9.55222-10.45565-9.55222-5.641,0-8.19853,4.21238-8.19853,8.64951,0,5.7923,3.234,8.12361,9.10123,11.58386,5.71664,3.38459,12.336,7.146,12.336,15.26959,0,7.89738-6.61935,13.99009-15.42017,13.99009a30.85245,30.85245,0,0,1-10.68041-2.18148c-.45172-2.0309-1.57992-8.64951-1.7305-10.07885l1.05328-.2255c1.27877,4.58771,4.66337,10.90665,12.41091,10.90665,6.39385,0,9.10123-5.04017,9.10123-10.07959,0-5.79156-3.91123-8.95066-9.17615-12.18542-5.64172-3.45951-11.80935-7.07033-11.80935-14.6673,0-7.07033,5.79156-12.56148,14.29124-12.56148a39.00384,39.00384,0,0,1,9.10123,1.20385c.30115,2.63246.67721,6.16763,1.20385,9.70279Z"/><path class="cls-2" d="M468.00141,655.81779c-1.35442-5.26492-3.61082-9.55222-10.45566-9.55222-5.641,0-8.19852,4.21238-8.19852,8.64951,0,5.7923,3.234,8.12361,9.10123,11.58386,5.71664,3.38459,12.336,7.146,12.336,15.26959,0,7.89738-6.61935,13.99009-15.42017,13.99009a30.85257,30.85257,0,0,1-10.68042-2.18148c-.45172-2.0309-1.57991-8.64951-1.73049-10.07885l1.05328-.2255c1.27877,4.58771,4.66336,10.90665,12.41091,10.90665,6.39385,0,9.10123-5.04017,9.10123-10.07959,0-5.79156-3.91123-8.95066-9.17615-12.18542-5.64172-3.45951-11.80935-7.07033-11.80935-14.6673,0-7.07033,5.79156-12.56148,14.29124-12.56148a39.00384,39.00384,0,0,1,9.10123,1.20385c.30114,2.63246.67721,6.16763,1.20385,9.70279Z"/><path class="cls-2" d="M541.63539,683.27279c-.37606,2.10583-1.88033,8.64952-2.70738,11.35763H505.60652v-.9027c6.69427-.90271,7.07034-1.50427,7.07034-7.67189V654.088c0-6.16762-.67722-6.69426-6.54443-7.4464v-.9027h17.977v.9027c-5.56607.97763-6.092,1.27878-6.092,7.4464v33.02034c0,5.34058.902,5.56607,5.94213,5.56607,1.42861,0,3.76066-.07492,5.03943-.07492,4.43787,0,6.24328-.07492,8.19853-2.93361a29.11881,29.11881,0,0,0,3.38459-6.69426Z"/><path class="cls-2" d="M605.56511,694.63042v-.9027c4.13746-.75213,5.26566-1.35369,4.36295-4.06181-.97762-3.234-2.85869-8.72516-5.11508-14.96844H589.69469c-1.65483,4.81393-3.08418,8.65024-4.21238,12.26106-1.65483,5.11435-.52663,5.641,5.19,6.76919v.9027H574.95174v-.9027c4.21237-.75213,5.49115-1.27877,8.27418-8.3491l15.64492-40.5424,1.05328-.15057c4.66337,13.68968,9.55222,27.455,14.59238,41.4451,2.33132,6.54369,3.234,6.54369,7.973,7.597v.9027ZM597.4415,653.3359c-2.407,6.39312-4.66336,12.93755-6.99468,19.18083H604.1365Z"/><path class="cls-2" d="M704.09582,646.64163c-5.34057,1.20312-5.79156,2.10583-5.94213,7.22091-.07566,1.95525-.2255,3.30967-.2255,9.85336v31.74157h-1.20385l-33.77247-41.59493V675.4496c0,7.2209.15057,9.553.22549,11.95992.15058,4.36295,1.35369,5.34057,7.22091,6.3182v.9027H653.39892v-.9027c5.56607-1.27877,6.76992-1.95525,6.92049-6.39312.07492-1.956.22549-4.739.22549-11.885V653.18533a4.4706,4.4706,0,0,0-1.05328-3.1591c-1.80541-2.2564-4.0618-2.858-6.84483-3.3846v-.9027h10.53057l32.41879,39.33854V663.7159c0-6.54369-.07492-7.597-.2255-10.15451-.30114-4.81393-1.27877-6.16762-7.522-6.91976v-.9027h16.24722Z"/><path class="cls-2" d="M758.99776,645.73893c9.62787,0,16.24648,2.10582,20.68435,6.39312,3.912,3.76139,6.39385,9.40238,6.39385,16.24722,0,9.17688-3.76065,15.94607-9.2518,20.23337-5.56607,4.36295-11.7337,6.01778-19.10517,6.01778H738.76365v-.9027c6.09271-1.1282,6.54443-1.72976,6.54443-7.52132V654.2386c0-5.94213-.60229-6.76991-6.54443-7.597v-.9027Zm-8.34911,39.33854c0,6.84484,3.08345,7.597,9.40165,7.597,13.84025,0,19.78238-9.92828,19.78238-22.94075,0-8.87574-3.1591-16.24722-10.22943-19.933-3.46024-1.80541-7.2209-2.407-12.03484-2.407a16.37425,16.37425,0,0,0-5.56607.75213c-1.05327.52664-1.35369,1.1282-1.35369,4.0618Z"/><path class="cls-2" d="M50.18348,776.82284c-.60229-2.04633-.96293-3.3699-1.685-5.41623-2.407-6.258-4.69347-7.34063-13.47887-7.34063H22.62418c-3.24871,0-3.61009.36138-3.61009,3.61082v29.00261H34.77948c8.90512,0,9.50668-.84321,11.43254-9.387h1.5645v22.50372H46.212c-1.80541-8.6642-2.76834-9.62787-11.67346-9.62787H19.01409v25.2728c0,9.50741.48184,10.71053,11.31209,12.15456v1.444H0v-1.444c9.387-1.20312,10.46961-2.40623,10.46961-12.15456v-51.026c0-9.86732-.84247-10.71053-10.46961-12.15456v-1.444H35.50149c11.19163,0,14.32062-.12046,15.64419-.24092a157.77581,157.77581,0,0,0,.722,16.0063Z"/><path class="cls-2" d="M150.06568,759.13159c20.218,0,38.02892,16.24721,38.02892,39.71313,0,25.2728-17.45033,42.00038-38.99185,42.00038-21.18015,0-38.14865-17.32987-38.14865-39.71313C110.9541,779.34953,125.87628,759.13159,150.06568,759.13159Zm-2.28651,2.64715c-13.96,0-26.47591,12.51594-26.47591,35.86287,0,23.58784,12.275,40.43588,30.44737,40.43588,14.20016,0,25.99408-12.275,25.99408-35.50149C177.74471,776.58192,165.10831,761.77874,147.77917,761.77874Z"/><path class="cls-2" d="M309.99868,777.785a49.53064,49.53064,0,0,0-2.2865-7.09971c-2.0456-4.81394-3.851-6.73981-11.07118-6.73981H281.59764v61.85695c0,9.02558.84247,10.34916,11.43254,11.79319v1.444H261.982v-1.444c10.59007-1.68495,11.07117-2.88807,11.07117-11.79319V763.94552H257.76961c-6.73907,0-7.82246,2.16679-9.50668,5.29577a48.88536,48.88536,0,0,0-3.129,8.54375h-1.92586c.84247-6.49889,1.444-12.99778,1.8054-19.01483h1.20312c1.444,1.80541,2.16605,2.04633,6.49889,2.04633H303.621c3.48963,0,4.573-.36138,5.65568-2.04633h1.44477c0,4.93439.4811,12.03557,1.08265,18.65345Z"/><path class="cls-2" d="M406.87015,759.13159c20.21795,0,38.02892,16.24721,38.02892,39.71313,0,25.2728-17.45033,42.00038-38.99185,42.00038-21.18015,0-38.14865-17.32987-38.14865-39.71313C367.75857,779.34953,382.68075,759.13159,406.87015,759.13159Zm-2.28651,2.64715c-13.96,0-26.47591,12.51594-26.47591,35.86287,0,23.58784,12.275,40.43588,30.44737,40.43588,14.20016,0,25.99408-12.275,25.99408-35.50149C434.54918,776.58192,421.91278,761.77874,404.58364,761.77874Z"/><path class="cls-2" d="M531.06,760.81654c8.1831,0,14.56153,1.56449,19.13455,4.93439,4.573,3.60935,7.702,9.02558,7.702,16.72758,0,16.12676-13.71906,23.82877-24.91143,23.82877a14.34457,14.34457,0,0,1-3.48962-.48184l-8.06338-1.92586v22.14381c0,9.38695,1.08339,10.10824,10.59007,11.55227v1.444H502.418v-1.444c9.62714-1.32358,10.46962-2.40623,10.46962-11.91365V774.17422c0-9.98778-.722-10.59007-10.2287-11.91365v-1.444Zm-9.62787,40.79726a25.33257,25.33257,0,0,0,8.54448,1.20312c8.1831,0,18.29207-3.85174,18.29207-20.21795,0-13.35768-8.06264-19.3762-18.77317-19.3762-3.24945,0-5.89733.60229-6.61935,1.325-.9622.84175-1.444,2.64715-1.444,7.22017Z"/><path class="cls-2" d="M684.3744,839.642c-.96293,0-3.851,0-4.69348-.12046-10.109-.6023-12.51594-1.80541-17.32914-8.3043-3.97146-5.53522-9.74833-15.16309-13.96-22.38326-3.129-5.29577-4.45256-6.01705-10.59007-6.01705h-5.05486V825.682c0,9.2665.96294,10.59007,10.59007,11.91365v1.444H613.73279v-1.444c9.38695-1.444,10.46961-2.40623,10.46961-11.91365V773.93477c0-9.2665-.84247-10.23017-10.46961-11.6742v-1.444h28.76242c8.18311,0,14.68126,1.32357,19.0141,4.45256,4.3321,2.88806,7.34062,8.30429,7.34062,14.80318,0,9.86732-6.61861,16.72758-15.404,20.57785,2.28651,4.09266,7.82246,13.23869,11.43254,18.65345,4.09192,6.258,7.22091,10.831,9.98852,13.83952,3.00926,3.24944,5.05485,4.21164,9.86879,5.05485Zm-44.28616-39.23278c6.01706,0,9.38623-.24091,12.75613-2.64715,4.81393-3.3699,6.37843-8.30429,6.37843-15.52446,0-13.11677-7.22091-19.01483-17.45034-19.01483-4.45256,0-6.61861.48183-7.58154,1.08413-1.08266.72128-1.444,1.80541-1.444,5.65567v30.44664Z"/><path class="cls-2" d="M733.8322,839.03969v-1.444c9.50741-1.68495,10.46961-2.76761,10.46961-12.03411V774.41513c0-9.98777-.84248-10.59007-10.46961-12.15456v-1.444h29.60416v1.444c-9.7476,1.32358-10.59007,2.16679-10.59007,12.15456v51.14642c0,9.146.84247,10.2287,10.59007,12.03411v1.444Z"/><path class="cls-2" d="M901.1073,762.26057c-8.54448,1.92587-9.2665,3.3699-9.50742,11.55374-.12046,3.129-.36064,5.2943-.36064,15.76392v50.785h-1.92587l-54.03448-66.549v34.53783c0,11.55374.24091,15.28355.36137,19.13528.24018,6.97925,2.16605,8.54375,11.553,10.10824v1.444H819.99534v-1.444c8.90585-2.04486,10.831-3.129,11.0719-10.2287.12046-3.129.36064-7.58154.36064-19.01482v-35.622a7.14833,7.14833,0,0,0-1.68495-5.05338c-2.88806-3.61082-6.49815-4.573-10.95071-5.41623v-1.444h16.848l51.8677,62.9396V789.57823c0-10.46962-.11972-12.15457-.36064-16.24575-.4811-7.702-2.04559-9.86879-12.0341-11.07191v-1.444H901.1073Z"/><path class="cls-2" d="M1022.40688,777.785a49.52922,49.52922,0,0,0-2.28651-7.09971c-2.04559-4.81394-3.851-6.73981-11.07117-6.73981H994.00583v61.85695c0,9.02558.84248,10.34916,11.43255,11.79319v1.444h-31.0482v-1.444c10.59007-1.68495,11.07117-2.88807,11.07117-11.79319V763.94552H970.1778c-6.73907,0-7.82246,2.16679-9.50667,5.29577a48.88455,48.88455,0,0,0-3.129,8.54375h-1.92587c.84248-6.49889,1.444-12.99778,1.80541-19.01483h1.20312c1.444,1.80541,2.166,2.04633,6.49889,2.04633h50.9055c3.48962,0,4.573-.36138,5.65568-2.04633h1.44476c0,4.93439.4811,12.03557,1.08266,18.65345Z"/></g></g></g></svg>