<svg width="452" height="452" viewBox="0 0 452 452" fill="none" xmlns="http://www.w3.org/2000/svg">
<g filter="url(#filter0_d)">
<path d="M205 18.6001C154.7 24.6001 113.5 44.3001 78.9 78.9001C38.9 119 18 169.3 18 226C18 282.7 38.9 333 78.9 373.1C106.3 400.5 137.1 418.2 173.7 427.6C222.5 440.1 274.8 434.6 319.4 412.3C339.3 402.3 356.2 390 373.1 373.1C400.5 345.6 418.2 315 427.6 278.3C440.1 229.5 434.6 177.2 412.3 132.6C402.3 112.7 390 95.8001 373.1 78.9001C341.6 47.4001 305.4 28.6001 260.5 20.5001C251.8 18.9001 213.5 17.6001 205 18.6001ZM263 40.3001C269.3 41.7001 278.4 44.1001 283.1 45.6001L291.8 48.5001L270.7 97.5001C259.1 124.4 249.5 146.7 249.3 146.9C249.2 147.1 246.2 146.7 242.8 145.9C234.1 144 215.2 144.2 207.1 146.3C191.9 150.4 181.1 156.3 170.2 166.5C158.4 177.6 150.4 191.1 146.5 206.5C144.2 215.2 143.9 234 145.9 242.8C146.7 246.2 147.1 249.2 146.9 249.4C146.7 249.5 124.5 259.1 97.5 270.7L48.5 291.7L45.2 281.6C38.9 261.9 37.5 252.2 37.5 226C37.5 205.4 37.8 201.1 39.8 191C56 110.8 117.6 51.7001 198.8 38.5001C205.1 37.5001 213.6 37.2001 229.5 37.4001C248.2 37.8001 253.2 38.2001 263 40.3001ZM330.5 68.5001C354.3 84.3001 375.4 106.8 390.1 132.3C393.3 137.8 395.8 142.5 395.7 142.6C395.4 142.9 303.1 182.5 299.3 184C297.4 184.8 296.6 184.1 292.7 178.7C287.6 171.6 278.8 162.9 271.7 158.1C269.1 156.3 267.1 154.6 267.3 154.2C267.5 153.8 277.1 131.6 288.5 104.8L309.3 56.0001L315.9 59.6001C319.5 61.6001 326.1 65.6001 330.5 68.5001ZM409.5 179.7C415 200.5 416.6 230.3 413.4 251.9C401.1 336.5 336.5 401.1 251.9 413.4C232.9 416.2 203.1 415.1 185.3 410.9C182.7 410.3 176 408.4 170.4 406.8L160.3 403.8L181.3 354.6C192.9 327.6 202.4 305.4 202.6 305.2C202.7 305 207.6 305.7 213.5 306.6C240.6 311 267.1 301.7 286.1 281.2C295.9 270.5 301.7 259.7 305.7 244.9C307.8 236.8 308 217.9 306.1 209.2C305.3 205.8 304.9 202.8 305.1 202.6C305.3 202.5 327.6 192.9 354.5 181.4L403.5 160.4L405.3 165.4C406.3 168.2 408.2 174.6 409.5 179.7ZM243 165.6C263.4 171.6 280.4 188.7 286.6 209.5C289.1 217.7 289.1 234.3 286.6 242.5C280.3 263.5 263.5 280.3 242.5 286.6C234.3 289.1 217.7 289.1 209.5 286.6C188.5 280.3 171.7 263.5 165.4 242.5C162.9 234.3 162.9 217.7 165.4 209.5C172.5 185.7 193.3 167.4 217.5 163.6C222.8 162.8 237.4 163.9 243 165.6ZM159.3 273.2C164.4 280.3 173.2 289.1 180.3 293.9C182.9 295.7 184.9 297.4 184.7 297.8C184.5 298.2 174.9 320.4 163.5 347.2L142.7 396L136.1 392.3C103.5 374.2 77.7 348.4 59.7 315.9L56 309.3L105.3 288.2C132.3 276.6 154.6 267.1 154.7 267C154.8 267 156.8 269.8 159.3 273.2Z" fill="white"/>
<path d="M220 199.1C205.7 201.9 196 216.9 199 231.5C202.1 246.3 216.3 255.8 231.3 253C246.2 250.1 256.2 235.4 253 220.7C249.7 205.1 235.7 196 220 199.1Z" fill="white"/>
</g>
<defs>
<filter id="filter0_d" x="-4" y="0" width="460" height="460" filterUnits="userSpaceOnUse" color-interpolation-filters="sRGB">
<feFlood flood-opacity="0" result="BackgroundImageFix"/>
<feColorMatrix in="SourceAlpha" type="matrix" values="0 0 0 0 0 0 0 0 0 0 0 0 0 0 0 0 0 0 127 0"/>
<feOffset dy="4"/>
<feGaussianBlur stdDeviation="2"/>
<feColorMatrix type="matrix" values="0 0 0 0 0 0 0 0 0 0 0 0 0 0 0 0 0 0 0.25 0"/>
<feBlend mode="normal" in2="BackgroundImageFix" result="effect1_dropShadow"/>
<feBlend mode="normal" in="SourceGraphic" in2="effect1_dropShadow" result="shape"/>
</filter>
</defs>
</svg>
