<svg width="427" height="427" viewBox="0 0 427 427" fill="none" xmlns="http://www.w3.org/2000/svg">
<g clip-path="url(#clip0)">
<g filter="url(#filter0_d)">
<path d="M22.5915 38.4796C8.44087 45.5549 0.744942 57.5953 0.620814 72.6148C0.620814 81.0555 0.993198 82.0485 9.18564 98.3093C16.1368 111.963 17.7505 116.308 17.6263 120.652C17.6263 123.507 14.1508 139.644 10.0545 156.277C-2.85477 208.287 -2.85477 218.589 10.0545 270.599C14.1508 287.356 17.6263 303.493 17.6263 306.348C17.7505 310.692 16.1368 315.037 9.18564 328.691C0.993198 344.827 0.620814 345.944 0.620814 354.385C0.620814 374.866 16.1368 390.755 37.2385 391.872C45.8034 392.368 48.4101 391.872 68.8912 385.541C95.8269 377.101 108.24 374.494 114.818 375.487C117.549 375.859 123.383 378.218 127.852 380.7C149.947 392.989 148.581 392.492 160.125 391.996C169.807 391.499 171.917 390.879 185.82 384.424C211.39 372.508 216.355 372.508 236.96 384.3C250.366 391.872 253.718 392.865 265.386 391.996C271.84 391.499 277.426 389.762 290.087 384.424C299.148 380.576 308.706 376.852 311.437 376.108C317.271 374.618 317.643 374.618 354.385 385.045C378.094 391.748 381.321 392.368 389.762 391.872C410.988 390.755 426.255 375.115 426.38 354.385C426.38 345.944 426.007 344.951 417.815 328.691C410.864 315.161 409.25 310.692 409.374 306.348C409.374 303.493 412.353 289.59 415.829 275.564C423.276 245.401 427 225.044 427 213.748C427 201.832 424.145 185.695 416.325 153.919C412.601 138.527 409.374 123.507 409.374 120.652C409.25 116.308 410.864 111.963 417.815 98.3093C426.007 82.0485 426.38 81.0555 426.38 72.6148C426.255 57.4712 418.063 44.9343 404.037 38.2314C392.244 32.6456 384.673 33.2662 358.482 41.5828C336.635 48.534 321.988 52.1337 315.533 52.1337C310.196 52.1337 302.748 49.1546 294.556 43.9412C283.012 36.4936 278.295 34.7558 269.234 34.7558C259.924 34.7558 253.221 36.8659 235.843 45.0584C216.231 54.368 209.528 54.2439 193.391 44.4377C179.241 35.8729 174.4 34.3834 162.856 35.004C154.664 35.5005 150.94 36.6177 137.037 42.5758C111.839 53.375 112.832 53.2508 93.0961 47.9133C83.9106 45.4308 69.8842 41.4587 62.0641 39.1002C42.8243 33.3904 33.2665 33.2662 22.5915 38.4796ZM65.788 57.9677C105.385 70.2564 113.205 71.0011 130.334 63.8017C136.168 61.4433 145.106 57.7194 150.195 55.6093C164.47 49.7752 169.435 50.1476 182.468 57.9677C195.998 66.036 202.701 68.2703 213.873 68.2703C225.168 68.2703 229.389 67.029 247.139 58.8366C266.751 49.7752 269.109 49.527 279.288 55.1127C300.141 66.5325 302.996 67.6497 313.671 68.0221C326.084 68.6427 334.897 66.7808 361.957 58.0918C385.666 50.52 391.996 50.0235 399.568 54.9886C405.154 58.7125 409.622 66.1601 409.622 71.87C409.622 73.8561 405.898 83.0415 401.43 92.3511C389.886 115.811 389.762 117.549 398.823 154.043C413.098 210.893 413.098 217.224 398.823 273.081C389.762 308.706 389.886 310.816 401.306 334.152C410.367 352.399 410.988 355.999 407.14 363.695C404.161 369.529 399.444 373.128 392.12 374.99C386.038 376.48 382.314 375.611 346.938 365.06C335.642 361.585 326.084 359.599 319.63 359.102C308.706 358.357 304.982 359.35 279.909 370.025C262.903 377.101 257.814 377.225 246.27 370.274C232.864 362.081 226.161 359.599 216.355 358.978C205.059 358.233 199.101 359.723 180.606 368.039C160.249 377.225 157.891 377.473 147.712 371.887C128.348 361.212 124.128 359.599 114.818 358.978C103.15 358.233 92.972 360.095 70.8772 367.046C41.583 376.232 39.8452 376.604 34.1353 374.866C31.4045 373.997 27.6807 372.26 25.6947 370.894C21.4743 367.915 17.3781 360.095 17.3781 355.13C17.3781 353.144 21.1019 343.958 25.5705 334.649C37.2385 311.189 37.2385 308.706 28.0531 273.081C13.7784 217.596 13.7784 209.404 28.0531 153.919C37.2385 118.294 37.1144 116.184 25.6947 92.8476C20.7295 82.7933 17.3781 74.4767 17.3781 72.1183C17.3781 63.9258 24.5775 54.8645 33.2665 52.1337C38.3557 50.3959 46.1758 51.8854 65.788 57.9677Z" fill="white"/>
<path d="M62.0641 96.8198C59.5815 99.3023 59.5815 100.916 59.5815 212.383C59.5815 325.96 59.7057 328.939 63.8019 331.67C65.5397 332.911 361.461 332.911 363.198 331.67C367.295 328.939 367.419 325.96 367.419 213.5C367.419 101.04 367.295 98.061 363.198 95.3302C362.454 94.8337 294.928 94.3372 213.252 94.3372C66.1603 94.3372 64.5467 94.3372 62.0641 96.8198ZM350.041 213.5V316.526H213.5H76.9595V213.5V110.474H213.5H350.041V213.5Z" fill="white"/>
<path d="M254.463 139.147C250.242 141.009 235.968 154.539 197.736 192.771L146.471 243.911L141.382 263.027C135.796 283.756 135.921 286.611 142.003 289.342C144.361 290.459 148.457 289.715 163.973 285.618L183.089 280.529L234.23 229.264C286.736 176.634 290.336 172.414 290.46 163.228C290.46 148.705 278.295 136.541 263.772 136.541C261.786 136.541 257.566 137.782 254.463 139.147ZM260.669 166.952L266.255 172.538L219.955 218.838L173.78 265.013L167.946 259.055L161.987 253.221L207.915 207.294C233.113 181.972 254.09 161.366 254.463 161.366C254.835 161.366 257.69 163.849 260.669 166.952Z" fill="white"/>
</g>
</g>
<defs>
<filter id="filter0_d" x="-3.62744" y="34.5868" width="434.628" height="365.67" filterUnits="userSpaceOnUse" color-interpolation-filters="sRGB">
<feFlood flood-opacity="0" result="BackgroundImageFix"/>
<feColorMatrix in="SourceAlpha" type="matrix" values="0 0 0 0 0 0 0 0 0 0 0 0 0 0 0 0 0 0 127 0"/>
<feOffset dy="4"/>
<feGaussianBlur stdDeviation="2"/>
<feColorMatrix type="matrix" values="0 0 0 0 0 0 0 0 0 0 0 0 0 0 0 0 0 0 0.25 0"/>
<feBlend mode="normal" in2="BackgroundImageFix" result="effect1_dropShadow"/>
<feBlend mode="normal" in="SourceGraphic" in2="effect1_dropShadow" result="shape"/>
</filter>
<clipPath id="clip0">
<rect width="427" height="427" fill="white"/>
</clipPath>
</defs>
</svg>
