<svg width="460" height="452" viewBox="0 0 460 452" fill="none" xmlns="http://www.w3.org/2000/svg">
<g filter="url(#filter0_d)">
<path d="M32.5 28.9C25.4 31.4 23.3 32.7 18.2 37.3C7.90001 46.9 3.60001 57.4 4.20001 71.5C4.60001 80.4 4.70001 80.7 12.2 96C20.4 112.6 22.6 119.2 21.6 124.2C21.3 125.9 18.5 133 15.5 140C6.80001 160.4 4.80001 168.1 4.30001 184.8C3.50001 206.5 5.20001 214.8 15.7 239.4C18.7 246.5 21.4 253.8 21.7 255.6C22.6 261 20.4 267.6 12.2 283.9L4.50001 299.3V310.4C4.50001 320.8 4.70001 321.9 7.70001 328.3C14.8 343.1 29.8 353 45.5 353C51.9 353 58.7 349.8 66.7 343.1C74.2 336.8 80.1 334.1 86.2 334C94.1 334 94.3 334.3 91.6 341.3C90.3 344.7 86.4 353 83 359.7C77.3 370.8 76.7 372.6 76.2 379.5C74.7 403.3 92.2 423.7 115.1 424.8C124.5 425.3 128.9 423.6 138.7 415.7C148.7 407.7 151.3 406.5 159.5 406.6C167.3 406.6 168.9 407.3 183.4 416.4C193.9 423 199.9 425 208.9 425C218 425 221.2 424 239 415.4C258.1 406.3 263.8 404.9 273.7 407.3C277.4 408.3 286.4 411.9 293.5 415.4C309.1 423.1 315.2 425 324 425C333 425 339.6 422.9 352 416C368.7 406.6 371.6 405.6 376.1 406.9C378.2 407.6 384.9 411.4 391 415.5C397.1 419.5 403.7 423.4 405.7 424.1C407.8 424.8 412.6 425.1 417.4 424.8C432.6 424 445.3 415 452.3 400.3C455.3 393.9 455.5 392.8 455.5 382.5V371.5L447.8 356C439.6 339.5 437.4 332.9 438.4 327.9C438.7 326.2 441.9 317.5 445.4 308.7C455 284.7 455.5 282.5 455.5 262.5C455.5 242.9 454.3 237 446.5 218.5C440.1 203.3 438 197.2 438 193.4C438 188.8 441.6 179.7 449.1 165.2L455.5 152.9V141.7C455.5 131.2 455.3 130.1 452.3 123.7C445.7 109.8 432.4 100.4 417.7 99.3C411.2 98.8 409.6 99 404.9 101.3C401.9 102.6 396.8 106.1 393.5 108.9C385.3 116 380.8 118 373.1 118H366.7L367.3 114.4C367.6 112.5 371.4 103.9 375.6 95.3C382.6 81.3 383.4 79.1 383.8 72.6C384.9 54.7 376 39.1 360.2 31.2C353.7 28 351.5 27.5 344.5 27.2C334.6 26.7 331.9 27.9 320.1 37.5C305.3 49.4 296.8 49.1 277.2 36.2C266.5 29.1 260.4 27 251 27C242.3 27 236.1 28.9 221.5 36.2C195.7 49.2 190.8 49.2 165.1 35.9C150.8 28.5 145.7 27 136.1 27C126.4 27.1 121.8 28.7 105.3 37.8C98.1 41.8 90.6 45.3 88.8 45.7C84.6 46.3 79.9 44.1 68.8 36.4C57.7 28.5 53.9 27 45 27.1C40.3 27.1 35.6 27.8 32.5 28.9ZM49.8 47.7C51.3 48.6 55.8 51.5 59.7 54.2C70.3 61.3 77.2 64.2 85.1 64.8C94 65.4 99.4 63.6 113.5 55.5C134.7 43.3 135.8 43.3 158.7 54.3C175.8 62.5 183.8 65 194 65C204.1 65 211.9 62.6 229.2 54.3C247.4 45.6 252.2 44.5 258.6 47.8C260.7 48.9 266.5 52.3 271.3 55.3C283.6 63.1 288.2 64.5 301 64.5C311 64.5 311.9 64.3 319 60.9C323.1 58.9 329.6 54.7 333.3 51.6C338.5 47.4 340.9 46 343.4 46C347.9 46 356.6 50.6 359.5 54.5C363 59 365.4 66.4 364.7 70.6C364.4 72.5 360.7 81.1 356.6 89.8C349.5 104.7 346 115.9 346 123.5C346 127.3 349.5 137.7 355.5 152C363.2 170.2 364.4 175.3 364.4 190C364.5 204.9 362.9 211.3 354.6 230.4C347.8 245.9 346.8 249.6 346.8 258.5C346.9 267.3 348.9 273.4 357.9 292.5C362.4 302.1 365 308.8 365 311C365 319.6 356.5 330.5 347.7 332.9C341.9 334.6 340.5 334.1 326.2 324.8C305.9 311.7 295.9 311.6 273.4 324.6C260 332.4 254.7 334.3 249 333.6C246.5 333.2 237.5 329.6 228.9 325.5C211.8 317.3 204.1 315 193.6 315C183.9 315 176.5 317.2 160 325C142.8 333.1 138.9 334.4 134.3 333.7C132.3 333.3 125.5 330 119.1 326.1C105 317.7 100 315.9 89.3 315.2C76 314.5 66.3 318.2 52.4 329.5C47.2 333.8 46.3 334.2 42.7 333.7C33 332.4 24.1 322.8 23.2 312.6C22.8 307.7 23.3 306.2 30.8 290.4C39.4 272.1 41 267.1 41 258.5C41 250.6 39.5 245.2 33.4 231.9C25.2 213.6 23.8 208.5 23.3 193C22.7 176.9 24.4 167.8 31 152.9C39.7 133.1 40.3 131.6 40.8 124.4C41.4 114.4 39.9 108.9 31.2 90.5C26.4 80.4 23.5 72.8 23.2 69.9C21.8 55.6 39.1 41.1 49.8 47.7ZM425.8 121.7C431.9 125.5 436.2 132.4 436.8 139.4C437.2 144.3 436.7 145.8 429.2 161.6C420.1 181 418.6 186.2 419.2 196.8C419.6 203.1 420.5 206.6 424.4 216C434.7 240.8 436.3 246.3 436.8 259.6C437.3 274.4 435.6 282.3 427.6 300.9C420.8 316.9 419 322.9 419 330.2C419 339.1 420.5 344 428.8 361.5C433.6 371.6 436.5 379.2 436.8 382.1C437.6 390.7 431.1 401 422.4 404.6C415.8 407.3 413.1 406.5 400.2 398.1C378 383.7 369 383.5 346.1 396.8C330.8 405.7 324.6 407.4 316.9 404.9C315 404.3 307 400.7 299 396.9C271 383.6 260.8 383.7 231.7 397.7C208.7 408.6 207.3 408.6 190 397.4C172.8 386.3 156.8 384.3 140.8 391.2C138 392.4 132.1 396.2 127.7 399.7C121.7 404.4 118.9 406 116.5 406C112.1 406 103.4 401.4 100.5 397.5C97 393 94.6 385.6 95.3 381.4C95.6 379.6 99 371.4 102.8 363.3C106.7 355.1 110.1 347.5 110.5 346.3L111.1 344L114.8 346.5C119.8 349.9 130.1 353 136.4 353C144.1 353 151 350.8 167 343.1C182.8 335.5 187.2 334 194.1 334C200.8 334 207.9 336.4 222.2 343.6C247.3 356.2 257.2 356.2 280 343.6C296.1 334.7 297.6 334 300.5 334C303.8 334 309.4 336.9 320.1 344.1C333.5 353.2 340 354.7 352.5 351.4C364.7 348.3 374 340.3 379.9 328C383.3 320.9 383.5 319.9 383.5 310.5V300.5L375.9 284.5C363.5 258.7 363.6 259.7 372.4 238.2C382.1 214.6 383.4 208.7 383.4 190C383.4 172.2 382.4 167 375.5 149.3C373 143 371 137.7 371 137.5C371 137.4 374.2 137 378 136.8C386.7 136.1 396.3 131.7 406.4 123.4C412.8 118.3 413.7 117.8 417.3 118.3C419.4 118.6 423.3 120.1 425.8 121.7Z" fill="white"/>
<path d="M69.6 92.6L67 95.3V189.6V283.9L69.4 286.7L71.8 289.5L192.2 289.8C281.4 290 313.2 289.7 315.3 288.9C321.3 286.4 321.1 290.8 320.8 188.4L320.5 94.8L317.7 92.4L314.9 90H193.6H72.3L69.6 92.6ZM302 190V271H194H86V190V109H194H302V190Z" fill="white"/>
</g>
<defs>
<filter id="filter0_d" x="0" y="0" width="460" height="460" filterUnits="userSpaceOnUse" color-interpolation-filters="sRGB">
<feFlood flood-opacity="0" result="BackgroundImageFix"/>
<feColorMatrix in="SourceAlpha" type="matrix" values="0 0 0 0 0 0 0 0 0 0 0 0 0 0 0 0 0 0 127 0"/>
<feOffset dy="4"/>
<feGaussianBlur stdDeviation="2"/>
<feColorMatrix type="matrix" values="0 0 0 0 0 0 0 0 0 0 0 0 0 0 0 0 0 0 0.25 0"/>
<feBlend mode="normal" in2="BackgroundImageFix" result="effect1_dropShadow"/>
<feBlend mode="normal" in="SourceGraphic" in2="effect1_dropShadow" result="shape"/>
</filter>
</defs>
</svg>
