<svg width="452" height="452" viewBox="0 0 452 452" fill="none" xmlns="http://www.w3.org/2000/svg">
<g filter="url(#filter0_d)">
<path d="M271.5 68C209.4 90.4 157.4 109.6 156 110.8C154 112.4 153.5 113.7 153.5 117.5C153.5 121.4 154 122.6 156.3 124.6C157.9 125.9 160.4 127 162 127C163.5 127 216.3 108.5 279.2 85.9C367.9 54 394 44.3 395.8 42.4C398.9 38.9 398.8 32.7 395.5 29.5C393.7 27.6 392.1 27 388.8 27.1C385.8 27.2 349.2 39.9 271.5 68Z" fill="white"/>
<path d="M34.6 101C28.3 103.5 23.4 108.1 20.4 114.5L18 119.5V266.1C18 430.8 17.4 418.2 25.6 426.4C33.8 434.7 16.4 434 226 434C435.6 434 418.2 434.7 426.4 426.4C434.5 418.3 434 428.1 434 288.6V164.5L431.6 159.5C429.1 154 423.7 148.7 418.1 146.1C414.9 144.7 401.7 144.5 285 144L155.5 143.5L150.8 141.2C142.2 136.9 136 127 136 117.3C136 113.5 133.7 107.5 131.2 104.6C130.3 103.6 127.7 101.9 125.5 100.9C121.8 99.2001 118.2 99.0001 80.5 99.1001C42.5 99.1001 39.1 99.2001 34.6 101ZM117.9 125.5C120.8 143.1 133.5 157 150.5 161.5C155.7 162.8 172.4 163 282.3 163C416.2 163 412.6 162.9 414.4 167.5C414.7 168.4 415 175.7 415 183.6V198H226H37V160.5V122.9L39.5 120.5L41.9 118H79.3H116.6L117.9 125.5ZM415 313.5V410.1L412.5 412.5L410.1 415H381.6H353.1L352.8 379.3L352.5 343.5L349.7 337.4C346.1 329.7 339.3 322.9 331.5 319.3L325.5 316.5H226H126.5L120.5 319.3C112.7 322.9 105.9 329.7 102.3 337.4L99.5 343.5L99.2 379.2L98.9 415H70.4H41.9L39.5 412.5L37 410.1V313.5V217H226H415V313.5ZM323.5 336.9C332.3 340.9 334 345.5 334 364.5V379H226H118V364.5C118 345.5 119.7 340.9 128.5 336.9C132.3 335.1 137.4 335 226 335C314.6 335 319.7 335.1 323.5 336.9ZM334 406.5V415H226H118V406.5V398H226H334V406.5Z" fill="white"/>
<path d="M304.3 255C295.1 260.6 296.2 274.4 306.3 279.3C318 285.1 330.1 272.4 324.3 260.3C321 253.4 311.2 250.7 304.3 255Z" fill="white"/>
<path d="M358.4 254.9C355 256.9 352 262.4 352 266.3C352 275.8 361.1 282.8 370 280.1C381.3 276.7 383.6 261 373.7 255C369.6 252.4 362.5 252.4 358.4 254.9Z" fill="white"/>
</g>
<defs>
<filter id="filter0_d" x="-4" y="0" width="460" height="460" filterUnits="userSpaceOnUse" color-interpolation-filters="sRGB">
<feFlood flood-opacity="0" result="BackgroundImageFix"/>
<feColorMatrix in="SourceAlpha" type="matrix" values="0 0 0 0 0 0 0 0 0 0 0 0 0 0 0 0 0 0 127 0"/>
<feOffset dy="4"/>
<feGaussianBlur stdDeviation="2"/>
<feColorMatrix type="matrix" values="0 0 0 0 0 0 0 0 0 0 0 0 0 0 0 0 0 0 0.25 0"/>
<feBlend mode="normal" in2="BackgroundImageFix" result="effect1_dropShadow"/>
<feBlend mode="normal" in="SourceGraphic" in2="effect1_dropShadow" result="shape"/>
</filter>
</defs>
</svg>
