<svg width="452" height="452" viewBox="0 0 452 452" fill="none" xmlns="http://www.w3.org/2000/svg">
<g filter="url(#filter0_d)">
<path d="M92.7 56.8001L63 86.5001V248.7C63 360.8 63.3 411.7 64.1 413.7C65.5 417.5 69.8 422 73.7 423.6C78.5 425.7 364.5 425.7 369.3 423.6C373.2 422 377.5 417.5 378.9 413.7C380.4 409.7 380.4 42.3001 378.9 38.3001C377.5 34.5001 373.2 30.0001 369.3 28.4001C366.6 27.2001 345.5 27.0001 244.3 27.0001H122.5L92.7 56.8001ZM361 226V406H221.5H82V250.3V94.5001L106.2 70.3001L130.5 46.0001H245.7H361V226Z" fill="white"/>
<path d="M144 95V127H153.5H163V95V63H153.5H144V95Z" fill="white"/>
<path d="M189 95V127H198.5H208V95V63H198.5H189V95Z" fill="white"/>
<path d="M235 95V127H244.5H254V95V63H244.5H235V95Z" fill="white"/>
<path d="M280 95V127H289.5H299V95V63H289.5H280V95Z" fill="white"/>
<path d="M325 95V127H334.5H344V95V63H334.5H325V95Z" fill="white"/>
<path d="M107.7 88.8L99 97.5V112.3V127H108.5H118V103.5C118 90.6 117.7 80 117.2 80C116.8 80 112.5 83.9 107.7 88.8Z" fill="white"/>
<path d="M157 326C138.3 326.7 131.1 328.7 126.5 334.1C123.6 337.6 123.4 339.7 125.4 344.5C127.2 348.7 132.3 352.1 142.6 356.1C151.8 359.6 153.6 360.8 152 362.4C150.8 363.6 134.6 363.6 121 362.5L113.5 361.8L110.8 370.1C109.3 374.7 108.3 378.6 108.6 378.9C108.8 379.2 120.9 379.4 135.3 379.4C157.9 379.5 162.2 379.3 166.6 377.7C174.2 375.1 177.3 371.3 177.8 364.2C178.2 359 177.9 358.1 175.5 355.2C172 351 165.9 348 154.5 344.5C144.3 341.5 141 339.6 142.7 337.9C144.7 335.9 152.2 335.1 170.1 335H187.7L188.8 331.1C189.5 329 190 326.8 190 326.1C190 324.9 185.3 324.9 157 326Z" fill="white"/>
<path d="M197.6 329.7C196.7 332.3 196 334.4 196 334.6C196 334.8 208.7 336.4 210.8 336.5C212.2 336.5 224.9 327.9 225 326.9C225 325.8 217.9 325 208.3 325H199.2L197.6 329.7Z" fill="white"/>
<path d="M241 336.2C237.4 337.3 231.5 339 227.9 340.1C222 341.8 221.2 342.3 220.7 344.9C219.5 350.6 211.2 354.8 196.2 357.1L188 358.3L187 361.9C186.5 363.9 184.9 368.8 183.5 372.9L181 380.3L192.3 379.7C228.4 377.6 253.8 368.3 260.5 354.7C264.2 347 263.1 343.3 255.2 336.7C251.3 333.6 249.8 333.5 241 336.2Z" fill="white"/>
</g>
<defs>
<filter id="filter0_d" x="-4" y="0" width="460" height="460" filterUnits="userSpaceOnUse" color-interpolation-filters="sRGB">
<feFlood flood-opacity="0" result="BackgroundImageFix"/>
<feColorMatrix in="SourceAlpha" type="matrix" values="0 0 0 0 0 0 0 0 0 0 0 0 0 0 0 0 0 0 127 0"/>
<feOffset dy="4"/>
<feGaussianBlur stdDeviation="2"/>
<feColorMatrix type="matrix" values="0 0 0 0 0 0 0 0 0 0 0 0 0 0 0 0 0 0 0.25 0"/>
<feBlend mode="normal" in2="BackgroundImageFix" result="effect1_dropShadow"/>
<feBlend mode="normal" in="SourceGraphic" in2="effect1_dropShadow" result="shape"/>
</filter>
</defs>
</svg>
