<?xml version="1.0" standalone="no"?>
<!DOCTYPE svg PUBLIC "-//W3C//DTD SVG 20010904//EN"
 "http://www.w3.org/TR/2001/REC-SVG-20010904/DTD/svg10.dtd">
<svg version="1.0" xmlns="http://www.w3.org/2000/svg"
 width="700.000000pt" height="700.000000pt" viewBox="0 0 700.000000 700.000000"
 preserveAspectRatio="xMidYMid meet">
<metadata>
Created by potrace 1.14, written by Peter Selinger 2001-2017
</metadata>
<g transform="translate(0.000000,700.000000) scale(0.100000,-0.100000)"
fill="#000000" stroke="none">
<path d="M1341 6112 c-213 -43 -401 -227 -452 -442 -20 -83 -21 -4212 -1
-4320 40 -219 220 -407 442 -461 83 -20 4210 -21 4320 -1 171 31 323 145 412
308 9 17 27 65 39 105 l23 74 0 2125 0 2125 -23 75 c-63 207 -234 368 -436
411 -90 19 -4228 20 -4324 1z m3531 -3469 c353 -472 648 -864 655 -871 7 -7
13 -15 13 -18 0 -2 -918 -4 -2041 -4 l-2040 0 44 58 c107 137 350 449 368 472
11 14 30 38 42 54 94 123 313 403 321 412 6 7 20 24 31 40 11 15 45 60 75 99
31 38 75 94 97 123 l42 53 24 -28 c14 -15 75 -89 136 -163 62 -74 120 -144
129 -155 9 -11 46 -56 82 -100 36 -43 75 -91 87 -105 12 -14 30 -35 40 -46 10
-12 65 -78 122 -148 57 -69 107 -126 110 -125 3 0 44 50 91 111 47 61 92 119
100 129 8 10 47 59 85 109 39 51 116 151 172 224 57 72 109 138 115 147 7 10
39 50 70 90 101 129 220 284 303 393 44 57 81 105 82 105 1 1 291 -385 645
-856z"/>
</g>
</svg>
