<svg width="521" height="409" viewBox="0 0 521 409" fill="none" xmlns="http://www.w3.org/2000/svg">
<path d="M488.156 407.389C489.567 392.172 493.466 377.291 499.697 363.339C501.433 359.456 503.344 355.659 505.43 351.948C505.535 351.753 505.56 351.526 505.5 351.314C505.441 351.102 505.301 350.921 505.111 350.809C504.921 350.698 504.695 350.665 504.481 350.717C504.267 350.77 504.081 350.903 503.964 351.09C496.378 364.608 491.063 379.283 488.233 394.528C487.445 398.785 486.854 403.072 486.457 407.389C486.357 408.478 488.056 408.471 488.156 407.389Z" fill="#F2F2F2"/>
<path d="M509.544 354.674C515.485 354.674 520.301 349.854 520.301 343.907C520.301 337.961 515.485 333.141 509.544 333.141C503.603 333.141 498.787 337.961 498.787 343.907C498.787 349.854 503.603 354.674 509.544 354.674Z" fill="#F2F2F2"/>
<path d="M489.256 407.675C490.172 397.803 492.701 388.149 496.743 379.098C497.87 376.579 499.109 374.115 500.463 371.707C500.531 371.582 500.547 371.434 500.509 371.296C500.47 371.158 500.379 371.041 500.256 370.969C500.132 370.896 499.986 370.875 499.847 370.909C499.708 370.943 499.588 371.03 499.511 371.151C494.59 379.921 491.142 389.442 489.306 399.331C488.795 402.093 488.411 404.874 488.154 407.675C488.089 408.381 489.191 408.377 489.256 407.675H489.256Z" fill="#F2F2F2"/>
<path d="M503.132 373.476C506.986 373.476 510.11 370.349 510.11 366.491C510.11 362.634 506.986 359.507 503.132 359.507C499.278 359.507 496.153 362.634 496.153 366.491C496.153 370.349 499.278 373.476 503.132 373.476Z" fill="#F2F2F2"/>
<path d="M487.865 407.016C482.521 398.668 478.583 389.499 476.208 379.874C475.549 377.194 475.013 374.488 474.6 371.757C474.576 371.616 474.499 371.489 474.383 371.405C474.268 371.32 474.125 371.283 473.983 371.302C473.841 371.321 473.713 371.394 473.624 371.507C473.535 371.619 473.494 371.761 473.508 371.904C475.017 381.849 478.148 391.478 482.778 400.406C484.072 402.898 485.478 405.327 486.997 407.694C487.379 408.291 488.246 407.609 487.865 407.016V407.016Z" fill="#F2F2F2"/>
<path d="M473.499 372.986C477.353 372.986 480.477 369.859 480.477 366.001C480.477 362.143 477.353 359.016 473.499 359.016C469.645 359.016 466.521 362.143 466.521 366.001C466.521 369.859 469.645 372.986 473.499 372.986Z" fill="#F2F2F2"/>
<path d="M37.6703 407.389C36.2587 392.172 32.36 377.291 26.1297 363.339C24.3932 359.456 22.482 355.659 20.3961 351.948C20.2914 351.753 20.2662 351.526 20.3257 351.314C20.3852 351.101 20.5249 350.921 20.7151 350.809C20.9054 350.698 21.1314 350.665 21.3455 350.717C21.5595 350.77 21.745 350.903 21.8626 351.09C29.4485 364.608 34.763 379.283 37.5935 394.528C38.3808 398.785 38.9726 403.072 39.3688 407.389C39.4694 408.478 37.7704 408.471 37.6703 407.389V407.389Z" fill="#F2F2F2"/>
<path d="M16.2824 354.674C22.2231 354.674 27.0391 349.854 27.0391 343.907C27.0391 337.961 22.2231 333.141 16.2824 333.141C10.3416 333.141 5.52563 337.961 5.52563 343.907C5.52563 349.854 10.3416 354.674 16.2824 354.674Z" fill="#F2F2F2"/>
<path d="M36.57 407.675C35.6542 397.803 33.1249 388.149 29.083 379.098C27.9565 376.579 26.7166 374.115 25.3633 371.707C25.2953 371.582 25.2789 371.434 25.3174 371.296C25.356 371.158 25.4466 371.041 25.5701 370.969C25.6936 370.896 25.8403 370.875 25.9793 370.909C26.1182 370.943 26.2385 371.03 26.3148 371.151C31.2361 379.921 34.6838 389.442 36.5201 399.331C37.0309 402.093 37.4148 404.874 37.6719 407.675C37.7372 408.381 36.6349 408.377 36.57 407.675H36.57Z" fill="#F2F2F2"/>
<path d="M22.6946 373.476C26.5487 373.476 29.673 370.349 29.673 366.491C29.673 362.634 26.5487 359.507 22.6946 359.507C18.8406 359.507 15.7162 362.634 15.7162 366.491C15.7162 370.349 18.8406 373.476 22.6946 373.476Z" fill="#F2F2F2"/>
<path d="M37.9607 407.016C43.3047 398.668 47.2428 389.499 49.6178 379.874C50.2773 377.194 50.8134 374.488 51.2261 371.757C51.25 371.616 51.3276 371.489 51.4427 371.405C51.5579 371.32 51.7014 371.283 51.8431 371.302C51.9848 371.321 52.1136 371.394 52.2022 371.507C52.2909 371.619 52.3325 371.761 52.3183 371.904C50.8094 381.849 47.6777 391.478 43.0485 400.406C41.7542 402.898 40.3478 405.327 38.8295 407.694C38.4469 408.291 37.5805 407.609 37.9607 407.016H37.9607Z" fill="#F2F2F2"/>
<path d="M52.3271 372.986C56.1812 372.986 59.3055 369.859 59.3055 366.001C59.3055 362.143 56.1812 359.016 52.3271 359.016C48.4731 359.016 45.3488 362.143 45.3488 366.001C45.3488 369.859 48.4731 372.986 52.3271 372.986Z" fill="#F2F2F2"/>
<path d="M520.164 409H1.7498C1.52848 408.999 1.31644 408.911 1.16017 408.754C1.0039 408.597 0.916138 408.385 0.916138 408.163C0.916138 407.942 1.0039 407.729 1.16017 407.572C1.31644 407.415 1.52848 407.327 1.7498 407.326H520.164C520.386 407.326 520.598 407.414 520.755 407.571C520.912 407.728 521 407.941 521 408.163C521 408.385 520.912 408.598 520.755 408.755C520.598 408.912 520.386 409 520.164 409Z" fill="#292B2C"/>
<path d="M262.035 308.082L262.151 396.041C262.152 397.674 261.505 399.24 260.354 400.396C259.202 401.553 257.639 402.204 256.007 402.209L219.504 402.262C229.78 383.021 235.598 352.736 235.564 329.392C235.555 320.179 234.62 310.991 232.773 301.966L255.872 301.932C257.504 301.931 259.069 302.578 260.224 303.731C261.379 304.884 262.031 306.449 262.035 308.082V308.082Z" fill="#AD8226"/>
<path d="M208.543 296.06L143.487 295.804L149.813 274.738C150.318 273.083 151.339 271.634 152.726 270.601C154.114 269.569 155.795 269.007 157.524 269H157.554L194.686 269.146C196.42 269.16 198.104 269.732 199.489 270.776C200.875 271.819 201.889 273.281 202.382 274.945L208.543 296.06Z" fill="#292B2C"/>
<path d="M244.861 288.851C243.05 288.851 241.312 289.571 240.031 290.854C238.75 292.136 238.031 293.875 238.031 295.688H251.692C251.692 293.875 250.972 292.136 249.691 290.854C248.41 289.571 246.673 288.851 244.861 288.851V288.851Z" fill="#AD8226"/>
<path d="M265.841 406.544H86.2943C84.0953 406.541 81.987 405.666 80.432 404.109C78.8771 402.553 78.0025 400.443 78 398.242V303.502C78.0025 301.301 78.8771 299.19 80.432 297.634C81.987 296.078 84.0953 295.202 86.2943 295.2H265.841C268.04 295.202 270.148 296.078 271.703 297.634C273.258 299.19 274.133 301.301 274.135 303.502V398.242C274.133 400.443 273.258 402.553 271.703 404.109C270.148 405.666 268.04 406.541 265.841 406.544ZM86.2943 296.176C84.354 296.179 82.4937 296.951 81.1217 298.324C79.7497 299.698 78.978 301.56 78.9758 303.502V398.242C78.978 400.184 79.7497 402.046 81.1217 403.419C82.4937 404.792 84.354 405.565 86.2943 405.567H265.841C267.781 405.565 269.641 404.792 271.013 403.419C272.386 402.046 273.157 400.184 273.159 398.242V303.502C273.157 301.56 272.386 299.698 271.013 298.324C269.641 296.951 267.781 296.179 265.841 296.176H86.2943Z" fill="#292B2C"/>
<path d="M183.874 288.119H168.261C167.161 288.119 166.107 287.681 165.329 286.903C164.551 286.124 164.114 285.069 164.114 283.968C164.114 282.867 164.551 281.811 165.329 281.032C166.107 280.254 167.161 279.817 168.261 279.817H183.874C184.974 279.817 186.029 280.254 186.806 281.032C187.584 281.811 188.021 282.867 188.021 283.968C188.021 285.069 187.584 286.124 186.806 286.903C186.029 287.681 184.974 288.119 183.874 288.119Z" fill="white"/>
<path d="M176.068 387.986C168.734 387.986 161.565 385.81 155.467 381.731C149.369 377.653 144.616 371.857 141.81 365.075C139.003 358.293 138.269 350.83 139.7 343.631C141.131 336.431 144.662 329.818 149.848 324.628C155.034 319.437 161.641 315.902 168.834 314.47C176.026 313.038 183.482 313.773 190.258 316.582C197.033 319.391 202.824 324.148 206.899 330.252C210.973 336.355 213.148 343.531 213.148 350.872C213.137 360.712 209.227 370.145 202.275 377.103C195.324 384.061 185.899 387.975 176.068 387.986V387.986ZM176.068 314.734C168.927 314.734 161.946 316.853 156.009 320.824C150.072 324.795 145.444 330.439 142.711 337.042C139.979 343.646 139.264 350.912 140.657 357.922C142.05 364.932 145.489 371.371 150.538 376.425C155.587 381.479 162.02 384.921 169.024 386.315C176.028 387.71 183.287 386.994 189.884 384.259C196.481 381.523 202.12 376.892 206.087 370.949C210.055 365.006 212.172 358.019 212.172 350.872C212.161 341.291 208.354 332.105 201.585 325.33C194.817 318.555 185.64 314.745 176.068 314.734V314.734Z" fill="#292B2C"/>
<path d="M176.068 375.289C171.243 375.289 166.526 373.857 162.515 371.174C158.503 368.491 155.376 364.677 153.53 360.216C151.683 355.754 151.2 350.845 152.141 346.108C153.083 341.371 155.406 337.021 158.818 333.606C162.229 330.191 166.576 327.865 171.308 326.923C176.041 325.981 180.946 326.465 185.403 328.313C189.861 330.161 193.671 333.291 196.351 337.306C199.032 341.321 200.463 346.042 200.463 350.872C200.455 357.345 197.883 363.552 193.309 368.129C188.736 372.707 182.535 375.282 176.068 375.289V375.289ZM176.068 327.431C171.436 327.431 166.908 328.806 163.057 331.381C159.205 333.957 156.204 337.618 154.431 341.901C152.659 346.184 152.195 350.898 153.098 355.445C154.002 359.992 156.233 364.168 159.508 367.447C162.783 370.725 166.956 372.958 171.499 373.862C176.042 374.766 180.75 374.302 185.03 372.528C189.309 370.754 192.967 367.749 195.54 363.895C198.113 360.04 199.487 355.508 199.487 350.872C199.48 344.657 197.01 338.699 192.62 334.304C188.229 329.91 182.277 327.438 176.068 327.431V327.431Z" fill="#292B2C"/>
<path d="M176.068 369.429C186.307 369.429 194.608 361.121 194.608 350.872C194.608 340.623 186.307 332.314 176.068 332.314C165.828 332.314 157.527 340.623 157.527 350.872C157.527 361.121 165.828 369.429 176.068 369.429Z" fill="#CCCCCC"/>
<path d="M164.846 350.872C164.846 347.93 165.908 345.087 167.835 342.867C169.762 340.646 172.426 339.196 175.336 338.784C173.606 338.538 171.844 338.667 170.169 339.161C168.493 339.656 166.943 340.505 165.624 341.651C164.304 342.797 163.246 344.213 162.521 345.804C161.796 347.395 161.421 349.123 161.421 350.872C161.421 352.62 161.796 354.348 162.521 355.939C163.246 357.53 164.304 358.946 165.624 360.092C166.943 361.238 168.493 362.087 170.169 362.582C171.844 363.076 173.606 363.205 175.336 362.959C172.426 362.547 169.762 361.097 167.835 358.876C165.908 356.656 164.846 353.813 164.846 350.872V350.872Z" fill="white"/>
<path d="M257.059 296.176H232.664V295.688C232.664 292.45 233.949 289.345 236.236 287.055C238.524 284.766 241.626 283.479 244.861 283.479C248.096 283.479 251.199 284.766 253.486 287.055C255.774 289.345 257.059 292.45 257.059 295.688V296.176ZM233.65 295.2H256.072C255.947 292.308 254.71 289.577 252.622 287.575C250.533 285.574 247.753 284.456 244.861 284.456C241.97 284.456 239.19 285.574 237.101 287.575C235.012 289.577 233.776 292.308 233.65 295.2V295.2Z" fill="#292B2C"/>
<path d="M90.1975 309.85C89.2325 309.85 88.2892 309.564 87.4869 309.027C86.6845 308.491 86.0591 307.728 85.6899 306.836C85.3206 305.943 85.224 304.961 85.4122 304.014C85.6005 303.067 86.0652 302.197 86.7475 301.514C87.4298 300.831 88.2992 300.365 89.2456 300.177C90.1921 299.989 91.1731 300.085 92.0646 300.455C92.9561 300.825 93.7181 301.45 94.2542 302.254C94.7903 303.057 95.0765 304.001 95.0765 304.967C95.075 306.261 94.5605 307.503 93.6458 308.418C92.7312 309.334 91.491 309.849 90.1975 309.85V309.85ZM90.1975 301.06C89.4255 301.06 88.6709 301.289 88.029 301.718C87.3871 302.148 86.8868 302.758 86.5914 303.472C86.296 304.185 86.2187 304.971 86.3693 305.729C86.5199 306.487 86.8916 307.183 87.4375 307.729C87.9834 308.276 88.6789 308.648 89.436 308.798C90.1932 308.949 90.978 308.872 91.6912 308.576C92.4044 308.28 93.014 307.78 93.4429 307.137C93.8718 306.495 94.1007 305.739 94.1007 304.967C94.0995 303.931 93.6879 302.938 92.9562 302.205C92.2244 301.473 91.2323 301.061 90.1975 301.06Z" fill="#292B2C"/>
<path d="M90.1974 307.408C91.5447 307.408 92.6369 306.315 92.6369 304.967C92.6369 303.618 91.5447 302.525 90.1974 302.525C88.8501 302.525 87.7579 303.618 87.7579 304.967C87.7579 306.315 88.8501 307.408 90.1974 307.408Z" fill="#AD8226"/>
<path d="M102.883 307.408C104.23 307.408 105.322 306.315 105.322 304.967C105.322 303.618 104.23 302.525 102.883 302.525C101.536 302.525 100.443 303.618 100.443 304.967C100.443 306.315 101.536 307.408 102.883 307.408Z" fill="#CCCCCC"/>
<path d="M115.568 307.408C116.915 307.408 118.008 306.315 118.008 304.967C118.008 303.618 116.915 302.525 115.568 302.525C114.221 302.525 113.129 303.618 113.129 304.967C113.129 306.315 114.221 307.408 115.568 307.408Z" fill="#CCCCCC"/>
<path d="M102.883 309.85C101.918 309.85 100.975 309.564 100.172 309.027C99.3699 308.491 98.7445 307.728 98.3752 306.836C98.0059 305.943 97.9093 304.961 98.0976 304.014C98.2859 303.067 98.7505 302.197 99.4329 301.514C100.115 300.831 100.985 300.365 101.931 300.177C102.877 299.989 103.858 300.085 104.75 300.455C105.641 300.825 106.403 301.45 106.94 302.254C107.476 303.057 107.762 304.001 107.762 304.967C107.76 306.261 107.246 307.503 106.331 308.418C105.417 309.334 104.176 309.849 102.883 309.85ZM102.883 301.06C102.111 301.06 101.356 301.289 100.714 301.718C100.072 302.148 99.5722 302.758 99.2768 303.472C98.9813 304.185 98.904 304.971 99.0546 305.729C99.2052 306.487 99.577 307.183 100.123 307.729C100.669 308.276 101.364 308.648 102.121 308.798C102.879 308.949 103.663 308.872 104.377 308.576C105.09 308.28 105.699 307.78 106.128 307.137C106.557 306.495 106.786 305.739 106.786 304.967C106.785 303.931 106.373 302.938 105.642 302.205C104.91 301.473 103.918 301.061 102.883 301.06Z" fill="#292B2C"/>
<path d="M115.568 309.85C114.603 309.85 113.66 309.564 112.858 309.027C112.055 308.491 111.43 307.728 111.061 306.836C110.691 305.943 110.595 304.961 110.783 304.014C110.971 303.067 111.436 302.197 112.118 301.514C112.801 300.831 113.67 300.365 114.616 300.177C115.563 299.989 116.544 300.085 117.435 300.455C118.327 300.825 119.089 301.45 119.625 302.254C120.161 303.057 120.447 304.001 120.447 304.967C120.446 306.261 119.931 307.503 119.017 308.418C118.102 309.334 116.862 309.849 115.568 309.85ZM115.568 301.06C114.796 301.06 114.042 301.289 113.4 301.718C112.758 302.148 112.258 302.758 111.962 303.472C111.667 304.185 111.589 304.971 111.74 305.729C111.891 306.487 112.262 307.183 112.808 307.729C113.354 308.276 114.05 308.648 114.807 308.798C115.564 308.949 116.349 308.872 117.062 308.576C117.775 308.28 118.385 307.78 118.814 307.137C119.242 306.495 119.471 305.739 119.471 304.967C119.47 303.931 119.059 302.938 118.327 302.205C117.595 301.473 116.603 301.061 115.568 301.06Z" fill="#292B2C"/>
<path d="M141.915 337.625H78.4879V338.601H141.915V337.625Z" fill="#292B2C"/>
<path d="M140.34 357.282H78.4879V358.258H140.34V357.282Z" fill="#292B2C"/>
<path d="M273.647 337.625H210.22V338.601H273.647V337.625Z" fill="#292B2C"/>
<path d="M273.536 357.282H211.684V358.258H273.536V357.282Z" fill="#292B2C"/>
<path d="M408.573 170.419C402.878 167.801 399.135 160.315 399.348 152.932C399.562 145.549 403.443 138.644 408.797 135.124C411.407 133.45 414.391 132.451 417.482 132.217C420.573 131.984 423.674 132.522 426.505 133.784C432.251 136.232 439.965 136.899 443.419 142.984C446.073 147.659 445.117 158.091 443.237 163.29C441.613 167.784 437.642 170.316 433.77 171.733C429.484 173.287 424.914 173.902 420.37 173.535C415.825 173.169 411.413 171.83 407.43 169.609" fill="#4D281C"/>
<path d="M373.853 399.703L365.667 397.038L372.043 364.164L384.126 368.099L373.853 399.703Z" fill="#FFE0C3"/>
<path d="M360.581 392.792L376.368 397.933L373.134 407.883L347.406 399.505C347.831 398.198 348.509 396.988 349.4 395.944C350.292 394.899 351.381 394.041 352.604 393.418C353.828 392.794 355.162 392.418 356.53 392.311C357.899 392.204 359.275 392.367 360.581 392.792V392.792Z" fill="#292B2C"/>
<path d="M447.139 399.882L438.53 399.881L434.435 366.646L447.14 366.647L447.139 399.882Z" fill="#FFE0C3"/>
<path d="M432.381 397.419H448.983V407.882H421.928C421.928 406.508 422.198 405.148 422.724 403.878C423.249 402.609 424.019 401.455 424.99 400.484C425.96 399.512 427.113 398.742 428.381 398.216C429.649 397.69 431.008 397.419 432.381 397.419V397.419Z" fill="#292B2C"/>
<path d="M446.706 386.288C446.654 386.288 446.602 386.287 446.55 386.284L437.01 385.829C436.207 385.789 435.449 385.446 434.89 384.867C434.331 384.288 434.013 383.518 434.001 382.713L432.709 288.26C432.705 288.026 432.624 287.799 432.478 287.616C432.332 287.433 432.129 287.304 431.901 287.25C431.674 287.195 431.434 287.218 431.221 287.314C431.008 287.411 430.833 287.576 430.724 287.783L380.196 383.677C379.882 384.278 379.384 384.761 378.773 385.055C378.163 385.349 377.475 385.438 376.81 385.309L367.316 383.499C366.869 383.413 366.445 383.233 366.075 382.968C365.704 382.704 365.394 382.363 365.167 381.968C364.941 381.573 364.802 381.134 364.76 380.68C364.719 380.226 364.776 379.769 364.928 379.339L401.743 274.933L404.576 244.048C404.639 243.328 404.948 242.651 405.452 242.133C405.955 241.614 406.622 241.285 407.339 241.202C418.067 239.883 433.056 231.085 439.002 227.364C439.367 227.133 439.776 226.981 440.203 226.917C440.629 226.853 441.065 226.878 441.481 226.99C441.903 227.104 442.296 227.302 442.638 227.574C442.98 227.845 443.263 228.183 443.469 228.568C457.794 255.214 463.272 285.732 459.111 315.702L449.831 383.553C449.731 384.312 449.359 385.007 448.784 385.511C448.208 386.014 447.47 386.29 446.706 386.288V386.288Z" fill="#292B2C"/>
<path d="M421.028 177.674C430.553 177.674 438.274 169.945 438.274 160.411C438.274 150.878 430.553 143.149 421.028 143.149C411.503 143.149 403.782 150.878 403.782 160.411C403.782 169.945 411.503 177.674 421.028 177.674Z" fill="#FFE0C3"/>
<path d="M403.844 251.464L398.651 214.323C397.387 208.679 398.413 202.764 401.504 197.878C404.595 192.991 409.497 189.533 415.135 188.263C420.772 186.993 426.682 188.015 431.567 191.104C436.452 194.194 439.911 199.099 441.184 204.74C442.663 211.606 445.668 219.963 444.57 228.973C436.879 250.339 422.918 256.926 403.844 251.464Z" fill="#B3B3B3"/>
<path d="M426.665 193.832H414.025C413.188 193.831 412.384 193.497 411.792 192.904C411.2 192.311 410.867 191.508 410.866 190.669V186.452C410.867 185.614 411.2 184.81 411.792 184.217C412.384 183.624 413.188 183.29 414.025 183.289H426.665C427.502 183.29 428.306 183.624 428.898 184.217C429.49 184.81 429.823 185.614 429.824 186.452V190.669C429.823 191.508 429.49 192.311 428.898 192.904C428.306 193.497 427.502 193.831 426.665 193.832Z" fill="#B3B3B3"/>
<path d="M490.72 264.032C491.063 262.983 491.172 261.871 491.039 260.775C490.906 259.679 490.535 258.626 489.952 257.689C489.368 256.753 488.587 255.956 487.662 255.354C486.738 254.752 485.692 254.361 484.6 254.207L445.258 197.83L433.592 209.374L475.933 261.161C475.797 263.014 476.344 264.853 477.472 266.329C478.6 267.806 480.23 268.816 482.052 269.17C483.875 269.524 485.764 269.196 487.362 268.249C488.959 267.302 490.154 265.802 490.72 264.032V264.032Z" fill="#FFE0C3"/>
<path d="M457.565 215.077L443.357 224.57C442.953 224.84 442.495 225.02 442.016 225.097C441.536 225.174 441.045 225.147 440.576 225.017C440.108 224.887 439.673 224.658 439.301 224.345C438.929 224.031 438.629 223.641 438.422 223.202L431.144 207.79C429.776 205.712 429.287 203.176 429.784 200.738C430.281 198.3 431.724 196.158 433.795 194.783C435.867 193.407 438.399 192.91 440.837 193.399C443.274 193.889 445.418 195.326 446.799 197.396L458.195 209.99C458.521 210.35 458.765 210.777 458.912 211.241C459.058 211.705 459.103 212.195 459.044 212.678C458.984 213.161 458.821 213.625 458.566 214.039C458.31 214.453 457.969 214.807 457.565 215.077V215.077Z" fill="#B3B3B3"/>
<path d="M351.734 188.281C351.82 188.66 351.876 189.046 351.902 189.434L382.066 206.851L389.398 202.627L397.214 212.868L384.96 221.61C383.971 222.316 382.779 222.682 381.563 222.652C380.348 222.623 379.175 222.199 378.221 221.446L347.117 196.885C345.713 197.405 344.184 197.485 342.734 197.114C341.284 196.743 339.981 195.939 338.998 194.809C338.015 193.679 337.4 192.276 337.233 190.788C337.066 189.299 337.356 187.794 338.065 186.474C338.773 185.155 339.866 184.082 341.198 183.399C342.531 182.716 344.039 182.455 345.523 182.652C347.007 182.848 348.396 183.491 349.505 184.497C350.615 185.503 351.392 186.822 351.734 188.281V188.281Z" fill="#FFE0C3"/>
<path d="M390.833 219.507L383.254 204.184C383.038 203.748 382.919 203.271 382.905 202.785C382.89 202.298 382.98 201.815 383.169 201.366C383.358 200.918 383.641 200.516 383.999 200.187C384.357 199.858 384.782 199.611 385.245 199.461L401.45 194.218C403.685 193.126 406.261 192.966 408.614 193.773C410.966 194.579 412.903 196.287 414 198.521C415.097 200.755 415.264 203.333 414.465 205.69C413.665 208.047 411.965 209.99 409.736 211.094L395.793 220.787C395.394 221.064 394.939 221.252 394.461 221.338C393.982 221.424 393.491 221.405 393.02 221.284C392.55 221.162 392.111 220.941 391.733 220.634C391.356 220.328 391.049 219.943 390.833 219.507H390.833Z" fill="#B3B3B3"/>
<path d="M432.601 138.671C433.222 138.761 433.856 138.645 434.404 138.339C434.952 138.032 435.384 137.554 435.632 136.977C435.863 136.393 435.956 135.764 435.905 135.138C435.855 134.512 435.662 133.906 435.341 133.366C434.688 132.291 433.776 131.396 432.689 130.764C431.438 129.926 429.991 129.428 428.489 129.317C427.74 129.268 426.989 129.381 426.287 129.647C425.585 129.914 424.949 130.329 424.421 130.863C423.906 131.411 423.566 132.1 423.444 132.842C423.323 133.584 423.425 134.345 423.739 135.029C424.369 136.246 425.692 136.929 426.982 137.392C429.539 138.309 432.263 138.667 434.971 138.443" fill="#4D281C"/>
<path d="M438.116 168.271C435.101 168.413 435.621 162.01 434.677 159.141C433.734 156.272 432.433 152.85 429.466 152.3C427.035 151.849 424.837 153.629 422.719 154.907C418.944 157.184 414.057 158.024 410.093 156.095C406.129 154.166 403.718 149.012 405.646 145.044C406.233 143.954 407.038 142.995 408.01 142.229C408.982 141.462 410.101 140.903 411.298 140.587C413.697 139.97 416.197 139.85 418.644 140.234C424.104 140.904 429.35 142.765 434.012 145.686C437.229 147.706 440.29 150.456 441.248 154.134C442.206 157.813 442.596 167.815 438.852 168.448L438.116 168.271Z" fill="#4D281C"/>
<path d="M430.23 129.767C427.953 126.877 428.81 122.325 431.464 119.779C434.118 117.232 438.064 116.438 441.726 116.762C445.355 117.128 448.824 118.442 451.784 120.573C454.745 122.704 457.094 125.577 458.596 128.903C460.91 134.202 460.891 140.263 462.984 145.653C464.1 148.527 465.791 151.141 467.955 153.335C470.118 155.53 472.707 157.258 475.562 158.413C478.418 159.568 481.479 160.125 484.558 160.051C487.637 159.978 490.669 159.273 493.466 157.983C497.109 156.301 500.578 153.009 500.37 148.999C502.673 157.888 498.525 168.055 490.664 172.788C486.059 175.561 480.606 176.502 475.272 177.15C471.796 177.572 468.223 177.886 464.83 177.016C460.084 175.8 456.111 172.293 453.705 168.022C451.298 163.75 450.352 158.772 450.315 153.868C450.287 150.048 450.786 146.226 450.522 142.415C450.258 138.604 449.113 134.662 446.354 132.023C443.594 129.385 438.936 128.516 435.907 130.841C434.69 131.775 433.797 133.139 432.427 133.828C431.056 134.517 428.89 133.981 428.799 132.448L430.23 129.767Z" fill="#4D281C"/>
<path d="M364.15 188.404H221.905C220.605 188.403 219.358 187.885 218.438 186.965C217.519 186.044 217.002 184.796 217 183.495V103.306C217.002 102.004 217.519 100.756 218.438 99.8356C219.358 98.9152 220.605 98.3975 221.905 98.396H364.15C365.451 98.3974 366.698 98.9152 367.617 99.8356C368.537 100.756 369.054 102.004 369.055 103.306V183.495C369.054 184.797 368.537 186.044 367.617 186.965C366.698 187.885 365.451 188.403 364.15 188.404V188.404ZM221.905 99.487C220.894 99.4881 219.924 99.8908 219.209 100.607C218.493 101.323 218.091 102.293 218.09 103.306V183.495C218.091 184.507 218.493 185.478 219.209 186.194C219.924 186.91 220.894 187.312 221.905 187.313H364.15C365.162 187.312 366.131 186.91 366.847 186.194C367.562 185.478 367.964 184.507 367.965 183.495V103.306C367.964 102.293 367.562 101.323 366.847 100.607C366.131 99.8909 365.162 99.4882 364.15 99.487H221.905Z" fill="#292B2C"/>
<path d="M268.798 154.687C280.032 154.687 289.138 145.572 289.138 134.328C289.138 123.084 280.032 113.969 268.798 113.969C257.564 113.969 248.458 123.084 248.458 134.328C248.458 145.572 257.564 154.687 268.798 154.687Z" fill="#E6E6E6"/>
<path d="M347.177 170.278L323.301 128.885C323.152 128.627 322.937 128.412 322.679 128.262C322.42 128.113 322.127 128.034 321.828 128.034C321.53 128.034 321.237 128.113 320.978 128.262C320.72 128.412 320.505 128.627 320.356 128.885L305.785 154.146L284.063 116.487C283.871 116.155 283.596 115.88 283.265 115.689C282.933 115.497 282.557 115.396 282.175 115.396C281.792 115.396 281.416 115.497 281.085 115.689C280.753 115.88 280.478 116.155 280.287 116.487L249.675 169.558C249.483 169.89 249.382 170.266 249.382 170.649C249.382 171.032 249.483 171.409 249.675 171.74C249.866 172.072 250.141 172.347 250.472 172.539C250.804 172.73 251.18 172.831 251.562 172.831H345.705C346.003 172.831 346.296 172.753 346.555 172.603C346.813 172.454 347.028 172.239 347.177 171.98C347.326 171.722 347.405 171.428 347.405 171.129C347.405 170.831 347.326 170.537 347.177 170.278V170.278Z" fill="#AD8226"/>
<path d="M236.075 108.215H227.355V116.943H236.075V108.215Z" fill="#292B2C"/>
<path d="M419.52 70.3292H308.375C307.359 70.3281 306.385 69.9235 305.666 69.2044C304.948 68.4852 304.544 67.5101 304.542 66.4931V3.83615C304.544 2.8191 304.948 1.84405 305.666 1.12489C306.385 0.405734 307.359 0.00118303 308.375 0H419.52C420.536 0.0011459 421.511 0.405683 422.229 1.12485C422.948 1.84402 423.352 2.81909 423.353 3.83615V66.4931C423.352 67.5102 422.948 68.4852 422.229 69.2044C421.511 69.9236 420.536 70.3281 419.52 70.3292V70.3292ZM308.375 0.852475C307.585 0.853364 306.827 1.168 306.268 1.72735C305.709 2.28671 305.395 3.0451 305.394 3.83615V66.4931C305.395 67.2841 305.709 68.0425 306.268 68.6019C306.827 69.1612 307.585 69.4759 308.375 69.4768H419.52C420.311 69.4758 421.068 69.1612 421.627 68.6019C422.186 68.0425 422.5 67.2841 422.501 66.4931V3.83615C422.5 3.04511 422.186 2.28674 421.627 1.7274C421.068 1.16805 420.311 0.853398 419.52 0.852475H308.375Z" fill="#CCCCCC"/>
<path d="M345.016 43.9837C353.793 43.9837 360.909 36.8616 360.909 28.076C360.909 19.2904 353.793 12.1683 345.016 12.1683C336.238 12.1683 329.123 19.2904 329.123 28.076C329.123 36.8616 336.238 43.9837 345.016 43.9837Z" fill="#F2F2F2"/>
<path d="M406.258 56.1663L387.602 23.8232C387.486 23.6211 387.318 23.4532 387.116 23.3365C386.914 23.2197 386.685 23.1583 386.452 23.1583C386.218 23.1583 385.989 23.2197 385.787 23.3365C385.585 23.4532 385.418 23.6211 385.301 23.8232L373.916 43.5612L356.943 14.1358C356.793 13.8766 356.578 13.6614 356.319 13.5118C356.06 13.3622 355.767 13.2834 355.468 13.2834C355.169 13.2834 354.875 13.3622 354.616 13.5118C354.357 13.6614 354.142 13.8766 353.992 14.1358L330.073 55.6036C329.924 55.8627 329.845 56.1568 329.845 56.456C329.845 56.7553 329.924 57.0493 330.073 57.3085C330.223 57.5677 330.438 57.7829 330.697 57.9326C330.956 58.0822 331.249 58.161 331.548 58.161H405.108C405.341 58.161 405.57 58.0995 405.772 57.9828C405.974 57.8661 406.142 57.6982 406.258 57.4961C406.375 57.2939 406.436 57.0646 406.436 56.8312C406.436 56.5978 406.375 56.3685 406.258 56.1663Z" fill="#E6E6E6"/>
<path d="M319.447 7.67229H312.634V14.4921H319.447V7.67229Z" fill="#CCCCCC"/>
</svg>
