<svg width="603" height="409" viewBox="0 0 603 409" fill="none" xmlns="http://www.w3.org/2000/svg">
<path d="M570.156 407.389C571.567 392.172 575.466 377.291 581.697 363.339C583.433 359.456 585.344 355.659 587.43 351.948C587.535 351.753 587.56 351.526 587.5 351.314C587.441 351.102 587.301 350.921 587.111 350.809C586.921 350.698 586.695 350.665 586.481 350.717C586.267 350.77 586.081 350.903 585.964 351.09C578.378 364.608 573.063 379.283 570.233 394.528C569.445 398.785 568.854 403.072 568.457 407.389C568.357 408.478 570.056 408.471 570.156 407.389Z" fill="#F2F2F2"/>
<path d="M591.544 354.674C597.485 354.674 602.301 349.854 602.301 343.907C602.301 337.961 597.485 333.141 591.544 333.141C585.603 333.141 580.787 337.961 580.787 343.907C580.787 349.854 585.603 354.674 591.544 354.674Z" fill="#F2F2F2"/>
<path d="M571.256 407.675C572.172 397.803 574.701 388.149 578.743 379.098C579.87 376.579 581.109 374.115 582.463 371.707C582.531 371.582 582.547 371.434 582.509 371.296C582.47 371.158 582.379 371.041 582.256 370.969C582.132 370.896 581.986 370.875 581.847 370.909C581.708 370.943 581.588 371.03 581.511 371.151C576.59 379.921 573.142 389.442 571.306 399.331C570.795 402.093 570.411 404.874 570.154 407.675C570.089 408.381 571.191 408.377 571.256 407.675H571.256Z" fill="#F2F2F2"/>
<path d="M585.132 373.476C588.986 373.476 592.11 370.349 592.11 366.491C592.11 362.634 588.986 359.507 585.132 359.507C581.278 359.507 578.153 362.634 578.153 366.491C578.153 370.349 581.278 373.476 585.132 373.476Z" fill="#F2F2F2"/>
<path d="M569.865 407.016C564.521 398.668 560.583 389.499 558.208 379.874C557.549 377.194 557.013 374.488 556.6 371.757C556.576 371.616 556.499 371.489 556.383 371.405C556.268 371.32 556.125 371.283 555.983 371.302C555.841 371.321 555.713 371.394 555.624 371.507C555.535 371.619 555.494 371.761 555.508 371.904C557.017 381.849 560.148 391.478 564.778 400.406C566.072 402.898 567.478 405.327 568.997 407.694C569.379 408.291 570.246 407.609 569.865 407.016Z" fill="#F2F2F2"/>
<path d="M555.499 372.986C559.353 372.986 562.477 369.859 562.477 366.001C562.477 362.143 559.353 359.016 555.499 359.016C551.645 359.016 548.521 362.143 548.521 366.001C548.521 369.859 551.645 372.986 555.499 372.986Z" fill="#F2F2F2"/>
<path d="M119.67 407.389C118.259 392.172 114.36 377.291 108.13 363.339C106.393 359.456 104.482 355.659 102.396 351.948C102.291 351.753 102.266 351.526 102.326 351.314C102.385 351.101 102.525 350.921 102.715 350.809C102.905 350.698 103.131 350.665 103.345 350.717C103.56 350.77 103.745 350.903 103.863 351.09C111.449 364.608 116.763 379.283 119.593 394.528C120.381 398.785 120.973 403.072 121.369 407.389C121.469 408.478 119.77 408.471 119.67 407.389Z" fill="#F2F2F2"/>
<path d="M98.2824 354.674C104.223 354.674 109.039 349.854 109.039 343.907C109.039 337.961 104.223 333.141 98.2824 333.141C92.3416 333.141 87.5256 337.961 87.5256 343.907C87.5256 349.854 92.3416 354.674 98.2824 354.674Z" fill="#F2F2F2"/>
<path d="M118.57 407.675C117.654 397.803 115.125 388.149 111.083 379.098C109.956 376.579 108.717 374.115 107.363 371.707C107.295 371.582 107.279 371.434 107.317 371.296C107.356 371.158 107.447 371.041 107.57 370.969C107.694 370.896 107.84 370.875 107.979 370.909C108.118 370.943 108.239 371.03 108.315 371.151C113.236 379.921 116.684 389.441 118.52 399.331C119.031 402.093 119.415 404.874 119.672 407.675C119.737 408.381 118.635 408.377 118.57 407.675H118.57Z" fill="#F2F2F2"/>
<path d="M104.695 373.476C108.549 373.476 111.673 370.349 111.673 366.491C111.673 362.634 108.549 359.507 104.695 359.507C100.841 359.507 97.7162 362.634 97.7162 366.491C97.7162 370.349 100.841 373.476 104.695 373.476Z" fill="#F2F2F2"/>
<path d="M119.961 407.016C125.305 398.668 129.243 389.499 131.618 379.874C132.277 377.194 132.813 374.488 133.226 371.757C133.25 371.616 133.328 371.489 133.443 371.405C133.558 371.32 133.701 371.283 133.843 371.302C133.985 371.321 134.114 371.394 134.202 371.507C134.291 371.619 134.333 371.761 134.318 371.904C132.809 381.849 129.678 391.478 125.048 400.406C123.754 402.898 122.348 405.327 120.829 407.694C120.447 408.291 119.58 407.609 119.961 407.016H119.961Z" fill="#F2F2F2"/>
<path d="M134.327 372.986C138.181 372.986 141.306 369.859 141.306 366.001C141.306 362.143 138.181 359.016 134.327 359.016C130.473 359.016 127.349 362.143 127.349 366.001C127.349 369.859 130.473 372.986 134.327 372.986Z" fill="#F2F2F2"/>
<path d="M602.164 409H83.7498C83.5285 408.999 83.3164 408.911 83.1602 408.754C83.0039 408.597 82.9161 408.385 82.9161 408.163C82.9161 407.942 83.0039 407.729 83.1602 407.572C83.3164 407.415 83.5285 407.327 83.7498 407.326H602.164C602.386 407.326 602.598 407.414 602.755 407.571C602.912 407.728 603 407.941 603 408.163C603 408.385 602.912 408.598 602.755 408.755C602.598 408.912 602.386 409 602.164 409Z" fill="#292B2C"/>
<path d="M481.9 309.882L482.016 397.84C482.017 399.473 481.37 401.04 480.218 402.196C479.066 403.352 477.503 404.004 475.872 404.008L439.369 404.062C449.645 384.821 455.463 354.536 455.429 331.192C455.42 321.979 454.485 312.791 452.638 303.765L475.737 303.732C477.369 303.731 478.934 304.378 480.089 305.531C481.244 306.684 481.895 308.249 481.9 309.882Z" fill="#AD8226"/>
<path d="M428.408 297.86L363.352 297.604L369.678 276.538C370.183 274.883 371.204 273.433 372.591 272.401C373.979 271.368 375.66 270.807 377.389 270.8H377.419L414.551 270.946C416.285 270.96 417.969 271.531 419.354 272.575C420.74 273.619 421.754 275.081 422.247 276.745L428.408 297.86Z" fill="#292B2C"/>
<path d="M464.726 290.651C462.915 290.651 461.177 291.371 459.896 292.653C458.615 293.935 457.896 295.674 457.896 297.488H471.557C471.557 295.674 470.837 293.935 469.556 292.653C468.275 291.371 466.538 290.651 464.726 290.651Z" fill="#AD8226"/>
<path d="M485.706 408.343H306.159C303.96 408.341 301.852 407.465 300.297 405.909C298.742 404.353 297.867 402.242 297.865 400.041V305.301C297.867 303.1 298.742 300.99 300.297 299.434C301.852 297.877 303.96 297.002 306.159 296.999H485.706C487.905 297.002 490.013 297.877 491.568 299.434C493.123 300.99 493.998 303.1 494 305.301V400.041C493.998 402.242 493.123 404.353 491.568 405.909C490.013 407.465 487.905 408.341 485.706 408.343ZM306.159 297.976C304.219 297.978 302.358 298.751 300.986 300.124C299.614 301.497 298.843 303.359 298.841 305.301V400.041C298.843 401.983 299.614 403.845 300.986 405.219C302.358 406.592 304.219 407.364 306.159 407.367H485.706C487.646 407.364 489.506 406.592 490.878 405.219C492.25 403.845 493.022 401.983 493.024 400.041V305.301C493.022 303.359 492.25 301.497 490.878 300.124C489.506 298.751 487.646 297.978 485.706 297.976H306.159Z" fill="#292B2C"/>
<path d="M403.739 289.918H388.126C387.026 289.918 385.971 289.481 385.194 288.703C384.416 287.924 383.979 286.868 383.979 285.767C383.979 284.666 384.416 283.611 385.194 282.832C385.971 282.054 387.026 281.616 388.126 281.616H403.739C404.839 281.616 405.893 282.054 406.671 282.832C407.449 283.611 407.886 284.666 407.886 285.767C407.886 286.868 407.449 287.924 406.671 288.703C405.893 289.481 404.839 289.918 403.739 289.918Z" fill="white"/>
<path d="M395.932 389.786C388.599 389.786 381.429 387.609 375.332 383.531C369.234 379.453 364.481 373.656 361.675 366.874C358.868 360.093 358.134 352.63 359.565 345.431C360.995 338.231 364.527 331.618 369.713 326.427C374.898 321.237 381.505 317.702 388.698 316.27C395.891 314.838 403.347 315.573 410.122 318.382C416.898 321.191 422.689 325.948 426.763 332.052C430.838 338.155 433.013 345.331 433.013 352.671C433.002 362.511 429.091 371.945 422.14 378.903C415.188 385.861 405.763 389.775 395.932 389.786ZM395.932 316.533C388.792 316.533 381.811 318.653 375.874 322.624C369.936 326.595 365.309 332.239 362.576 338.842C359.843 345.445 359.129 352.711 360.522 359.722C361.915 366.732 365.353 373.171 370.403 378.225C375.452 383.279 381.885 386.72 388.889 388.115C395.892 389.509 403.152 388.794 409.749 386.058C416.346 383.323 421.985 378.691 425.952 372.748C429.919 366.806 432.037 359.819 432.037 352.671C432.026 343.09 428.219 333.905 421.45 327.13C414.682 320.355 405.505 316.544 395.932 316.533Z" fill="#292B2C"/>
<path d="M395.932 377.089C391.107 377.089 386.391 375.657 382.379 372.974C378.367 370.291 375.241 366.477 373.394 362.016C371.548 357.554 371.065 352.644 372.006 347.908C372.947 343.171 375.271 338.82 378.682 335.406C382.094 331.991 386.441 329.665 391.173 328.723C395.905 327.781 400.81 328.264 405.268 330.113C409.725 331.961 413.535 335.09 416.216 339.106C418.896 343.121 420.327 347.842 420.327 352.671C420.32 359.145 417.747 365.351 413.174 369.929C408.601 374.507 402.4 377.082 395.932 377.089ZM395.932 329.231C391.3 329.231 386.773 330.605 382.921 333.181C379.07 335.757 376.068 339.418 374.296 343.701C372.523 347.984 372.06 352.697 372.963 357.244C373.867 361.791 376.097 365.968 379.372 369.246C382.648 372.525 386.821 374.757 391.363 375.662C395.906 376.566 400.615 376.102 404.894 374.328C409.174 372.554 412.831 369.549 415.405 365.694C417.978 361.84 419.351 357.308 419.351 352.671C419.344 346.457 416.875 340.498 412.484 336.104C408.094 331.709 402.141 329.238 395.932 329.231Z" fill="#292B2C"/>
<path d="M395.932 371.229C406.172 371.229 414.472 362.92 414.472 352.671C414.472 342.422 406.172 334.114 395.932 334.114C385.693 334.114 377.392 342.422 377.392 352.671C377.392 362.92 385.693 371.229 395.932 371.229Z" fill="#CCCCCC"/>
<path d="M384.711 352.671C384.711 349.73 385.773 346.887 387.7 344.666C389.627 342.446 392.291 340.996 395.2 340.584C393.471 340.338 391.709 340.467 390.033 340.961C388.358 341.456 386.808 342.305 385.488 343.451C384.169 344.597 383.111 346.013 382.386 347.604C381.661 349.195 381.286 350.923 381.286 352.671C381.286 354.42 381.661 356.148 382.386 357.739C383.111 359.33 384.169 360.746 385.488 361.892C386.808 363.038 388.358 363.887 390.033 364.382C391.709 364.876 393.471 365.005 395.2 364.758C392.291 364.347 389.627 362.897 387.7 360.676C385.773 358.455 384.711 355.613 384.711 352.671Z" fill="white"/>
<path d="M476.923 297.976H452.529V297.488C452.529 294.25 453.814 291.144 456.101 288.855C458.389 286.565 461.491 285.279 464.726 285.279C467.961 285.279 471.063 286.565 473.351 288.855C475.638 291.144 476.923 294.25 476.923 297.488V297.976ZM453.515 296.999H475.937C475.811 294.108 474.575 291.376 472.486 289.375C470.398 287.373 467.618 286.256 464.726 286.256C461.834 286.256 459.054 287.373 456.966 289.375C454.877 291.376 453.641 294.108 453.515 296.999Z" fill="#292B2C"/>
<path d="M310.062 311.65C309.097 311.65 308.154 311.364 307.352 310.827C306.549 310.29 305.924 309.528 305.555 308.635C305.185 307.743 305.089 306.761 305.277 305.814C305.465 304.866 305.93 303.996 306.612 303.313C307.295 302.63 308.164 302.165 309.11 301.977C310.057 301.788 311.038 301.885 311.929 302.255C312.821 302.624 313.583 303.25 314.119 304.053C314.655 304.856 314.941 305.801 314.941 306.766C314.94 308.061 314.425 309.302 313.511 310.218C312.596 311.133 311.356 311.648 310.062 311.65ZM310.062 302.86C309.29 302.86 308.536 303.089 307.894 303.518C307.252 303.947 306.752 304.557 306.456 305.271C306.161 305.985 306.083 306.771 306.234 307.529C306.385 308.286 306.756 308.983 307.302 309.529C307.848 310.075 308.544 310.447 309.301 310.598C310.058 310.749 310.843 310.672 311.556 310.376C312.269 310.08 312.879 309.579 313.308 308.937C313.736 308.294 313.965 307.539 313.965 306.766C313.964 305.731 313.553 304.738 312.821 304.005C312.089 303.273 311.097 302.861 310.062 302.86Z" fill="#292B2C"/>
<path d="M310.062 309.208C311.409 309.208 312.502 308.115 312.502 306.766C312.502 305.418 311.409 304.325 310.062 304.325C308.715 304.325 307.623 305.418 307.623 306.766C307.623 308.115 308.715 309.208 310.062 309.208Z" fill="#AD8226"/>
<path d="M322.748 309.208C324.095 309.208 325.187 308.115 325.187 306.766C325.187 305.418 324.095 304.325 322.748 304.325C321.4 304.325 320.308 305.418 320.308 306.766C320.308 308.115 321.4 309.208 322.748 309.208Z" fill="#CCCCCC"/>
<path d="M335.433 309.208C336.78 309.208 337.872 308.115 337.872 306.766C337.872 305.418 336.78 304.325 335.433 304.325C334.086 304.325 332.993 305.418 332.993 306.766C332.993 308.115 334.086 309.208 335.433 309.208Z" fill="#CCCCCC"/>
<path d="M322.748 311.65C321.783 311.65 320.839 311.364 320.037 310.827C319.235 310.29 318.609 309.528 318.24 308.635C317.871 307.743 317.774 306.761 317.962 305.814C318.151 304.866 318.615 303.996 319.298 303.313C319.98 302.63 320.849 302.165 321.796 301.977C322.742 301.788 323.723 301.885 324.615 302.255C325.506 302.624 326.268 303.25 326.804 304.053C327.34 304.856 327.627 305.801 327.627 306.766C327.625 308.061 327.111 309.302 326.196 310.218C325.281 311.133 324.041 311.648 322.748 311.65ZM322.748 302.86C321.976 302.86 321.221 303.089 320.579 303.518C319.937 303.947 319.437 304.557 319.141 305.271C318.846 305.985 318.769 306.771 318.919 307.529C319.07 308.286 319.442 308.983 319.988 309.529C320.533 310.075 321.229 310.447 321.986 310.598C322.743 310.749 323.528 310.672 324.241 310.376C324.954 310.08 325.564 309.579 325.993 308.937C326.422 308.294 326.651 307.539 326.651 306.766C326.65 305.731 326.238 304.738 325.506 304.005C324.774 303.273 323.782 302.861 322.748 302.86Z" fill="#292B2C"/>
<path d="M335.433 311.65C334.468 311.65 333.525 311.364 332.722 310.827C331.92 310.29 331.295 309.528 330.925 308.635C330.556 307.743 330.459 306.761 330.648 305.814C330.836 304.866 331.301 303.996 331.983 303.313C332.665 302.63 333.535 302.165 334.481 301.977C335.428 301.788 336.409 301.885 337.3 302.255C338.192 302.624 338.954 303.25 339.49 304.053C340.026 304.856 340.312 305.801 340.312 306.766C340.31 308.061 339.796 309.302 338.881 310.218C337.967 311.133 336.727 311.648 335.433 311.65ZM335.433 302.86C334.661 302.86 333.906 303.089 333.264 303.518C332.623 303.947 332.122 304.557 331.827 305.271C331.531 305.985 331.454 306.771 331.605 307.529C331.755 308.286 332.127 308.983 332.673 309.529C333.219 310.075 333.914 310.447 334.671 310.598C335.429 310.749 336.213 310.672 336.927 310.376C337.64 310.08 338.249 309.579 338.678 308.937C339.107 308.294 339.336 307.539 339.336 306.766C339.335 305.731 338.923 304.738 338.192 304.005C337.46 303.273 336.468 302.861 335.433 302.86Z" fill="#292B2C"/>
<path d="M361.779 339.424H298.353V340.401H361.779V339.424Z" fill="#292B2C"/>
<path d="M360.204 359.081H298.353V360.058H360.204V359.081Z" fill="#292B2C"/>
<path d="M493.512 339.424H430.085V340.401H493.512V339.424Z" fill="#292B2C"/>
<path d="M493.401 359.081H431.549V360.058H493.401V359.081Z" fill="#292B2C"/>
<path d="M192.573 170.419C186.878 167.801 183.135 160.315 183.348 152.932C183.562 145.549 187.443 138.644 192.797 135.124C195.407 133.45 198.391 132.451 201.482 132.217C204.573 131.984 207.674 132.522 210.505 133.784C216.251 136.232 223.965 136.899 227.419 142.984C230.073 147.659 229.117 158.091 227.238 163.29C225.613 167.784 221.642 170.316 217.77 171.733C213.484 173.287 208.914 173.902 204.37 173.535C199.825 173.169 195.413 171.83 191.43 169.609" fill="#4D281C"/>
<path d="M157.853 399.703L149.667 397.038L156.043 364.164L168.126 368.099L157.853 399.703Z" fill="#FFE0C3"/>
<path d="M144.58 392.792L160.368 397.933L157.134 407.883L131.406 399.505C131.831 398.198 132.509 396.988 133.4 395.944C134.292 394.899 135.381 394.041 136.604 393.418C137.828 392.794 139.162 392.418 140.53 392.311C141.899 392.204 143.275 392.367 144.58 392.792Z" fill="#292B2C"/>
<path d="M231.139 399.882L222.53 399.881L218.435 366.646L231.14 366.647L231.139 399.882Z" fill="#FFE0C3"/>
<path d="M216.381 397.419H232.983V407.882H205.928C205.928 406.508 206.198 405.148 206.724 403.878C207.249 402.609 208.019 401.455 208.99 400.484C209.96 399.512 211.113 398.742 212.381 398.216C213.649 397.69 215.008 397.419 216.381 397.419Z" fill="#292B2C"/>
<path d="M230.706 386.288C230.654 386.288 230.602 386.287 230.55 386.284L221.01 385.829C220.207 385.789 219.449 385.446 218.89 384.867C218.331 384.288 218.013 383.518 218.001 382.713L216.709 288.26C216.705 288.026 216.624 287.799 216.478 287.616C216.332 287.433 216.129 287.304 215.901 287.25C215.674 287.195 215.434 287.218 215.221 287.314C215.008 287.411 214.833 287.576 214.724 287.783L164.196 383.677C163.883 384.278 163.384 384.761 162.774 385.055C162.163 385.349 161.475 385.438 160.81 385.309L151.316 383.499C150.869 383.413 150.445 383.233 150.075 382.968C149.704 382.704 149.394 382.363 149.168 381.968C148.941 381.573 148.802 381.134 148.76 380.68C148.719 380.226 148.776 379.769 148.928 379.339L185.743 274.933L188.576 244.048C188.639 243.328 188.948 242.651 189.452 242.133C189.955 241.614 190.622 241.285 191.339 241.202C202.067 239.883 217.056 231.085 223.002 227.364C223.367 227.133 223.776 226.981 224.203 226.917C224.629 226.853 225.065 226.878 225.481 226.99C225.903 227.104 226.296 227.302 226.638 227.574C226.98 227.845 227.263 228.183 227.469 228.568C241.794 255.214 247.272 285.732 243.111 315.702L233.831 383.553C233.731 384.312 233.359 385.007 232.784 385.511C232.208 386.014 231.47 386.29 230.706 386.288Z" fill="#292B2C"/>
<path d="M205.028 177.674C214.553 177.674 222.274 169.945 222.274 160.411C222.274 150.878 214.553 143.149 205.028 143.149C195.503 143.149 187.782 150.878 187.782 160.411C187.782 169.945 195.503 177.674 205.028 177.674Z" fill="#FFE0C3"/>
<path d="M187.844 251.464L182.651 214.323C181.387 208.679 182.413 202.764 185.504 197.878C188.595 192.991 193.497 189.533 199.135 188.263C204.772 186.993 210.682 188.015 215.567 191.104C220.452 194.194 223.911 199.099 225.184 204.74C226.663 211.606 229.668 219.963 228.57 228.973C220.879 250.339 206.918 256.926 187.844 251.464Z" fill="#B3B3B3"/>
<path d="M210.665 193.832H198.025C197.188 193.831 196.385 193.497 195.792 192.904C195.2 192.311 194.867 191.508 194.866 190.669V186.452C194.867 185.614 195.2 184.81 195.792 184.217C196.385 183.624 197.188 183.29 198.025 183.289H210.665C211.502 183.29 212.306 183.624 212.898 184.217C213.49 184.81 213.824 185.614 213.824 186.452V190.669C213.824 191.508 213.49 192.311 212.898 192.904C212.306 193.497 211.502 193.831 210.665 193.832Z" fill="#B3B3B3"/>
<path d="M274.72 264.032C275.063 262.983 275.172 261.871 275.039 260.775C274.906 259.679 274.535 258.626 273.952 257.689C273.368 256.753 272.587 255.956 271.662 255.354C270.738 254.752 269.692 254.361 268.6 254.207L229.258 197.83L217.592 209.374L259.933 261.161C259.797 263.014 260.344 264.853 261.472 266.329C262.6 267.806 264.23 268.816 266.052 269.17C267.875 269.524 269.764 269.196 271.362 268.249C272.959 267.302 274.154 265.802 274.72 264.032V264.032Z" fill="#FFE0C3"/>
<path d="M241.565 215.077L227.357 224.57C226.953 224.84 226.495 225.02 226.016 225.097C225.536 225.174 225.045 225.147 224.576 225.017C224.108 224.887 223.673 224.658 223.301 224.345C222.929 224.031 222.629 223.641 222.422 223.202L215.144 207.79C213.776 205.712 213.287 203.176 213.784 200.738C214.281 198.3 215.724 196.158 217.795 194.783C219.867 193.407 222.399 192.91 224.837 193.399C227.274 193.889 229.418 195.326 230.799 197.396L242.195 209.99C242.521 210.35 242.766 210.777 242.912 211.241C243.059 211.705 243.103 212.195 243.044 212.678C242.984 213.161 242.821 213.625 242.566 214.039C242.311 214.453 241.969 214.807 241.565 215.077Z" fill="#B3B3B3"/>
<path d="M135.734 188.281C135.82 188.66 135.876 189.046 135.902 189.434L166.066 206.851L173.398 202.627L181.214 212.868L168.96 221.61C167.971 222.316 166.779 222.682 165.563 222.652C164.348 222.623 163.175 222.199 162.221 221.446L131.117 196.885C129.713 197.405 128.184 197.485 126.734 197.114C125.284 196.743 123.981 195.939 122.998 194.809C122.015 193.679 121.4 192.276 121.233 190.788C121.066 189.299 121.356 187.794 122.065 186.474C122.773 185.155 123.866 184.082 125.198 183.399C126.531 182.716 128.039 182.455 129.523 182.652C131.007 182.848 132.396 183.491 133.505 184.497C134.615 185.503 135.392 186.822 135.734 188.281V188.281Z" fill="#FFE0C3"/>
<path d="M174.833 219.507L167.254 204.184C167.038 203.748 166.919 203.271 166.904 202.785C166.89 202.298 166.98 201.815 167.169 201.366C167.358 200.918 167.641 200.516 167.999 200.187C168.357 199.858 168.782 199.611 169.245 199.461L185.45 194.218C187.685 193.126 190.261 192.966 192.614 193.773C194.966 194.579 196.903 196.287 198 198.521C199.097 200.755 199.264 203.333 198.465 205.69C197.665 208.047 195.965 209.99 193.736 211.094L179.793 220.787C179.394 221.064 178.939 221.252 178.461 221.338C177.982 221.424 177.491 221.405 177.02 221.284C176.55 221.162 176.111 220.941 175.733 220.634C175.356 220.328 175.049 219.943 174.833 219.507H174.833Z" fill="#B3B3B3"/>
<path d="M216.601 138.671C217.222 138.761 217.856 138.645 218.404 138.339C218.952 138.032 219.384 137.554 219.633 136.977C219.863 136.393 219.956 135.764 219.905 135.138C219.855 134.512 219.662 133.906 219.341 133.366C218.688 132.291 217.776 131.396 216.689 130.764C215.438 129.926 213.991 129.428 212.489 129.317C211.74 129.268 210.989 129.381 210.287 129.647C209.585 129.914 208.949 130.329 208.421 130.863C207.906 131.411 207.566 132.1 207.444 132.842C207.323 133.584 207.425 134.345 207.739 135.029C208.369 136.246 209.692 136.929 210.982 137.392C213.539 138.309 216.263 138.667 218.971 138.443" fill="#4D281C"/>
<path d="M222.116 168.271C219.101 168.413 219.621 162.01 218.677 159.141C217.734 156.272 216.433 152.85 213.466 152.3C211.035 151.849 208.837 153.629 206.719 154.907C202.944 157.184 198.057 158.024 194.093 156.095C190.129 154.166 187.718 149.012 189.646 145.044C190.233 143.954 191.038 142.995 192.01 142.229C192.982 141.462 194.101 140.903 195.298 140.587C197.697 139.97 200.197 139.85 202.644 140.234C208.104 140.904 213.35 142.765 218.012 145.686C221.229 147.706 224.29 150.456 225.248 154.134C226.206 157.813 226.596 167.815 222.852 168.448L222.116 168.271Z" fill="#4D281C"/>
<path d="M214.229 129.767C211.952 126.877 212.81 122.325 215.464 119.779C218.118 117.232 222.064 116.438 225.726 116.762C229.355 117.128 232.823 118.442 235.784 120.573C238.745 122.704 241.094 125.577 242.596 128.903C244.91 134.202 244.891 140.263 246.984 145.653C248.1 148.527 249.791 151.141 251.954 153.335C254.118 155.53 256.707 157.258 259.562 158.413C262.418 159.568 265.479 160.125 268.558 160.051C271.637 159.978 274.669 159.273 277.466 157.983C281.109 156.301 284.577 153.009 284.369 148.999C286.673 157.888 282.524 168.055 274.663 172.788C270.059 175.561 264.606 176.502 259.272 177.15C255.796 177.572 252.223 177.886 248.83 177.016C244.084 175.8 240.111 172.293 237.704 168.022C235.298 163.75 234.352 158.772 234.315 153.868C234.286 150.048 234.786 146.226 234.522 142.415C234.258 138.604 233.113 134.662 230.353 132.023C227.593 129.385 222.936 128.516 219.907 130.841C218.689 131.775 217.797 133.139 216.427 133.828C215.056 134.517 212.89 133.981 212.799 132.448L214.229 129.767Z" fill="#4D281C"/>
<path d="M148.15 188.404H5.90501C4.60458 188.403 3.35785 187.885 2.43831 186.965C1.51877 186.044 1.00151 184.796 1 183.495V103.306C1.00151 102.004 1.51877 100.756 2.43831 99.8356C3.35785 98.9152 4.60458 98.3975 5.90501 98.396H148.15C149.451 98.3974 150.698 98.9152 151.617 99.8356C152.537 100.756 153.054 102.004 153.055 103.306V183.495C153.054 184.797 152.537 186.044 151.617 186.965C150.698 187.885 149.451 188.403 148.15 188.404ZM5.90501 99.487C4.89355 99.4881 3.92385 99.8908 3.20864 100.607C2.49344 101.323 2.09113 102.293 2.09 103.306V183.495C2.09113 184.507 2.49344 185.478 3.20864 186.194C3.92385 186.91 4.89355 187.312 5.90501 187.313H148.15C149.162 187.312 150.131 186.91 150.847 186.194C151.562 185.478 151.964 184.507 151.965 183.495V103.306C151.964 102.293 151.562 101.323 150.847 100.607C150.131 99.8909 149.162 99.4882 148.15 99.487H5.90501Z" fill="#292B2C"/>
<path d="M52.798 154.687C64.0316 154.687 73.1382 145.572 73.1382 134.328C73.1382 123.084 64.0316 113.969 52.798 113.969C41.5645 113.969 32.4579 123.084 32.4579 134.328C32.4579 145.572 41.5645 154.687 52.798 154.687Z" fill="#E6E6E6"/>
<path d="M131.177 170.278L107.301 128.885C107.152 128.627 106.937 128.412 106.679 128.262C106.42 128.113 106.127 128.034 105.828 128.034C105.53 128.034 105.237 128.113 104.978 128.262C104.72 128.412 104.505 128.627 104.356 128.885L89.785 154.146L68.0627 116.487C67.8714 116.155 67.5962 115.88 67.2648 115.689C66.9334 115.497 66.5574 115.396 66.1748 115.396C65.7921 115.396 65.4162 115.497 65.0848 115.689C64.7534 115.88 64.4782 116.155 64.2868 116.487L33.6745 169.558C33.4832 169.89 33.3824 170.266 33.3824 170.649C33.3824 171.032 33.4832 171.409 33.6745 171.74C33.8658 172.072 34.141 172.347 34.4724 172.539C34.8038 172.73 35.1798 172.831 35.5625 172.831H129.705C130.003 172.831 130.296 172.753 130.555 172.603C130.813 172.454 131.028 172.239 131.177 171.98C131.326 171.722 131.405 171.428 131.405 171.129C131.405 170.831 131.326 170.537 131.177 170.278Z" fill="#AD8226"/>
<path d="M20.0751 108.215H11.355V116.943H20.0751V108.215Z" fill="#292B2C"/>
<path d="M203.52 70.3292H92.3751C91.359 70.3281 90.3848 69.9235 89.6663 69.2044C88.9478 68.4852 88.5437 67.5101 88.5425 66.4931V3.83615C88.5437 2.8191 88.9478 1.84405 89.6663 1.12489C90.3848 0.405734 91.359 0.00118303 92.3751 0H203.52C204.536 0.0011459 205.511 0.405683 206.229 1.12485C206.948 1.84402 207.352 2.81909 207.353 3.83615V66.4931C207.352 67.5102 206.948 68.4852 206.229 69.2044C205.511 69.9236 204.536 70.3281 203.52 70.3292ZM92.3751 0.852475C91.5848 0.853364 90.8271 1.168 90.2682 1.72735C89.7094 2.28671 89.3951 3.0451 89.3942 3.83615V66.4931C89.3951 67.2841 89.7094 68.0425 90.2682 68.6019C90.8271 69.1612 91.5848 69.4759 92.3751 69.4768H203.52C204.311 69.4758 205.068 69.1612 205.627 68.6019C206.186 68.0425 206.5 67.2841 206.501 66.4931V3.83615C206.5 3.04511 206.186 2.28674 205.627 1.7274C205.068 1.16805 204.311 0.853398 203.52 0.852475H92.3751Z" fill="#CCCCCC"/>
<path d="M129.016 43.9837C137.793 43.9837 144.909 36.8616 144.909 28.076C144.909 19.2904 137.793 12.1683 129.016 12.1683C120.238 12.1683 113.123 19.2904 113.123 28.076C113.123 36.8616 120.238 43.9837 129.016 43.9837Z" fill="#F2F2F2"/>
<path d="M190.258 56.1663L171.602 23.8232C171.485 23.6211 171.318 23.4532 171.116 23.3365C170.914 23.2197 170.685 23.1583 170.451 23.1583C170.218 23.1583 169.989 23.2197 169.787 23.3365C169.585 23.4532 169.418 23.6211 169.301 23.8232L157.916 43.5612L140.943 14.1358C140.793 13.8766 140.578 13.6614 140.319 13.5118C140.06 13.3622 139.767 13.2834 139.468 13.2834C139.169 13.2834 138.875 13.3622 138.616 13.5118C138.357 13.6614 138.142 13.8766 137.992 14.1358L114.073 55.6036C113.924 55.8627 113.845 56.1568 113.845 56.456C113.845 56.7553 113.924 57.0493 114.073 57.3085C114.223 57.5677 114.438 57.7829 114.697 57.9326C114.956 58.0822 115.249 58.161 115.548 58.161H189.108C189.341 58.161 189.57 58.0995 189.772 57.9828C189.974 57.8661 190.141 57.6982 190.258 57.4961C190.375 57.2939 190.436 57.0646 190.436 56.8312C190.436 56.5978 190.375 56.3685 190.258 56.1663Z" fill="#E6E6E6"/>
<path d="M103.447 7.67229H96.6335V14.4921H103.447V7.67229Z" fill="#CCCCCC"/>
</svg>
