<svg width="817" height="701" viewBox="0 0 817 701" fill="none" xmlns="http://www.w3.org/2000/svg">
<g clip-path="url(#clip0)">
<path d="M580.132 698.194C574.277 698.189 568.517 696.707 563.386 693.885L86.9781 433.339C78.8418 428.878 72.8075 421.371 70.199 412.465C67.5906 403.56 68.6211 393.984 73.0644 385.838L274.112 18.2225C276.317 14.1899 279.295 10.6311 282.876 7.74941C286.457 4.86773 290.57 2.71956 294.981 1.42756C299.392 0.135556 304.014 -0.274972 308.584 0.219412C313.153 0.713796 317.581 2.10341 321.613 4.30891L798.022 264.855C806.158 269.316 812.192 276.823 814.801 285.728C817.409 294.634 816.379 304.21 811.935 312.356L610.888 679.971C608.693 684.012 605.718 687.576 602.136 690.459C598.554 693.342 594.435 695.486 590.019 696.766C586.808 697.71 583.479 698.191 580.132 698.194ZM566.265 688.621C573.013 692.312 580.951 693.17 588.332 691.008C595.713 688.846 601.933 683.841 605.624 677.093L806.671 309.477C810.353 302.727 811.207 294.793 809.045 287.414C806.884 280.036 801.884 273.815 795.143 270.118L318.735 9.57258C311.986 5.8823 304.049 5.02375 296.668 7.1858C289.286 9.34786 283.066 14.3534 279.376 21.1014L78.3285 388.717C74.647 395.467 73.7931 403.401 75.9544 410.78C78.1157 418.158 83.1155 424.379 89.8571 428.075L566.265 688.621Z" fill="#F2F2F2"/>
<path d="M589.955 569.623C584.474 569.62 579.081 568.239 574.273 565.607L189.11 354.963C185.363 352.918 182.055 350.154 179.377 346.83C176.699 343.505 174.703 339.685 173.503 335.588C172.303 331.491 171.923 327.198 172.384 322.954C172.845 318.71 174.138 314.598 176.19 310.855L296.262 91.3035C298.31 87.5587 301.075 84.2538 304.4 81.5778C307.725 78.9017 311.544 76.9069 315.64 75.7071C319.736 74.5074 324.028 74.1262 328.272 74.5854C332.515 75.0447 336.626 76.3353 340.371 78.3836L725.533 289.027C729.278 291.075 732.583 293.84 735.259 297.165C737.935 300.49 739.93 304.309 741.129 308.405C742.329 312.501 742.71 316.793 742.251 321.037C741.792 325.28 740.501 329.391 738.453 333.136L738.015 332.896L738.453 333.136L618.382 552.687C615.605 557.806 611.499 562.082 606.496 565.063C601.494 568.043 595.779 569.619 589.955 569.623V569.623Z" fill="#F2F2F2"/>
<path d="M578 698.097H35C26.3835 698.087 18.1226 694.66 12.0298 688.567C5.937 682.474 2.50977 674.214 2.5 665.597V246.597C2.50977 237.98 5.937 229.72 12.0298 223.627C18.1226 217.534 26.3835 214.107 35 214.097H578C586.617 214.107 594.877 217.534 600.97 223.627C607.063 229.72 610.49 237.98 610.5 246.597V665.597C610.49 674.214 607.063 682.474 600.97 688.567C594.877 694.66 586.617 698.087 578 698.097V698.097Z" fill="white"/>
<path d="M578 700.597H35C25.7206 700.587 16.8243 696.896 10.2628 690.334C3.70129 683.773 0.0104468 674.876 0 665.597V246.597C0.0104468 237.318 3.70129 228.421 10.2628 221.86C16.8243 215.298 25.7206 211.607 35 211.597H578C587.279 211.607 596.176 215.298 602.737 221.86C609.299 228.421 612.99 237.318 613 246.597V665.597C612.99 674.876 609.299 683.773 602.737 690.334C596.176 696.896 587.279 700.587 578 700.597ZM35 217.597C27.3114 217.606 19.9402 220.664 14.5035 226.1C9.0668 231.537 6.00867 238.908 6 246.597V665.597C6.00867 673.286 9.0668 680.657 14.5035 686.094C19.9402 691.53 27.3114 694.588 35 694.597H578C585.689 694.588 593.06 691.53 598.496 686.094C603.933 680.657 606.991 673.286 607 665.597V246.597C606.991 238.908 603.933 231.537 598.496 226.1C593.06 220.664 585.689 217.606 578 217.597H35Z" fill="#E6E6E6"/>
<path d="M391.003 351.885C384.694 351.88 378.471 353.339 372.823 356.148C367.174 358.957 362.255 363.038 358.452 368.07C354.369 366.314 349.914 365.598 345.487 365.988C341.06 366.378 336.799 367.861 333.086 370.305C329.374 372.748 326.326 376.075 324.217 379.987C322.108 383.899 321.003 388.274 321.002 392.718H431.836C431.836 387.356 430.78 382.046 428.728 377.092C426.676 372.138 423.668 367.636 419.876 363.844C416.085 360.053 411.583 357.045 406.629 354.993C401.675 352.941 396.365 351.885 391.003 351.885Z" fill="#E6E6E6"/>
<path d="M148.197 511.718C184.513 511.718 213.954 482.277 213.954 445.96C213.954 409.644 184.513 380.203 148.197 380.203C111.88 380.203 82.4395 409.644 82.4395 445.96C82.4395 482.277 111.88 511.718 148.197 511.718Z" fill="#AD8226"/>
<path d="M533.36 581.477C530.948 582.045 528.478 582.331 526 582.327H87C81.5934 582.336 76.2733 580.97 71.54 578.357L72.71 576.677L121.69 506.147L194.27 401.657L195.33 400.127L206.75 383.687C207.517 382.581 208.541 381.677 209.734 381.052C210.927 380.428 212.254 380.102 213.6 380.102C214.946 380.102 216.273 380.428 217.466 381.052C218.659 381.677 219.683 382.581 220.45 383.687L258.39 438.297V438.307L280.71 470.447L333.99 547.147L414.8 431.797C415.569 430.697 416.593 429.799 417.784 429.178C418.975 428.558 420.297 428.235 421.64 428.235C422.982 428.235 424.305 428.558 425.496 429.178C426.687 429.799 427.71 430.697 428.48 431.797L480.32 505.787L483.3 510.037L533.36 581.477Z" fill="#323536"/>
<path d="M303.73 420.067C295.947 420.061 288.269 421.861 281.3 425.327C274.331 428.792 268.262 433.827 263.569 440.036C258.533 437.869 253.036 436.986 247.574 437.467C242.112 437.948 236.855 439.778 232.275 442.793C227.694 445.807 223.934 449.912 221.332 454.739C218.73 459.565 217.367 464.962 217.366 470.445H354.109C354.109 463.83 352.806 457.279 350.274 451.166C347.742 445.054 344.031 439.5 339.353 434.822C334.675 430.144 329.121 426.433 323.009 423.901C316.897 421.37 310.346 420.067 303.73 420.067V420.067Z" fill="#CCCCCC"/>
<path d="M526 583.327H87C82.6653 583.331 78.3723 582.48 74.3668 580.823C70.3613 579.166 66.7218 576.735 63.6567 573.67C60.5916 570.605 58.161 566.966 56.504 562.96C54.847 558.955 53.9961 554.662 54 550.327V300.087C54.0099 291.338 57.4898 282.95 63.6764 276.764C69.863 270.577 78.2509 267.097 87 267.087H526C534.749 267.097 543.137 270.577 549.324 276.764C555.51 282.95 558.99 291.338 559 300.087V550.327C559.005 554.662 558.155 558.955 556.498 562.961C554.842 566.967 552.411 570.607 549.346 573.673C546.28 576.738 542.64 579.169 538.634 580.825C534.628 582.482 530.335 583.332 526 583.327V583.327ZM87 269.087C78.7812 269.097 70.9016 272.366 65.09 278.177C59.2784 283.989 56.0093 291.868 56 300.087V550.327C55.9962 554.399 56.7954 558.432 58.3519 562.195C59.9084 565.958 62.1917 569.376 65.0711 572.256C67.9505 575.135 71.3694 577.419 75.1323 578.975C78.8951 580.532 82.928 581.331 87 581.327H526C530.072 581.332 534.106 580.533 537.869 578.977C541.632 577.421 545.051 575.138 547.931 572.258C550.811 569.378 553.094 565.959 554.65 562.196C556.206 558.433 557.005 554.399 557 550.327V300.087C556.991 291.868 553.722 283.989 547.91 278.177C542.098 272.366 534.219 269.097 526 269.087H87Z" fill="#3F3D56"/>
</g>
<defs>
<clipPath id="clip0">
<rect width="816.222" height="700.597" fill="white"/>
</clipPath>
</defs>
</svg>
