<svg width="942" height="794" viewBox="0 0 942 794" fill="none" xmlns="http://www.w3.org/2000/svg">
<g clip-path="url(#clip0)">
<path d="M37.57 51.08C27.72 56.32 17.88 62.64 11.85 72.43C5.82 82.22 4.30999 94.33 3.18999 105.99C-7.30001 215.42 5.94 334.99 74.4 417.5C81.72 426.32 89.69 434.71 99.19 440.76C112.49 449.24 128.03 452.69 143.32 455.51C199.27 465.81 257.89 470.1 307.84 498.81C335.73 514.81 359.51 537.81 386.01 556.33C412.51 574.85 443.74 589.24 475.18 584.77C492.74 582.28 509.18 574.04 526.75 571.31C562.92 565.69 598.05 583.8 632.06 598.01C679.627 617.904 729.807 630.856 781.06 636.47C820.77 640.79 865.06 639.03 894.59 610.47C906.35 599.11 914.76 584.3 921.18 568.84C938.646 526.111 941.921 478.901 930.52 434.17C923.26 406.08 910.23 379.39 907.96 350.37C905.34 316.97 917.21 284.5 924.09 251.79C934.59 201.88 932.52 146.13 905.09 104.12C894.51 87.91 880.61 74.41 865.77 62.56C809.11 17.32 736.66 -5.03003 666.02 0.94997C612.77 5.46997 561.91 25.23 510.7 41.41C451.05 60.25 388.97 74.48 326.94 69.16C272.94 64.52 221.49 45.39 168.94 32.78C122.37 21.6 80.87 28.02 37.57 51.08Z" fill="#323536"/>
<path d="M500.68 793.62C743.884 793.62 941.04 766.466 941.04 732.97C941.04 699.474 743.884 672.32 500.68 672.32C257.476 672.32 60.32 699.474 60.32 732.97C60.32 766.466 257.476 793.62 500.68 793.62Z" fill="#323536"/>
<g opacity="0.1">
<path opacity="0.1" d="M389.76 332.49C443.95 454.9 518.21 495.49 485.61 533.77C453.01 572.05 306.96 577.77 271.69 471C240.87 377.72 143.24 308 175.84 269.73C208.44 231.46 344.25 229.72 389.76 332.49Z" fill="#564EDA"/>
<path opacity="0.1" d="M175.84 269.73C175.84 269.73 280.35 324.65 322.84 395.03C365.33 465.41 485.61 533.81 485.61 533.81" stroke="#535461" stroke-width="2" stroke-miterlimit="10"/>
</g>
<g opacity="0.1">
<path opacity="0.1" d="M563.97 499.64C507.56 575.44 484.79 635.18 470.73 628.42C456.67 621.66 464.73 533.89 513.06 475.17C555.29 423.85 592.23 339.64 606.29 346.4C620.35 353.16 611.33 436 563.97 499.64Z" fill="#564EDA"/>
<path opacity="0.1" d="M606.29 346.4C606.29 346.4 575.21 429.69 541.96 480.24C508.71 530.79 470.73 628.42 470.73 628.42" stroke="#535461" stroke-width="2" stroke-miterlimit="10"/>
</g>
<path d="M842.52 171.71C827.04 171.4 813.38 160.43 805.64 147.12C803.76 143.89 802.14 140.24 801.92 136.6C801.966 135.747 802.106 134.902 802.34 134.08C802.816 132.826 803.2 131.539 803.49 130.23C803.56 129.706 803.56 129.174 803.49 128.65C803.49 128.65 803.49 128.6 803.49 128.57C803.86 125.73 802.19 122.97 800.08 121.01C797.97 119.05 795.43 117.61 793.27 115.71C786.62 109.86 784.59 100.5 784.47 91.58C784.47 91.43 784.47 91.27 784.47 91.12C784.54 87.29 784.85 83.46 784.81 79.65C784.862 77.4795 784.768 75.308 784.53 73.15C783.9 67.75 781.83 62.24 777.59 58.8C766.52 49.8 747.89 59.17 736.43 50.67C733.64 48.61 731.43 45.53 728.01 44.67C725.45 44.06 722.8 44.89 720.31 45.67C711.87 48.45 702.45 52.12 699.14 60.32C697.26 65 697.79 70.32 696.06 75.08C694.9 78.26 692.78 80.99 691.23 84C689.941 86.2646 689.317 88.8468 689.43 91.45C689.286 92.8074 689.471 94.1794 689.97 95.45C690.551 96.9881 691.498 98.3612 692.73 99.45C692.291 100.386 691.74 101.266 691.09 102.07C688.93 104.71 685.62 106.6 683.38 109.2C679.22 114.02 679.38 120.56 681.38 126.2C683.38 131.84 687.12 137.01 689.67 142.53C690.77 144.92 691.67 147.6 690.51 149.98C689.72 151.63 688.07 152.88 686.78 154.31C684.898 156.409 683.714 159.04 683.39 161.84C658.1 167.61 658.09 187.93 658.09 187.93L644.45 222.31C644.45 222.31 642.26 228.1 639.69 235.73L623.52 232.81L634.74 251.6C632.61 259.26 631.11 266.37 631.61 269.93C631.61 269.93 626.61 293.48 635.51 297.64L655.21 306.5C656.058 307.026 656.973 307.436 657.93 307.72L658.74 308.08C659.025 308.219 659.338 308.291 659.655 308.291C659.972 308.291 660.285 308.219 660.57 308.08H660.68H660.89C661.291 308.12 661.696 308.062 662.07 307.91C662.518 307.681 662.871 307.302 663.07 306.84C663.067 306.803 663.067 306.767 663.07 306.73L668.97 305.03L673.97 310.94C676.22 312.53 678.43 313.94 680.59 315.14L672.85 391.98C672.85 391.98 671.6 494.2 667.85 517.47C666.46 526.1 666.44 531.98 666.97 535.98L666.83 536.23C667.76 542.8 670.18 544.1 670.18 544.1V544.01L670.32 544.1C671.439 541.116 672.776 538.218 674.32 535.43C674.32 535.98 674.32 536.54 674.32 537.11C674.25 545.79 673.98 557.92 673.08 565.82C671.55 579.25 676.98 623.71 676.98 623.71L678.86 664.18C679.169 671.045 677.577 677.862 674.26 683.88C669.81 691.96 664.02 703.33 663.61 708.36C663.59 708.633 663.59 708.907 663.61 709.18V709.18L653.85 720.68C653.85 720.68 650.08 726.5 658.59 728.85C663.16 730.12 671.05 728.85 677.37 727.36C680.134 726.721 682.601 725.166 684.37 722.947C686.138 720.729 687.104 717.977 687.11 715.14C688.728 709.569 691.449 704.38 695.11 699.88L696.7 709.18L707.3 711.82L708.67 686.3C709.209 684.86 709.458 683.327 709.4 681.79V681.79C711.5 663.64 704.48 665.26 704.48 665.26C704.669 665.423 704.791 665.652 704.82 665.9C704.7 665.7 704.59 665.49 704.49 665.28C700.2 656.81 702.32 642.81 702.32 642.81C702.32 642.81 707.89 602.37 709.84 591.7C711.23 584.16 710.66 559.45 710.2 545.62C710.2 545.04 710.2 544.49 710.14 543.95C726.58 543.74 746.73 543.18 760.88 541.81L760.83 543.48L758.22 639C758.036 645.107 756.783 651.135 754.52 656.81L754.4 657.14C751.299 665.128 749.549 673.577 749.22 682.14L748.01 712.5V713.34C745.9 714.15 742.57 716.5 742.47 723.34C742.33 733.34 759.9 729.99 759.9 729.99C777.47 729.99 777.61 711.71 777.61 711.71C777.61 711.71 778.17 694.95 779 683.71C779.83 672.47 776.35 674.96 776.35 674.96L776.09 706.87C776.095 706.953 776.095 707.037 776.09 707.12V679.12L776.36 675.07V674.95L776.42 674.09L778.59 641.18C778.59 641.18 794.77 586.32 797.28 575.8C799.07 568.33 798.28 545.8 797.74 533.34C797.74 532.773 797.71 532.223 797.65 531.69C802.65 531.24 807.11 531.19 808.87 531.19H809.69C809.69 531.19 808.85 443.09 806.76 409.85C804.67 376.61 801.32 346.27 792.96 337.12C787.9 331.6 780.86 314.54 776.07 301.91C785.64 305.91 796.66 309.91 807.07 312.05C833.56 317.59 829.94 294.6 829.94 294.6L827.25 251.1H827.43C827.333 239.708 826.356 228.341 824.51 217.1C823.11 208.47 820.96 199.56 817.68 192.36C820.56 191.26 823.39 190.04 826.18 188.8C833.38 185.62 841.49 181.12 842.53 173.36H842.18C842.33 172.818 842.444 172.267 842.52 171.71V171.71ZM678.26 234.63C678.32 239.12 678.15 246.91 677.88 255.53L669.52 244.3L677.95 230.62L678.26 234.63ZM794.48 274.41L780.48 269.91C782.972 266.035 785.875 262.441 789.14 259.19C789.39 258.97 789.92 258.46 790.36 258.04L789.92 258.13L790.6 257.52L791 257.43L790.36 258.04L791.12 257.89C791.969 261.41 793.603 264.692 795.9 267.49C800.9 273.01 794.52 274.39 794.52 274.39L794.48 274.41Z" fill="url(#paint0_linear)"/>
<path d="M709.34 678.71L707.69 709.79L697.24 707.17L695.03 694.25L709.34 678.71Z" fill="#171717"/>
<path opacity="0.1" d="M709.34 678.71L707.69 709.79L697.24 707.17L695.03 694.25L709.34 678.71Z" fill="black"/>
<path d="M747.71 713.91L763.66 717.21L775.52 706.81V677.33L775.79 673.33V673.21L775.85 672.35L778 639.68C778 639.68 794 585.22 796.43 574.77C798.19 567.35 797.43 544.98 796.88 532.62C796.64 527.55 796.43 524.16 796.43 524.16L761.22 515.63L760.49 542.71L757.91 637.54C757.739 643.584 756.52 649.552 754.31 655.18C754.31 655.29 754.22 655.4 754.18 655.5C751.123 663.446 749.397 671.842 749.07 680.35L747.88 710.5V711.33L747.71 713.91Z" fill="#FFE0C3"/>
<path opacity="0.1" d="M775.75 672.36V673.19L775.81 672.33L775.75 672.36Z" fill="black"/>
<path opacity="0.1" d="M747.71 713.91L763.66 717.21L775.52 706.81V704.31C775.487 704.864 775.314 705.401 775.019 705.871C774.723 706.341 774.315 706.729 773.83 707L773.66 707.1C768.165 710.008 761.938 711.239 755.75 710.64L749.53 710.11C748.964 710.167 748.409 710.302 747.88 710.51V711.34L747.71 713.91Z" fill="black"/>
<path d="M773.61 707.88L773.79 707.79C774.308 707.498 774.739 707.074 775.039 706.561C775.34 706.048 775.499 705.465 775.5 704.87L775.76 673.18C775.76 673.18 779.2 670.73 778.37 681.87C777.54 693.01 777 709.65 777 709.65C777 709.65 776.86 727.81 759.52 727.81C759.52 727.81 742.19 731.11 742.33 721.21C742.47 711.31 749.52 710.89 749.52 710.89L755.74 711.43C761.916 712.021 768.129 710.787 773.61 707.88V707.88Z" fill="#171717"/>
<path d="M664.64 707.18C665.05 714.32 686.09 710.18 686.09 710.18L700.26 682.68C700.26 682.68 712.09 673.6 706.17 665.62C705.849 665.188 705.555 664.738 705.29 664.27V664.19C705.162 663.98 705.045 663.763 704.94 663.54V663.54C700.7 655.12 702.79 641.3 702.79 641.3C702.79 641.3 708.28 601.15 710.21 590.55C711.57 583.07 711.01 558.55 710.56 544.81C710.38 539.1 710.21 535.27 710.21 535.27L675.28 525.92C675.28 525.92 675.28 530.28 675.28 536.34C675.2 544.95 674.94 557 674.05 564.84C672.54 578.17 677.9 622.32 677.9 622.32L679.75 662.5C680.054 669.309 678.484 676.071 675.21 682.05C670.83 690.05 665.12 701.36 664.72 706.36C664.669 706.63 664.642 706.905 664.64 707.18V707.18Z" fill="#FFE0C3"/>
<path opacity="0.1" d="M664.64 707.18C665.05 714.32 686.09 710.18 686.09 710.18L700.26 682.68C700.26 682.68 712.09 673.6 706.17 665.62C705.849 665.189 705.555 664.738 705.29 664.27C705.1 668.45 700.52 678.81 700.52 678.81C700.52 678.81 688.83 702.2 685.12 707.56C681.41 712.92 665.25 706.56 664.65 706.33C664.62 706.612 664.617 706.897 664.64 707.18V707.18Z" fill="black"/>
<path d="M704.89 663.54C704.89 663.54 711.81 661.93 709.75 679.95C709.823 681.996 709.355 684.024 708.392 685.831C707.43 687.638 706.008 689.159 704.27 690.24C699.27 693.35 691.68 700.04 687.82 713.06C687.822 715.868 686.875 718.595 685.132 720.797C683.39 722.999 680.954 724.547 678.22 725.19C671.98 726.65 664.22 727.93 659.69 726.67C651.3 724.34 655.01 718.56 655.01 718.56L664.64 707.15C664.64 707.15 681.42 713.75 685.13 708.38C688.84 703.01 700.52 679.67 700.52 679.67C700.52 679.67 706.95 665.05 704.89 663.54Z" fill="#171717"/>
<path opacity="0.1" d="M761.18 518.9L760.45 545.98C769.82 545.06 776.54 543.79 777.68 541.98C780.16 538.14 789.17 536.52 796.84 535.86C796.6 530.79 796.39 527.4 796.39 527.4L761.18 518.9Z" fill="black"/>
<path opacity="0.1" d="M675.22 539.64C676.42 537.55 677.77 535.72 679.07 534.99C682.78 532.93 682.38 548.2 682.38 548.2C682.38 548.2 694.71 548.31 710.51 548.11C710.33 542.4 710.16 538.57 710.16 538.57L675.23 529.22C675.23 529.22 675.28 533.58 675.22 539.64Z" fill="black"/>
<path d="M671.24 543.28C671.24 543.28 675.37 532.11 679.07 530.04C682.77 527.97 682.38 543.25 682.38 543.25C682.38 543.25 773.15 544.07 777.68 537.06C782.21 530.05 808.68 530.46 808.68 530.46C808.68 530.46 807.85 442.99 805.79 409.99C803.73 376.99 800.43 346.86 792.17 337.79C786.84 331.91 779.25 312.92 774.56 300.24C772 293.32 770.31 288.24 770.31 288.24L683.67 293.19L682.97 300.19L673.77 392.19C673.77 392.19 672.52 493.74 668.77 516.81C665.02 539.88 671.24 543.28 671.24 543.28Z" fill="#292B2C"/>
<g opacity="0.1">
<path opacity="0.1" d="M770.65 537.06C775.19 530.06 801.65 530.46 801.65 530.46C801.65 530.46 800.82 442.99 798.76 409.99C796.7 376.99 793.4 346.86 785.14 337.79C779.81 331.91 772.22 312.92 767.53 300.24C765.38 294.42 763.84 289.94 763.41 288.66L770.13 288.28C770.13 288.28 771.82 293.28 774.38 300.28C779.08 312.96 786.66 331.95 792 337.83C800.25 346.9 803.55 377.02 805.61 410.03C807.67 443.04 808.5 530.5 808.5 530.5C808.5 530.5 782.1 530.08 777.56 537.1C773.68 543.1 706.89 543.36 687.5 543.31C712.32 543.21 767.15 542.47 770.65 537.06Z" fill="black"/>
<path opacity="0.1" d="M672.04 530.04C673.71 529.11 674.55 531.71 674.96 534.83C673.465 537.552 672.161 540.376 671.06 543.28C671.06 543.28 668.67 541.99 667.76 535.46C669.07 533.07 670.59 530.81 672.04 530.04Z" fill="black"/>
</g>
<path d="M698.01 76.65C692.01 84.83 698.08 96.46 691.64 104.41C689.52 107.03 686.25 108.91 684.04 111.49C679.93 116.27 680.09 122.77 682.11 128.38C684.13 133.99 687.77 139.12 690.28 144.6C691.37 146.97 692.28 149.6 691.11 151.99C690.33 153.63 688.7 154.88 687.43 156.29C683.3 160.91 683.18 167.29 685.43 172.76C687.68 178.23 691.9 182.88 696.09 187.47C697.74 189.28 699.83 191.27 702.58 191.22C704.027 191.112 705.427 190.656 706.66 189.89C716.421 184.735 723.825 176.024 727.34 165.56C730.46 155.77 729.55 145.23 725.57 135.66C722.09 127.31 716.28 119.32 716.23 110.49C716.23 103.49 719.82 96.82 720.46 89.85C721.24 81.39 716.22 67.94 706.01 64.25C706.66 69.68 701.05 72.49 698.01 76.65Z" fill="#36211A"/>
<path opacity="0.1" d="M698.01 76.65C692.01 84.83 698.08 96.46 691.64 104.41C689.52 107.03 686.25 108.91 684.04 111.49C679.93 116.27 680.09 122.77 682.11 128.38C684.13 133.99 687.77 139.12 690.28 144.6C691.37 146.97 692.28 149.6 691.11 151.99C690.33 153.63 688.7 154.88 687.43 156.29C683.3 160.91 683.18 167.29 685.43 172.76C687.68 178.23 691.9 182.88 696.09 187.47C697.74 189.28 699.83 191.27 702.58 191.22C704.027 191.112 705.427 190.656 706.66 189.89C716.421 184.735 723.825 176.024 727.34 165.56C730.46 155.77 729.55 145.23 725.57 135.66C722.09 127.31 716.28 119.32 716.23 110.49C716.23 103.49 719.82 96.82 720.46 89.85C721.24 81.39 716.22 67.94 706.01 64.25C706.66 69.68 701.05 72.49 698.01 76.65Z" fill="black"/>
<path opacity="0.1" d="M764.52 374.07C752.52 374.7 741.21 379.85 730.7 385.7C720.19 391.55 710.02 398.2 698.7 402.3" fill="black"/>
<path opacity="0.1" d="M757.06 402.36C745.184 403.49 734.115 408.87 725.89 417.51C722.97 420.6 720.46 424.06 717.42 427.03C712.759 431.576 706.998 434.836 700.7 436.49" fill="black"/>
<path opacity="0.1" d="M759.52 423.89C749.944 426.545 741.277 431.77 734.46 439C732.62 441 730.94 443.12 729.09 445.1C719.16 455.81 705.12 461.43 691.52 466.81" fill="black"/>
<path d="M758.52 125.31C758.785 134.904 759.614 144.473 761 153.97C762.1 160.74 763.68 166.77 765.95 169.46C772.52 177.29 733.75 187.81 733.75 187.81L710.85 170.06C710.85 170.06 729 153.36 720.54 137.06C712.08 120.76 758.52 125.31 758.52 125.31Z" fill="#FFE0C3"/>
<path opacity="0.1" d="M682.92 300.24H774.52C771.96 293.32 770.27 288.24 770.27 288.24L683.63 293.19L682.92 300.24Z" fill="black"/>
<path d="M677.02 298.59H774.94C772.19 288.75 774.99 279.64 778.86 272.59C781.613 267.68 785.07 263.199 789.12 259.29L789.79 258.68L823.98 251.11L825.82 250.7C825.82 250.7 826.1 188.54 804.09 180.01C782.08 171.48 768.88 159.94 768.88 159.94L738.63 169.29L716.35 158.01C709.2 165.71 690.22 162.68 690.22 162.68C659.14 166.27 659.14 189.68 659.14 189.68C659.14 189.68 677.29 232.04 678.67 232.04C680.05 232.04 677.02 298.59 677.02 298.59Z" fill="#AD8226"/>
<path opacity="0.1" d="M710.83 259.08C710.83 259.08 690.83 254.64 684.06 246.9Z" fill="black"/>
<path opacity="0.1" d="M811.52 235.88L788.35 254.88C788.52 256.38 788.777 257.87 789.12 259.34L789.79 258.73L823.98 251.16L811.52 235.88Z" fill="black"/>
<path opacity="0.1" d="M748.8 291.99C748.8 291.99 753.87 294.84 761.64 298.59H774.94C772.19 288.75 774.99 279.64 778.86 272.59L755.41 265C763.38 272.46 748.8 291.99 748.8 291.99Z" fill="black"/>
<path d="M672.89 182.25L659.14 189.67L645.66 223.81C645.66 223.81 631.66 261.21 633.01 271.12C633.01 271.12 628.01 294.5 636.86 298.62L659.77 308.99C660.174 309.175 660.625 309.228 661.061 309.142C661.496 309.057 661.894 308.837 662.198 308.513C662.501 308.189 662.696 307.778 662.754 307.338C662.812 306.898 662.73 306.451 662.52 306.06C659.26 299.87 655.66 290.19 661.34 284.87L654.74 271.12L678.67 232.06L686.67 218.58L672.89 182.25Z" fill="#AD8226"/>
<path opacity="0.1" d="M703.52 251.26C704.71 256.12 708.73 263.59 722.04 266.41L736.68 278.41L752.22 285.41L758.55 288.28L761.23 268.89L755.13 265.55L748.03 261.67C748.03 261.67 732.03 232.6 706.59 244.87C705.423 245.422 704.482 246.358 703.923 247.521C703.364 248.684 703.222 250.004 703.52 251.26V251.26Z" fill="black"/>
<path d="M704.3 249.61C705.48 254.47 709.5 261.94 722.81 264.76L737.46 276.76L753 283.76L759.33 286.63L762.01 267.24L755.91 263.9L748.8 260.02C748.8 260.02 732.8 230.95 707.37 243.22C706.201 243.769 705.257 244.704 704.698 245.869C704.138 247.033 703.998 248.354 704.3 249.61V249.61Z" fill="#FFE0C3"/>
<path opacity="0.1" d="M732.91 150.48C752.505 150.48 768.39 134.595 768.39 115C768.39 95.405 752.505 79.52 732.91 79.52C713.315 79.52 697.43 95.405 697.43 115C697.43 134.595 713.315 150.48 732.91 150.48Z" fill="black"/>
<path d="M732.91 149.65C752.505 149.65 768.39 133.765 768.39 114.17C768.39 94.5749 752.505 78.69 732.91 78.69C713.315 78.69 697.43 94.5749 697.43 114.17C697.43 133.765 713.315 149.65 732.91 149.65Z" fill="#FFE0C3"/>
<path opacity="0.1" d="M754.89 189.98L744.22 169.24C744.22 169.24 759.84 162.94 760.98 155.62C762.12 148.3 775.93 164.2 772.98 169.46C770.03 174.72 754.89 189.98 754.89 189.98Z" fill="black"/>
<path d="M754.89 188.33L744.22 167.59C744.22 167.59 759.84 161.29 760.98 153.97C762.12 146.65 775.93 162.55 772.98 167.81C770.03 173.07 754.89 188.33 754.89 188.33Z" fill="#AD8226"/>
<path d="M667.58 241.88L726.58 321.15C726.58 321.15 704.8 332.97 674.82 311.81L661.89 296.41L625.03 234.25L667.58 241.88Z" fill="#F6F8FB"/>
<path d="M655.98 284.98L661.34 284.84C661.34 284.84 694.14 253 702.18 269.09C710.22 285.18 681.76 300.24 681.76 300.24L673.1 304.99L661.75 308.29L654.53 298.59L655.98 284.98Z" fill="#FFE0C3"/>
<path opacity="0.1" d="M663.89 302.17C664.38 304 664.89 306.02 664.03 307.72C663.83 308.179 663.476 308.553 663.03 308.78C662.663 308.932 662.265 308.99 661.87 308.95C659.029 308.704 656.385 307.393 654.47 305.28C652.589 303.178 650.976 300.85 649.67 298.35C648.21 295.8 646.67 292.97 647.22 290.08C647.8 286.92 650.63 284.73 653.31 282.95C658.75 279.36 658.88 283.55 660.12 288.18L663.89 302.17Z" fill="black"/>
<path d="M663.07 302.17C663.56 304 664.07 306.02 663.2 307.72C663.001 308.179 662.647 308.555 662.2 308.78C661.833 308.931 661.435 308.989 661.04 308.95C658.198 308.706 655.554 307.395 653.64 305.28C651.755 303.181 650.143 300.852 648.84 298.35C647.37 295.8 645.84 292.97 646.39 290.08C646.96 286.92 649.79 284.73 652.47 282.95C657.91 279.36 658.05 283.55 659.29 288.18L663.07 302.17Z" fill="#AD8226"/>
<path opacity="0.1" d="M678.67 232.03L681.41 227.39L679.01 236.01L678.67 232.03Z" fill="black"/>
<path opacity="0.1" d="M753 283.81L759.33 286.68L762.01 267.29L755.91 263.95C760.12 268.7 756.44 277.62 753 283.81Z" fill="black"/>
<path opacity="0.1" d="M778.38 261.25C778.38 261.25 757.96 262.49 749.29 256.92Z" fill="black"/>
<g opacity="0.1">
<path opacity="0.1" d="M775.84 274.27C778.59 269.358 782.047 264.877 786.1 260.97C787.065 260.359 788.067 259.807 789.1 259.32L820.95 252.81L822.79 252.4C822.79 252.4 823.07 190.24 801.06 181.71C788.722 177.016 777.158 170.5 766.75 162.38L769.16 161.64C769.16 161.64 782.36 173.19 804.36 181.71C826.36 190.23 826.09 252.4 826.09 252.4H822.79L790.18 258.64C790.18 258.64 788.78 260 788.35 260.4C784.265 264.491 780.762 269.124 777.94 274.17C773.628 282.167 772.647 291.543 775.21 300.26H771.91C769.16 290.4 771.96 281.29 775.84 274.27Z" fill="black"/>
<path opacity="0.1" d="M688.91 164.58L690.49 164.36C692.72 164.684 694.967 164.874 697.22 164.93C694.445 165.001 691.669 164.884 688.91 164.58V164.58Z" fill="black"/>
<path opacity="0.1" d="M735.6 170.97L715.45 160.81C715.871 160.482 716.266 160.121 716.63 159.73L737.63 170.37L735.6 170.97Z" fill="black"/>
</g>
<path d="M812.34 234.23L825.82 250.73L828.57 295.57C828.57 295.57 832.14 318.39 806.01 312.89C779.88 307.39 749.63 290.34 749.63 290.34C749.63 290.34 764.21 270.81 756.23 263.39L793.64 275.49C793.64 275.49 799.96 274.11 795.01 268.61C790.06 263.11 789.18 253.21 789.18 253.21L812.34 234.23Z" fill="#AD8226"/>
<path opacity="0.1" d="M818.39 281.54L825.82 290.06C823.91 289.474 822.202 288.366 820.889 286.86C819.576 285.355 818.711 283.512 818.39 281.54V281.54Z" fill="black"/>
<path opacity="0.1" d="M805.74 280.16L817.29 295.02L811.52 296.39L805.74 280.16Z" fill="black"/>
<path opacity="0.1" d="M690.52 97.88C689.25 94.78 690.22 91.19 691.75 88.21C693.28 85.23 695.37 82.51 696.52 79.35C698.22 74.65 697.7 69.35 699.52 64.7C702.78 56.56 712.07 52.92 720.39 50.15C722.85 49.33 725.47 48.51 727.99 49.15C731.32 49.95 733.54 53 736.29 55.05C747.6 63.48 765.97 54.21 776.89 63.12C781.07 66.54 783.11 72 783.74 77.37C784.37 82.74 783.74 88.15 783.67 93.55C783.49 103.01 785.26 113.35 792.34 119.62C794.47 121.51 796.99 122.93 799.06 124.88C801.13 126.83 802.79 129.57 802.42 132.39C802.141 133.69 801.764 134.967 801.29 136.21C799.88 141.14 801.98 146.37 804.54 150.8C812.18 164.02 825.65 174.91 840.92 175.22C839.92 182.92 831.92 187.39 824.79 190.55C815.79 194.55 806.23 198.55 796.35 198.02C786.47 197.49 776.22 191.15 774.52 181.41C773.92 178.08 774 173.98 771.1 172.23C769.35 171.17 767.1 171.43 765.2 170.64C762.47 169.49 761.12 166.45 760.2 163.64C758.357 157.814 757.37 151.75 757.27 145.64C757.15 138.41 758.11 130.51 754.01 124.56C750.21 119.04 743.46 116.25 739.09 111.18C735.09 106.49 730.65 100.82 724.03 99.92C714.91 98.69 695.96 111.14 690.52 97.88Z" fill="black"/>
<path d="M690.52 96.23C689.25 93.13 690.22 89.54 691.75 86.56C693.28 83.58 695.37 80.86 696.52 77.7C698.22 73 697.7 67.7 699.52 63.05C702.78 54.91 712.07 51.27 720.39 48.5C722.85 47.68 725.47 46.86 727.99 47.5C731.32 48.3 733.54 51.35 736.29 53.4C747.6 61.83 765.97 52.56 776.89 61.47C781.07 64.89 783.11 70.35 783.74 75.72C784.37 81.09 783.74 86.5 783.67 91.9C783.49 101.36 785.26 111.7 792.34 117.97C794.47 119.86 796.99 121.28 799.06 123.23C801.13 125.18 802.79 127.92 802.42 130.74C802.141 132.04 801.764 133.317 801.29 134.56C799.88 139.49 801.98 144.72 804.54 149.15C812.18 162.37 825.65 173.26 840.92 173.57C839.92 181.27 831.92 185.74 824.79 188.9C815.79 192.9 806.23 196.9 796.35 196.37C786.47 195.84 776.22 189.5 774.52 179.81C773.92 176.48 774 172.38 771.1 170.63C769.35 169.57 767.1 169.83 765.2 169.04C762.47 167.89 761.12 164.85 760.2 162.04C758.357 156.214 757.37 150.15 757.27 144.04C757.15 136.81 758.11 128.91 754.01 122.96C750.21 117.44 743.46 114.65 739.09 109.58C735.09 104.89 730.65 99.22 724.03 98.32C714.91 97.04 695.96 109.49 690.52 96.23Z" fill="#36211A"/>
<path opacity="0.1" d="M715.7 187.4L736.04 170.9C736.04 170.9 722.11 163.35 720.45 156.9C718.79 150.45 707.65 159.96 708.79 165.73C709.93 171.5 715.7 187.4 715.7 187.4Z" fill="black"/>
<path d="M716.52 184.93L736.86 168.42C736.86 168.42 722.94 160.87 721.28 154.42C719.62 147.97 708.48 157.47 709.61 163.25C710.74 169.03 716.52 184.93 716.52 184.93Z" fill="#AD8226"/>
<path opacity="0.1" d="M737.66 183.87C738.555 183.87 739.28 183.145 739.28 182.25C739.28 181.355 738.555 180.63 737.66 180.63C736.765 180.63 736.04 181.355 736.04 182.25C736.04 183.145 736.765 183.87 737.66 183.87Z" fill="black"/>
<path opacity="0.1" d="M737.66 192.84C738.555 192.84 739.28 192.115 739.28 191.22C739.28 190.325 738.555 189.6 737.66 189.6C736.765 189.6 736.04 190.325 736.04 191.22C736.04 192.115 736.765 192.84 737.66 192.84Z" fill="black"/>
<path opacity="0.1" d="M737.66 201.82C738.555 201.82 739.28 201.095 739.28 200.2C739.28 199.305 738.555 198.58 737.66 198.58C736.765 198.58 736.04 199.305 736.04 200.2C736.04 201.095 736.765 201.82 737.66 201.82Z" fill="black"/>
<g opacity="0.1">
<path opacity="0.1" d="M698.75 73.3C700.35 68.88 700.01 63.93 701.51 59.49C700.818 60.4743 700.241 61.5345 699.79 62.65C697.93 67.29 698.46 72.65 696.79 77.3C696.79 77.4 696.72 77.48 696.68 77.58C697.5 76.2202 698.193 74.7874 698.75 73.3V73.3Z" fill="black"/>
<path opacity="0.1" d="M827.07 184.47C818.07 188.47 808.51 192.47 798.62 191.94C788.73 191.41 778.43 185.1 776.62 175.36C776.03 172.03 776.1 167.93 773.21 166.18C771.46 165.12 769.21 165.38 767.3 164.59C764.57 163.44 763.22 160.4 762.3 157.59C760.449 151.765 759.458 145.701 759.36 139.59C759.24 132.36 760.2 124.46 756.1 118.51C752.3 112.99 745.56 110.2 741.18 105.13C737.18 100.44 732.75 94.77 726.12 93.87C717.03 92.63 698.12 105.08 692.67 91.87C691.811 89.3613 691.936 86.6201 693.02 84.2C692.63 84.86 692.25 85.52 691.9 86.2C690.37 89.2 689.4 92.77 690.67 95.87C696.08 109.13 715.03 96.68 724.12 97.87C730.75 98.77 735.12 104.44 739.18 109.13C743.56 114.2 750.3 116.99 754.1 122.51C758.2 128.46 757.24 136.36 757.36 143.59C757.458 149.701 758.449 155.765 760.3 161.59C761.19 164.41 762.54 167.45 765.3 168.59C767.19 169.38 769.46 169.12 771.21 170.18C774.1 171.93 774.03 176.03 774.62 179.36C776.38 189.1 786.69 195.44 796.62 195.94C806.55 196.44 816.03 192.5 825.07 188.47C831.58 185.57 838.83 181.56 840.78 174.97C837.66 179.27 832.14 182.21 827.07 184.47Z" fill="black"/>
</g>
<path d="M531.77 304.35H632.35C634.45 304.35 636.465 305.184 637.95 306.67C639.436 308.155 640.27 310.169 640.27 312.27V320.52H531.77V304.35Z" fill="#535461"/>
<path opacity="0.1" d="M531.77 304.35H632.35C634.45 304.35 636.465 305.184 637.95 306.67C639.436 308.155 640.27 310.169 640.27 312.27V320.52H531.77V304.35Z" fill="black"/>
<path d="M532.93 297.51L599.43 266.85V276.01L533.93 307.51L532.93 297.51Z" fill="#9D9CB5"/>
<path opacity="0.1" d="M532.93 297.51L599.43 266.85V276.01L533.93 307.51L532.93 297.51Z" fill="black"/>
<path d="M665.77 318.35H533.1V319.68H665.77V318.35Z" fill="#F6F8FB"/>
<path d="M665.77 316.72H533.1V318.05H665.77V316.72Z" fill="#F6F8FB"/>
<path d="M665.77 315.1H533.1V316.43H665.77V315.1Z" fill="#F6F8FB"/>
<path d="M614.68 259.01L509.71 324.31L511.73 327.81L624.18 265.76L614.68 259.01Z" fill="#F6F8FB"/>
<path d="M610.53 261.41L509.71 324.31L511.73 327.81L619.87 268.25L610.53 261.41Z" fill="#F0F4F9"/>
<path opacity="0.03" d="M610.53 261.41L509.71 324.31L511.73 327.81L619.87 268.25L610.53 261.41Z" fill="black"/>
<path d="M665.77 313.47H533.1V314.8H665.77V313.47Z" fill="#F6F8FB"/>
<path d="M665.77 311.85H533.1V313.18H665.77V311.85Z" fill="#F6F8FB"/>
<path d="M665.77 310.22H533.1V311.55H665.77V310.22Z" fill="#F6F8FB"/>
<path d="M665.77 308.6H533.1V309.93H665.77V308.6Z" fill="#F6F8FB"/>
<path d="M608.93 266.85L533.48 302.99L534.43 315.6L547.6 312.43L608.6 276.51L608.93 266.85Z" fill="#9D9CB5"/>
<path d="M535.6 309.68H641.85C643.95 309.68 645.965 310.514 647.45 312C648.936 313.485 649.77 315.499 649.77 317.6V321.52H535.6V309.68Z" fill="#535461"/>
<path d="M416.27 271.35H351.81V299.18H416.27V271.35Z" fill="#535461"/>
<path opacity="0.1" d="M416.26 271.34H351.81V299.18H416.26V271.34Z" fill="black"/>
<path opacity="0.1" d="M365.1 271.34H351.81V295.68H365.1V271.34Z" fill="black"/>
<path d="M277.43 268.01C277.43 268.01 299.1 264.68 319.1 254.85C339.1 245.02 362.6 262.01 363.1 268.01V295.68H277.43V268.01Z" fill="#9D9CB5"/>
<path opacity="0.1" d="M296.1 273.76H284.77V280.51H296.1V273.76Z" fill="black"/>
<path opacity="0.1" d="M296.1 284.43H284.77V291.18H296.1V284.43Z" fill="black"/>
<path d="M277.43 293.51V321.51V718.51H538.43V321.51V293.51H277.43Z" fill="#535461"/>
<path opacity="0.1" d="M518.77 440.51H514.1L509.77 417.51L308.1 419.18L301.77 440.51H298.1L302.77 412.85H515.1L518.77 440.51Z" fill="black"/>
<path d="M518.77 439.51H514.1L509.77 416.51L308.1 418.18L301.77 439.51H298.1L302.77 411.85H515.1L518.77 439.51Z" fill="#9D9CB5"/>
<path opacity="0.1" d="M538.43 321.51H504.43V387.51H538.43V321.51Z" fill="black"/>
<path opacity="0.1" d="M502.48 346.01H313.43L320.13 322.51H498.62L502.48 346.01Z" fill="black"/>
<path d="M500.68 345.01H314.93L321.51 321.51H496.89L500.68 345.01Z" fill="#9D9CB5"/>
<path opacity="0.1" d="M381.77 341.43H321.85L326.6 325.85H379.65L381.77 341.43Z" fill="black"/>
<path d="M380.18 341.01H323.43L327.93 326.26H378.18L380.18 341.01Z" fill="#564EDA"/>
<path opacity="0.5" d="M418.6 330.76C422.836 330.76 426.27 329.305 426.27 327.51C426.27 325.715 422.836 324.26 418.6 324.26C414.364 324.26 410.93 325.715 410.93 327.51C410.93 329.305 414.364 330.76 418.6 330.76Z" fill="#EDEDF0"/>
<path opacity="0.5" d="M442.18 330.76C446.416 330.76 449.85 329.305 449.85 327.51C449.85 325.715 446.416 324.26 442.18 324.26C437.944 324.26 434.51 325.715 434.51 327.51C434.51 329.305 437.944 330.76 442.18 330.76Z" fill="#EDEDF0"/>
<path opacity="0.5" d="M418.6 333.64H447.18L452.02 339.93H420.35L418.6 333.64Z" fill="#EDEDF0"/>
<path opacity="0.5" d="M420.43 342.1L420.35 339.93H452.02L452.52 342.1H420.43Z" fill="#EDEDF0"/>
<path opacity="0.1" d="M420.43 342.1L420.35 339.93H452.02L452.52 342.1H420.43Z" fill="black"/>
<path d="M538.43 557.01V552.76H340.93H336.68H277.43V557.01H336.68V638.26H277.43V642.51H336.68V673.26H277.43V677.51H336.68V718.51H340.93V677.51H538.43V673.26H340.93V642.51H538.43V638.26H340.93V557.01H538.43Z" fill="#535461"/>
<path opacity="0.1" d="M332.77 566.01H313.35V591.51H332.77V566.01Z" fill="black"/>
<path d="M331.43 567.76H314.68V589.76H331.43V567.76Z" fill="#9D9CB5"/>
<path opacity="0.1" d="M460.48 566.01H441.06V591.51H460.48V566.01Z" fill="black"/>
<path d="M459.14 567.76H442.39V589.76H459.14V567.76Z" fill="#9D9CB5"/>
<path opacity="0.1" d="M531.98 566.01H512.56V591.51H531.98V566.01Z" fill="black"/>
<path d="M530.64 567.76H513.89V589.76H530.64V567.76Z" fill="#9D9CB5"/>
<path opacity="0.1" d="M531.98 645.01H512.56V670.51H531.98V645.01Z" fill="black"/>
<path d="M530.64 646.76H513.89V668.76H530.64V646.76Z" fill="#9D9CB5"/>
<path opacity="0.1" d="M531.98 684.43H512.56V709.93H531.98V684.43Z" fill="black"/>
<path d="M530.64 686.18H513.89V708.18H530.64V686.18Z" fill="#9D9CB5"/>
<path opacity="0.1" d="M538.43 557.01V552.81H277.43V557.06H336.68V638.31H277.43V642.56H336.68V673.31H277.43V677.56H336.68V718.56H340.93V677.56H538.43V673.31H340.93V642.51H538.43V638.26H472.84V557.01H538.43ZM468.59 638.26H340.93V557.01H468.59V638.26Z" fill="black"/>
<path d="M180.9 451.27H174.9V586.27H180.9V451.27Z" fill="#535461"/>
<path d="M218.59 585.86L218.21 591.94L217.68 600.52L217.46 604.1L216.93 612.69L216.7 616.27L216.17 624.85L210.17 722.46C209.91 726.66 208.059 730.602 204.993 733.484C201.927 736.366 197.878 737.97 193.67 737.97H162.19C157.983 737.97 153.935 736.366 150.871 733.484C147.807 730.601 145.957 726.659 145.7 722.46L139.64 624.81L139.11 616.23L138.89 612.65L138.35 604.06L138.13 600.48L137.6 591.9L137.22 585.82C137.148 584.653 137.315 583.483 137.712 582.384C138.109 581.284 138.727 580.277 139.528 579.425C140.33 578.573 141.297 577.895 142.37 577.431C143.444 576.968 144.601 576.729 145.77 576.73H210.05C211.222 576.73 212.382 576.971 213.457 577.438C214.532 577.904 215.5 578.587 216.3 579.443C217.101 580.298 217.717 581.31 218.111 582.414C218.505 583.518 218.668 584.691 218.59 585.86V585.86Z" fill="#65617D"/>
<path d="M218.21 591.94L217.68 600.52H138.13L137.6 591.94H218.21Z" fill="#9D9CB5"/>
<path d="M217.46 604.1L216.93 612.69H138.89L138.35 604.1H217.46Z" fill="#9D9CB5"/>
<path d="M216.7 616.27L216.17 624.85H139.64L139.11 616.27H216.7Z" fill="#9D9CB5"/>
<path d="M128.44 501.87C163.36 527.13 177.9 566.65 177.9 566.65C177.9 566.65 135.82 565.2 100.9 539.94C65.98 514.68 51.44 475.17 51.44 475.17C51.44 475.17 93.52 476.61 128.44 501.87Z" fill="#A6C7A7"/>
<path d="M51.44 475.17C51.44 475.17 95.11 499.41 109.13 519.48C123.15 539.55 177.9 566.65 177.9 566.65" stroke="#535461" stroke-width="2" stroke-miterlimit="10"/>
<path d="M150.98 450.97C169.98 464.72 177.9 486.23 177.9 486.23C177.9 486.23 155 485.44 135.99 471.69C116.98 457.94 109.07 436.44 109.07 436.44C109.07 436.44 131.97 437.22 150.98 450.97Z" fill="#A6C7A7"/>
<path d="M109.07 436.44C109.07 436.44 132.84 449.63 140.47 460.56C148.1 471.49 177.9 486.23 177.9 486.23" stroke="#535461" stroke-width="2" stroke-miterlimit="10"/>
<path d="M205.52 485.13C183.69 509.13 179.07 540.48 179.07 540.48C179.07 540.48 209.85 532.93 231.68 508.94C253.51 484.95 258.14 453.59 258.14 453.59C258.14 453.59 227.36 461.14 205.52 485.13Z" fill="#A6C7A7"/>
<path d="M258.14 453.59C258.14 453.59 229.7 478.18 222.52 495.13C215.34 512.08 179.12 540.48 179.12 540.48" stroke="#535461" stroke-width="2" stroke-miterlimit="10"/>
</g>
<defs>
<linearGradient id="paint0_linear" x1="733.01" y1="730.51" x2="733.01" y2="44.51" gradientUnits="userSpaceOnUse">
<stop stop-color="#808080" stop-opacity="0.25"/>
<stop offset="0.54" stop-color="#808080" stop-opacity="0.12"/>
<stop offset="1" stop-color="#808080" stop-opacity="0.1"/>
</linearGradient>
<clipPath id="clip0">
<rect width="941.04" height="793.62" fill="white"/>
</clipPath>
</defs>
</svg>
