<?xml version="1.0" standalone="no"?>
<!DOCTYPE svg PUBLIC "-//W3C//DTD SVG 20010904//EN"
 "http://www.w3.org/TR/2001/REC-SVG-20010904/DTD/svg10.dtd">
<svg version="1.0" xmlns="http://www.w3.org/2000/svg"
 width="781.000000pt" height="781.000000pt" viewBox="0 0 781.000000 781.000000"
 preserveAspectRatio="xMidYMid meet">
<metadata>
Created by potrace 1.14, written by Peter Selinger 2001-2017
</metadata>
<g transform="translate(0.000000,781.000000) scale(0.100000,-0.100000)"
fill="#000000" stroke="none">
<path d="M1078 6733 c-3 -7 -2 -575 1 -595 1 -4 20 2 44 12 23 11 49 20 58 20
15 0 17 22 15 220 0 121 1 221 4 221 3 1 1221 3 2708 4 l2702 1 0 -263 c0
-202 3 -265 13 -268 6 -2 33 -6 59 -8 41 -3 47 -1 50 17 2 12 3 161 3 331 l-1
310 -2826 3 c-1555 1 -2828 -1 -2830 -5z"/>
<path d="M2927 6224 c-1 -1 -85 -5 -187 -8 -102 -4 -203 -9 -225 -11 -140 -12
-178 -16 -250 -25 -88 -12 -86 -12 -200 -30 -44 -7 -88 -14 -97 -16 -10 -2
-26 -6 -37 -8 -10 -2 -35 -7 -56 -10 -20 -4 -40 -8 -44 -10 -3 -2 -22 -7 -41
-10 -19 -3 -69 -15 -110 -26 -41 -12 -82 -22 -90 -24 -228 -55 -569 -194 -795
-323 -22 -12 -47 -26 -55 -29 -8 -4 -60 -37 -115 -73 -197 -130 -387 -298
-470 -415 -11 -15 -26 -34 -33 -42 -7 -8 -10 -14 -6 -14 4 0 0 -8 -8 -17 -12
-15 -24 -37 -33 -63 -1 -3 -7 -18 -15 -35 -52 -122 -73 -347 -43 -462 21 -85
36 -92 26 -13 -25 212 14 378 135 565 24 39 48 72 53 73 5 2 9 8 9 14 0 11
163 176 227 230 163 138 491 319 763 421 52 19 104 38 115 43 11 4 22 8 25 9
3 0 50 15 105 32 190 59 518 132 670 148 33 3 74 8 90 10 179 24 275 29 570
29 260 0 388 -5 495 -18 19 -3 60 -8 90 -11 76 -9 175 -25 315 -51 120 -22
336 -85 458 -133 133 -53 290 -140 256 -142 -8 0 -23 -2 -34 -4 -11 -3 -42 -7
-70 -10 -27 -3 -57 -7 -65 -10 -8 -2 -35 -6 -60 -9 -25 -3 -56 -8 -70 -11 -13
-2 -40 -7 -60 -10 -20 -3 -47 -8 -60 -10 -14 -3 -38 -8 -55 -11 -51 -9 -165
-34 -275 -60 -58 -14 -112 -27 -120 -29 -38 -9 -227 -67 -245 -75 -11 -5 -57
-23 -102 -39 -206 -75 -378 -189 -404 -268 -19 -60 22 -98 138 -128 32 -9 76
-18 98 -20 53 -7 106 -14 130 -19 11 -2 54 -9 95 -16 109 -17 108 -17 190 -39
328 -88 465 -207 483 -418 5 -56 9 -46 -112 -279 -47 -88 -70 -123 -90 -131
-14 -7 -51 -23 -81 -36 -30 -13 -59 -25 -65 -27 -5 -1 -17 -5 -25 -7 -8 -2
-37 -13 -65 -23 -80 -30 -139 -48 -325 -102 -96 -27 -196 -56 -222 -64 -109
-32 -148 -42 -148 -38 0 6 92 168 99 174 4 3 19 30 35 60 16 30 33 60 37 65 4
6 45 71 90 145 44 74 117 185 160 247 132 185 161 276 108 340 -91 112 -226
119 -304 17 -14 -18 -25 -35 -25 -37 0 -2 -65 -116 -145 -252 -80 -137 -145
-249 -145 -251 0 -1 -20 -37 -45 -78 -25 -42 -45 -81 -45 -86 0 -6 -4 -10 -9
-10 -5 0 -11 -6 -13 -13 -2 -7 -65 -121 -141 -253 l-138 -241 -67 -12 c-37 -7
-70 -12 -74 -12 -4 -1 -34 -7 -65 -14 -32 -7 -76 -16 -98 -19 -22 -3 -64 -11
-94 -17 -65 -13 -197 -16 -266 -6 -66 10 -70 11 -215 42 -217 45 -364 63 -500
60 -138 -3 -138 -3 -193 -29 -53 -26 -71 -56 -64 -108 7 -54 63 -110 140 -142
51 -21 71 -23 170 -20 62 2 123 5 137 8 13 3 40 8 60 11 20 3 47 7 60 10 13 3
42 7 64 11 22 3 43 7 46 9 3 2 30 6 60 10 30 3 66 8 80 10 14 2 45 6 70 10 68
9 189 7 245 -4 77 -16 84 -18 175 -41 47 -11 92 -23 100 -25 8 -2 20 -4 25 -4
6 -1 16 -5 24 -10 14 -9 13 -11 -72 -161 -11 -19 -55 -98 -97 -175 -43 -77
-88 -158 -100 -180 -73 -127 -128 -242 -125 -265 11 -87 42 -155 98 -214 37
-39 38 -39 55 -20 27 28 301 454 320 495 2 4 41 69 87 145 46 77 94 158 106
180 12 23 31 54 44 69 l22 28 119 -37 c65 -21 198 -65 294 -98 96 -33 199 -67
228 -76 60 -19 60 -18 6 -116 -18 -33 -51 -95 -72 -136 -110 -211 -150 -287
-160 -305 -6 -11 -43 -86 -82 -168 -126 -264 -179 -414 -152 -431 53 -33 405
278 668 589 77 92 176 222 234 308 28 43 57 76 63 74 7 -3 66 -26 132 -52 66
-26 134 -53 150 -60 17 -7 89 -37 160 -65 72 -29 154 -63 183 -76 29 -13 55
-24 57 -24 3 0 39 -16 81 -35 41 -19 78 -35 80 -35 12 0 293 -144 391 -201
110 -63 265 -167 271 -181 2 -5 10 -8 17 -8 7 0 15 -3 17 -7 2 -5 35 -33 73
-64 169 -135 327 -322 387 -457 31 -69 35 -73 63 -70 28 3 30 6 29 43 -1 88
-177 293 -424 495 -30 25 -56 48 -58 53 -2 4 -10 7 -17 7 -7 0 -15 3 -17 8 -5
12 -137 106 -227 162 -151 93 -250 147 -511 278 -107 53 -196 100 -198 105 -2
4 -11 7 -21 7 -9 0 -21 4 -27 9 -5 5 -52 28 -104 51 -52 23 -113 50 -135 60
-132 60 -296 130 -306 130 -13 0 -5 29 26 90 69 137 87 268 49 346 -10 21 -38
53 -62 71 -24 18 -39 33 -33 33 6 0 11 5 11 10 0 6 15 34 33 63 l34 52 114 -1
c182 -2 255 -22 323 -89 l43 -42 44 22 c107 52 143 87 148 143 4 45 -22 80
-75 104 -48 21 -66 21 -391 14 -73 -2 -133 0 -133 3 0 4 20 40 45 80 25 40 45
74 45 76 0 1 18 29 39 62 30 44 49 62 78 72 58 21 309 147 383 193 418 258
626 567 615 912 -4 132 -19 195 -72 299 -13 27 -22 51 -20 54 22 21 1154 20
1442 -2 33 -3 96 -7 140 -10 102 -6 213 -15 245 -20 14 -2 50 -6 80 -10 30 -3
66 -8 80 -11 14 -2 36 -6 50 -9 72 -13 90 -18 153 -42 38 -14 87 -40 110 -57
46 -35 93 -105 101 -151 8 -48 16 -89 22 -107 6 -20 38 -31 92 -30 240 3 436
191 368 353 -46 109 -299 226 -614 284 -15 3 -36 7 -47 9 -33 6 -98 16 -139
21 -22 3 -51 7 -65 10 -87 14 -263 30 -446 41 -391 23 -1142 17 -1475 -11
-278 -24 -322 -24 -344 -2 -15 14 -60 44 -141 95 -112 68 -411 177 -575 208
-8 2 -31 6 -50 10 -19 4 -42 9 -50 10 -8 1 -28 5 -45 8 -16 3 -50 8 -75 12
-25 3 -52 7 -62 10 -9 3 -45 7 -80 10 -34 3 -83 7 -108 9 -128 11 -545 25
-553 19z m1737 -727 c14 -34 31 -82 37 -107 15 -59 19 -194 7 -261 -38 -216
-191 -442 -418 -620 -30 -24 -57 -46 -60 -49 -10 -11 -60 -40 -60 -35 0 3 23
39 50 81 28 41 50 77 50 79 0 2 24 40 53 84 55 85 83 129 160 256 46 77 48 82
44 141 -7 89 -52 150 -141 186 -76 31 -51 63 -238 -302 -44 -85 -84 -160 -89
-167 -6 -6 -12 -18 -13 -25 -1 -7 -11 -29 -21 -48 -11 -19 -25 -48 -32 -64
-15 -34 -19 -32 -26 9 -24 148 -123 271 -272 339 -84 38 -306 101 -395 111 -8
1 -28 5 -45 8 -16 4 -46 9 -65 12 -38 6 -131 22 -169 30 -36 7 -73 34 -65 48
18 31 44 51 104 79 35 17 69 31 75 33 5 1 17 5 25 8 21 8 151 46 175 50 11 2
27 7 35 10 13 5 125 30 190 42 14 3 36 7 50 10 14 2 39 7 55 10 17 3 53 10 80
16 28 5 66 11 85 14 19 2 48 7 65 11 16 4 46 8 65 10 19 2 64 7 100 13 36 5
92 12 125 16 33 3 78 8 100 10 77 9 151 16 230 21 43 3 81 7 83 8 2 2 12 2 22
-1 11 -3 28 -29 44 -66z m-1056 -1594 c-23 -43 -43 -80 -45 -83 -2 -2 -49 -5
-104 -6 -55 -1 -102 -4 -105 -7 -3 -2 -20 -1 -39 3 -19 4 -37 5 -40 2 -5 -5
-49 -7 -246 -11 -48 -1 -71 -15 -102 -61 -30 -43 -22 -69 27 -90 23 -11 61
-22 82 -25 21 -3 49 -8 61 -10 22 -5 80 -13 143 -20 42 -4 184 -27 188 -30 3
-2 -50 -107 -58 -115 -3 -3 -11 -16 -18 -30 -7 -14 -30 -56 -52 -95 -23 -38
-45 -82 -51 -97 -17 -43 -39 -43 -144 2 -11 5 -147 50 -302 101 l-281 91 51
87 c27 47 71 120 96 161 53 85 23 71 266 125 66 15 134 31 150 36 17 4 41 10
55 13 80 16 459 122 468 131 3 3 13 5 23 5 15 0 11 -12 -23 -77z m-126 -239
c-11 -39 -15 -44 -30 -40 -9 3 -37 10 -62 16 -25 6 -52 13 -60 15 -8 2 -23 4
-32 4 -10 1 -18 4 -18 9 0 4 46 7 102 6 57 0 102 -5 100 -10z m-1224 -59 c-6
-14 -15 -25 -20 -25 -4 0 -8 -8 -8 -19 0 -27 -26 -45 -52 -37 -13 4 -36 9 -53
12 -16 3 -35 10 -41 15 -6 5 -14 6 -17 3 -3 -3 -11 -3 -18 2 -8 4 31 20 97 40
60 17 112 32 116 33 4 1 2 -10 -4 -24z m1390 -125 c38 -24 51 -52 57 -128 5
-74 -10 -140 -53 -235 -26 -58 -39 -77 -51 -73 -37 11 -191 72 -196 77 -3 4
12 37 32 75 132 242 167 304 172 304 3 0 21 -9 39 -20z m-272 -449 c5 -5 43
-21 84 -36 111 -39 109 -34 59 -101 -63 -87 -168 -216 -244 -299 -16 -18 -68
-75 -115 -126 -150 -164 -270 -283 -270 -266 0 9 5 19 10 22 6 3 18 23 28 43
28 57 103 193 129 234 13 21 23 40 23 42 0 5 239 439 261 474 15 24 20 26 35
13z"/>
<path d="M1129 5555 c-26 -13 -48 -30 -51 -37 -7 -23 -3 -1527 5 -1534 4 -4
27 -8 51 -9 24 -1 48 -5 54 -9 7 -4 10 243 10 804 0 604 -3 810 -11 810 -7 -1
-33 -12 -58 -25z"/>
<path d="M6608 3259 l-3 -2054 -2703 -1 -2702 0 0 30 c-1 17 -1 468 -1 1002
l-1 972 -26 -4 c-15 -2 -43 -6 -62 -8 l-34 -3 -1 -1044 c-1 -574 1 -1050 3
-1056 6 -19 5652 -19 5653 0 5 61 2 4200 -3 4203 -3 2 -31 7 -62 10 l-56 6 -2
-2053z"/>
</g>
</svg>
