<svg xmlns="http://www.w3.org/2000/svg" viewBox="0 0 827.42805 553.8768"><defs><style>.cls-1{fill:#fff;}.cls-2{fill:#ad8226;}</style></defs><g id="Layer_2" data-name="Layer 2"><g id="Layer_1-2" data-name="Layer 1"><path class="cls-1" d="M75.63785,468.664a15.833,15.833,0,0,1-6.16625,1.07455,20.7186,20.7186,0,0,1-6.78915-1.13118A14.81811,14.81811,0,0,1,56.856,464.874a18.71961,18.71961,0,0,1-4.07377-6.78846,30.24971,30.24971,0,0,1-1.52758-10.29665v-7.35474q0-7.46663-4.75192-10.69166-4.75158-3.22572-12.559-3.225H24.89218v39.94075c0,.30248.22582.45165.67885.45165H36.8856c.07389,0,.11325.15193.11325.453,0,.30248-.03936.453-.11325.453H.22651c-.15262,0-.22651-.15055-.22651-.453,0-.30109.07389-.453.22651-.453h9.95688c.45233,0,.67884-.14917.67884-.45165v-77.5045c0-.30109-.22651-.453-.67884-.453H.22651c-.15262,0-.22651-.15055-.22651-.453,0-.29971.07389-.453.22651-.453H35.18813a39.15389,39.15389,0,0,1,11.3712,1.52758,26.33171,26.33171,0,0,1,8.48592,4.18633,18.934,18.934,0,0,1,5.31821,6.22356,16.45648,16.45648,0,0,1,1.86665,7.75115,15.3924,15.3924,0,0,1-1.81071,7.35336,19.47529,19.47529,0,0,1-4.92181,5.94042,23.55044,23.55044,0,0,1-7.46731,4.01645,29.31877,29.31877,0,0,1-9.44791,1.47095,39.4029,39.4029,0,0,1,12.27655,1.69746,24.04309,24.04309,0,0,1,8.48592,4.63936A17.45706,17.45706,0,0,1,64.21,439.35964a24.145,24.145,0,0,1,1.52758,8.65581v10.18338a12.98135,12.98135,0,0,0,1.81,7.12823,5.71933,5.71933,0,0,0,5.09169,2.82865,8.29554,8.29554,0,0,0,3.96051-.906,12.30631,12.30631,0,0,0,2.94121-2.14911c.07458-.07458.20718,0,.3964.22651.18715.22513.20648.37706.05662.45165A13.54443,13.54443,0,0,1,75.63785,468.664Zm-31.3982-75.86367q-3.9612-4.2989-11.99341-4.29959H25.571c-.453,0-.67885.15193-.67885.453v36.65909H33.9437a25.11707,25.11707,0,0,0,6.90172-.7928,8.62,8.62,0,0,0,4.35622-2.772,12.03383,12.03383,0,0,0,2.31968-5.43077,47.48927,47.48927,0,0,0,.67884-8.88232Q48.20016,397.10059,44.23965,392.80031Z"/><path class="cls-1" d="M184.36928,444.11225a42.931,42.931,0,0,1-7.92034,13.35042,37.41037,37.41037,0,0,1-11.76759,8.99557,33.11238,33.11238,0,0,1-28.73875,0,36.735,36.735,0,0,1-11.71027-8.99557,44.358,44.358,0,0,1-7.92033-13.35042,45.06371,45.06371,0,0,1-2.9419-16.35032,46.86264,46.86264,0,0,1,2.772-16.12381,43.092,43.092,0,0,1,7.69383-13.407,37.188,37.188,0,0,1,11.65433-9.16546,33.58451,33.58451,0,0,1,29.19108-.11188,37.42662,37.42662,0,0,1,11.76759,8.9942,42.81071,42.81071,0,0,1,7.92034,13.40842,47.92639,47.92639,0,0,1,0,32.75589ZM170.05619,403.945q-2.03655-8.88164-6.33613-13.06865a14.52126,14.52126,0,0,0-6.05368-3.39355,28.28937,28.28937,0,0,0-7.41068-.906,27.80868,27.80868,0,0,0-7.29812.906,13.67546,13.67546,0,0,0-5.93973,3.39355q-4.302,4.187-6.39276,13.06865-2.09559,8.8837-2.09317,23.81694,0,8.48592.509,14.53961a64.47273,64.47273,0,0,0,1.58421,10.29664,29.13851,29.13851,0,0,0,2.65876,7.0716,20.259,20.259,0,0,0,3.734,4.86449,14.152,14.152,0,0,0,5.93973,3.45155,26.3348,26.3348,0,0,0,7.29812.9613,26.7876,26.7876,0,0,0,7.41068-.9613,15.04593,15.04593,0,0,0,6.05368-3.45155,20.38328,20.38328,0,0,0,3.734-4.86449,27.846,27.846,0,0,0,2.60213-7.0716,70.08626,70.08626,0,0,0,1.52757-10.29664q.50862-6.05161.509-14.53961Q172.09273,412.82663,170.05619,403.945Z"/><path class="cls-1" d="M284.84268,452.59818a26.42246,26.42246,0,0,1-5.20426,8.37267,28.03392,28.03392,0,0,1-8.54255,6.27881,26.48907,26.48907,0,0,1-11.76759,2.48887,20.792,20.792,0,0,1-5.65729-.73478q-2.6042-.73755-4.9218-1.58421-2.32038-.84942-4.35622-1.5842a11.65761,11.65761,0,0,0-3.95982-.73479,6.71524,6.71524,0,0,0-4.243,1.35769,4.634,4.634,0,0,0-1.97991,2.9419.45923.45923,0,0,1-.453.22513c-.22582,0-.33908-.076-.33908-.22513V443.26283c0-.15055.11326-.22651.33908-.22651.30109,0,.453.076.453.22651a20.97,20.97,0,0,0,1.81,7.80777,32.41087,32.41087,0,0,0,5.14832,8.4293,30.25339,30.25339,0,0,0,7.92033,6.73183,19.48574,19.48574,0,0,0,10.12607,2.71539,25.60644,25.60644,0,0,0,8.65581-1.3577,20.33938,20.33938,0,0,0,6.33613-3.50817,14.43866,14.43866,0,0,0,3.84726-4.92112,12.86,12.86,0,0,0,1.30106-5.4874,13.79784,13.79784,0,0,0-5.82717-12.05073,34.986,34.986,0,0,0-7.63719-4.29959q-4.64074-1.97853-11.20131-4.35622a60.97659,60.97659,0,0,1-7.468-3.33691,23.71327,23.71327,0,0,1-6.053-4.52611,19.49481,19.49481,0,0,1-4.01645-6.33682,23.55554,23.55554,0,0,1-1.471-8.76768,25.68693,25.68693,0,0,1,6.44939-17.19836,22.46892,22.46892,0,0,1,6.84509-5.20564,18.81059,18.81059,0,0,1,12.38912-1.46957,31.41843,31.41843,0,0,1,3.62074,1.07455q1.6978.62361,3.39423,1.07456a13.96983,13.96983,0,0,0,3.62075.453q2.60213,0,3.50748-.906a4.00867,4.00867,0,0,0,1.13187-1.80933c0-.15055.14986-.22652.45234-.22652.3004,0,.45233.076.45233.22652v20.02562c0,.15331-.15193.22651-.45233.22651-.30248,0-.45234-.0732-.45234-.22651a17.68321,17.68321,0,0,0-1.64083-7.57988,21.05093,21.05093,0,0,0-4.35622-6.16693,20.58176,20.58176,0,0,0-6.22287-4.18634,17.70915,17.70915,0,0,0-7.12823-1.52757,16.636,16.636,0,0,0-6.22287,1.13118,15.26238,15.26238,0,0,0-4.86519,3.05515,13.75142,13.75142,0,0,0-4.29959,10.07013,13.38279,13.38279,0,0,0,5.03507,10.46652q5.03334,4.35692,15.78335,8.20279a104.54826,104.54826,0,0,1,9.84431,4.01645,30.64294,30.64294,0,0,1,7.52393,4.9225,20.14574,20.14574,0,0,1,4.80856,6.50532,21.09083,21.09083,0,0,1,1.69746,8.88232A24.5317,24.5317,0,0,1,284.84268,452.59818Z"/><path class="cls-1" d="M381.69465,452.59818a26.42264,26.42264,0,0,1-5.20426,8.37267,28.034,28.034,0,0,1-8.54256,6.27881,26.48907,26.48907,0,0,1-11.76759,2.48887,20.79189,20.79189,0,0,1-5.65728-.73478q-2.6042-.73755-4.92181-1.58421-2.32037-.84942-4.35622-1.5842a11.65753,11.65753,0,0,0-3.95982-.73479,6.71519,6.71519,0,0,0-4.243,1.35769,4.634,4.634,0,0,0-1.97991,2.9419.45924.45924,0,0,1-.453.22513c-.22582,0-.33907-.076-.33907-.22513V443.26283c0-.15055.11325-.22651.33907-.22651.3011,0,.453.076.453.22651a20.97,20.97,0,0,0,1.81,7.80777,32.41087,32.41087,0,0,0,5.14832,8.4293,30.25323,30.25323,0,0,0,7.92033,6.73183,19.48571,19.48571,0,0,0,10.12607,2.71539,25.60644,25.60644,0,0,0,8.65581-1.3577,20.33938,20.33938,0,0,0,6.33613-3.50817,14.43851,14.43851,0,0,0,3.84725-4.92112,12.85983,12.85983,0,0,0,1.30107-5.4874,13.79784,13.79784,0,0,0-5.82717-12.05073,34.98624,34.98624,0,0,0-7.63719-4.29959q-4.64074-1.97853-11.20131-4.35622a60.97592,60.97592,0,0,1-7.468-3.33691,23.71327,23.71327,0,0,1-6.053-4.52611,19.49481,19.49481,0,0,1-4.01645-6.33682,23.55534,23.55534,0,0,1-1.471-8.76768,25.687,25.687,0,0,1,6.44938-17.19836,22.46916,22.46916,0,0,1,6.84509-5.20564,18.81059,18.81059,0,0,1,12.38912-1.46957,31.418,31.418,0,0,1,3.62075,1.07455q1.69781.62361,3.39423,1.07456a13.96975,13.96975,0,0,0,3.62074.453q2.60214,0,3.50749-.906a4.00884,4.00884,0,0,0,1.13187-1.80933c0-.15055.14986-.22652.45234-.22652.3004,0,.45233.076.45233.22652v20.02562c0,.15331-.15193.22651-.45233.22651-.30248,0-.45234-.0732-.45234-.22651a17.68321,17.68321,0,0,0-1.64083-7.57988,21.05093,21.05093,0,0,0-4.35622-6.16693,20.58188,20.58188,0,0,0-6.22287-4.18634,17.7092,17.7092,0,0,0-7.12824-1.52757,16.636,16.636,0,0,0-6.22287,1.13118,15.26233,15.26233,0,0,0-4.86518,3.05515,13.75142,13.75142,0,0,0-4.29959,10.07013,13.38279,13.38279,0,0,0,5.03507,10.46652q5.03332,4.35692,15.78335,8.20279a104.54691,104.54691,0,0,1,9.8443,4.01645,30.64281,30.64281,0,0,1,7.52394,4.9225,20.14586,20.14586,0,0,1,4.80855,6.50532,21.09083,21.09083,0,0,1,1.69746,8.88232A24.53168,24.53168,0,0,1,381.69465,452.59818Z"/><path class="cls-1" d="M487.09055,467.81594H425.2002c-.15262,0-.22651-.15055-.22651-.453,0-.30109.07389-.453.22651-.453h9.95687c.45234,0,.67885-.14917.67885-.45165v-77.5045c0-.30109-.22651-.453-.67885-.453H425.2002c-.15262,0-.22651-.15055-.22651-.453,0-.29971.07389-.453.22651-.453h35.41465c.14986,0,.22582.15331.22582.453,0,.30248-.076.453-.22582.453H450.54472c-.37844,0-.56559.15193-.56559.453v77.5045c0,.30248.18715.45165.56559.45165H462.764a24.32567,24.32567,0,0,0,10.97549-2.26236,22.06928,22.06928,0,0,0,7.41068-5.82717,22.80214,22.80214,0,0,0,4.187-7.97627,30.74351,30.74351,0,0,0,1.30106-8.71244c0-.15055.11326-.22651.33908-.22651.3004,0,.453.076.453.22651v25.34452A.30031.30031,0,0,1,487.09055,467.81594Z"/><path class="cls-1" d="M565.38577,467.81594c-.15193,0-.22651-.15055-.22651-.453,0-.30109.07458-.453.22651-.453h10.52246c.37637,0,.56559-.14917.56559-.45165l-9.278-26.024H541.39894l-7.92033,21.72446a35.91861,35.91861,0,0,0-1.30107,3.9032c-.11325.56628.018.848.39571.848h10.07013c.15055,0,.22651.15193.22651.453,0,.30248-.076.453-.22651.453h-21.3847c-.14985,0-.22582-.15055-.22582-.453,0-.30109.076-.453.22582-.453h8.48593a1.27469,1.27469,0,0,0,1.1885-.73479q.39466-.73546,1.64014-4.01645l27.49431-76.1468a.56558.56558,0,0,1,.90536,0l30.54947,80.44639a.91006.91006,0,0,0,.90536.45165h9.6171c.15055,0,.22651.15193.22651.453,0,.30248-.076.453-.22651.453Zm-10.97549-63.70106-12.78482,35.41464h25.23126Z"/><path class="cls-1" d="M702.85664,388.50072c-.45233,0-.67885.15193-.67885.453v80.33315c0,.15054-.15193.24308-.45233.28314a.65483.65483,0,0,1-.67885-.28314l-52.613-79.76825V466.5715c0,.30248.18715.45164.56559.45164h10.07013c.14986,0,.22652.15193.22652.453,0,.30248-.07666.453-.22652.453h-22.29c-.15193,0-.22582-.15054-.22582-.453,0-.3011.07389-.453.22582-.453h9.95687c.453,0,.67885-.14916.67885-.45164V388.95374c0-.30109-.22582-.453-.67885-.453h-9.95687c-.15193,0-.22582-.15055-.22582-.453,0-.29971.07389-.453.22582-.453h25.68429a1.96805,1.96805,0,0,1,1.13118.3964,6.07226,6.07226,0,0,1,1.35838,1.64083l36.20606,55.44165V388.95374c0-.30109-.22582-.453-.67885-.453h-9.95687c-.15193,0-.22582-.15055-.22582-.453,0-.29971.07389-.453.22582-.453h22.29c.14986,0,.22651.15331.22651.453,0,.30248-.07665.453-.22651.453Z"/><path class="cls-1" d="M824.48615,443.31946a41.7113,41.7113,0,0,1-7.92033,12.72889,37.22026,37.22026,0,0,1-11.71027,8.59918,33.1909,33.1909,0,0,1-14.3131,3.16841H754.22314c-.15262,0-.22651-.15055-.22651-.453,0-.30109.07389-.453.22651-.453h9.84362c.52691,0,.7921-.14917.7921-.45165v-77.5045c0-.30109-.26519-.453-.7921-.453h-9.84362c-.15262,0-.22651-.15055-.22651-.453,0-.29971.07389-.453.22651-.453h36.31931a33.23086,33.23086,0,0,1,14.3131,3.16841,37.28417,37.28417,0,0,1,11.71027,8.59918,42.57361,42.57361,0,0,1,7.92033,43.9572Zm-14.31309-38.24329q-2.09455-8.42791-6.39207-12.38912a14.21762,14.21762,0,0,0-5.997-3.28166,28.0706,28.0706,0,0,0-7.24149-.90467H779.56766c-.453,0-.67885.15193-.67885.453v77.5045c0,.30248.22582.45165.67885.45165h10.97479a27.95108,27.95108,0,0,0,7.24149-.90467,14.82172,14.82172,0,0,0,5.997-3.16841,21.87019,21.87019,0,0,0,3.73331-4.69461,26.38358,26.38358,0,0,0,2.65876-6.73321,59.62038,59.62038,0,0,0,1.5842-9.787q.50966-5.71184.50966-13.86007Q812.26692,413.50616,810.17306,405.07617Z"/><path class="cls-1" d="M155.60912,516.68044c-.18922,0-.28314-.047-.28314-.14088a15.15755,15.15755,0,0,0-.81282-4.87968,13.03509,13.03509,0,0,0-2.43984-4.3134,12.15242,12.15242,0,0,0-4.06617-3.07725,13.24117,13.24117,0,0,0-5.76364-1.16571h-7.56606q-.42471,0-.42471.28175v23.26586h2.051a10.09744,10.09744,0,0,0,3.85416-.70716,9.172,9.172,0,0,0,2.96952-1.90878,8.43531,8.43531,0,0,0,1.90948-2.79412,8.72875,8.72875,0,0,0,.67194-3.42945c0-.09392.07044-.14088.212-.14088.18784,0,.28314.047.28314.14088v18.24529c0,.0953-.0953.14088-.28314.14088-.14157,0-.212-.04558-.212-.14088a8.82255,8.82255,0,0,0-.67194-3.39492,8.35568,8.35568,0,0,0-1.90948-2.82864,9.19482,9.19482,0,0,0-2.96952-1.90878,10.12378,10.12378,0,0,0-3.85416-.70716h-2.051v24.60835c0,.18922.14157.28314.42471.28314h6.29331c.09392,0,.14157.0953.14157.28314,0,.18922-.04765.28314-.14157.28314h-22.134c-.0953,0-.14157-.09392-.14157-.28314,0-.18784.04627-.28314.14157-.28314h6.22287c.28314,0,.42472-.09392.42472-.28314V503.38527q0-.28175-.42472-.28175h-6.22287c-.0953,0-.14157-.09392-.14157-.28314,0-.18784.04627-.28315.14157-.28315h36.84278a.18791.18791,0,0,1,.2127.21271v13.78962C155.89226,516.63348,155.797,516.68044,155.60912,516.68044Z"/><path class="cls-1" d="M227.9874,537.85934a26.82576,26.82576,0,0,1-4.95012,8.34505,23.34953,23.34953,0,0,1-7.35475,5.62137,20.68686,20.68686,0,0,1-17.96146,0,22.93729,22.93729,0,0,1-7.31952-5.62137,27.74565,27.74565,0,0,1-4.95012-8.34505,28.15945,28.15945,0,0,1-1.83834-10.21791,29.28111,29.28111,0,0,1,1.73268-10.077,26.92831,26.92831,0,0,1,4.80855-8.37957,23.22814,23.22814,0,0,1,7.28361-5.72772,20.99467,20.99467,0,0,1,18.2446-.07183,23.41516,23.41516,0,0,1,7.35475,5.62276,26.74609,26.74609,0,0,1,4.95012,8.37957,28.96535,28.96535,0,0,1,1.80312,10.25383A28.6637,28.6637,0,0,1,227.9874,537.85934Zm-8.94586-25.10419q-1.27206-5.55024-3.95982-8.16687a9.05964,9.05964,0,0,0-3.783-2.12148,17.69413,17.69413,0,0,0-4.63245-.56629,17.38,17.38,0,0,0-4.56063.56629,8.52977,8.52977,0,0,0-3.7126,2.12148q-2.68914,2.61663-3.99573,8.16687a67.46282,67.46282,0,0,0-1.308,14.88628q0,5.3037.31767,9.08673a40.356,40.356,0,0,0,.9903,6.43489,18.22625,18.22625,0,0,0,1.66155,4.41975,12.65525,12.65525,0,0,0,2.33418,3.04134,8.84573,8.84573,0,0,0,3.7126,2.15739,16.47178,16.47178,0,0,0,4.56063.60081,16.76782,16.76782,0,0,0,4.63245-.60081,9.408,9.408,0,0,0,3.783-2.15739,12.7059,12.7059,0,0,0,2.33349-3.04134,17.37135,17.37135,0,0,0,1.62633-4.41975,43.66509,43.66509,0,0,0,.95509-6.43489q.318-3.781.31836-9.08673A69.30789,69.30789,0,0,0,219.04154,512.75515Z"/><path class="cls-1" d="M298.24351,518.80192c-.14157,0-.212-.047-.212-.14088a19.598,19.598,0,0,0-.88395-5.87,14.089,14.089,0,0,0-2.723-4.986,13.18162,13.18162,0,0,0-4.63176-3.42945,16.0351,16.0351,0,0,0-6.6828-1.27206h-1.06074q-.42368,0-.424.28175v48.44049c0,.18922.14157.28314.424.28314h6.22287c.09392,0,.14157.0953.14157.28314,0,.18922-.04765.28314-.14157.28314h-22.134c-.09461,0-.14157-.09392-.14157-.28314,0-.18784.047-.28314.14157-.28314H272.361c.28314,0,.42471-.09392.42471-.28314V503.38527q0-.28175-.42471-.28175h-1.06074a15.78019,15.78019,0,0,0-6.64689,1.27206,12.55425,12.55425,0,0,0-4.5261,3.42945,14.23544,14.23544,0,0,0-2.61664,4.986,20.32635,20.32635,0,0,0-.848,5.87c0,.09392-.0953.14088-.28314.14088-.18922,0-.28314-.047-.28314-.14088v-15.9111a.18791.18791,0,0,1,.2127-.21271h42.07605c.09392,0,.14088.07044.14088.21271V518.661C298.526,518.755,298.43135,518.80192,298.24351,518.80192Z"/><path class="cls-1" d="M369.13633,537.85934a26.82576,26.82576,0,0,1-4.95012,8.34505,23.34949,23.34949,0,0,1-7.35474,5.62137,20.68686,20.68686,0,0,1-17.96146,0,22.93733,22.93733,0,0,1-7.31953-5.62137,27.74565,27.74565,0,0,1-4.95012-8.34505,28.15945,28.15945,0,0,1-1.83834-10.21791,29.28111,29.28111,0,0,1,1.73268-10.077,26.92831,26.92831,0,0,1,4.80855-8.37957,23.22818,23.22818,0,0,1,7.28362-5.72772,20.99467,20.99467,0,0,1,18.2446-.07183,23.41512,23.41512,0,0,1,7.35474,5.62276,26.74609,26.74609,0,0,1,4.95012,8.37957,28.96535,28.96535,0,0,1,1.80312,10.25383A28.6637,28.6637,0,0,1,369.13633,537.85934Zm-8.94585-25.10419q-1.27206-5.55024-3.95982-8.16687a9.0597,9.0597,0,0,0-3.783-2.12148,17.69426,17.69426,0,0,0-4.63246-.56629,17.38,17.38,0,0,0-4.56063.56629,8.5298,8.5298,0,0,0-3.71259,2.12148q-2.68914,2.61663-3.99573,8.16687a67.46221,67.46221,0,0,0-1.308,14.88628q0,5.3037.31767,9.08673a40.35487,40.35487,0,0,0,.9903,6.43489,18.22625,18.22625,0,0,0,1.66155,4.41975,12.65525,12.65525,0,0,0,2.33418,3.04134,8.84575,8.84575,0,0,0,3.71259,2.15739,16.47178,16.47178,0,0,0,4.56063.60081,16.768,16.768,0,0,0,4.63246-.60081,9.4081,9.4081,0,0,0,3.783-2.15739,12.7059,12.7059,0,0,0,2.33349-3.04134,17.37135,17.37135,0,0,0,1.62633-4.41975,43.66522,43.66522,0,0,0,.95508-6.43489q.318-3.781.31836-9.08673A69.308,69.308,0,0,0,360.19048,512.75515Z"/><path class="cls-1" d="M437.907,523.89293a12.96032,12.96032,0,0,1-3.64146,4.59654,17.34806,17.34806,0,0,1-5.72842,2.9709,24.95214,24.95214,0,0,1-7.53084,1.06074,26.17794,26.17794,0,0,1-3.88938-.24723q-1.62737-.24861-3.04065-.60219v20.15407c0,.18922.11671.28314.35358.28314h6.29331c.09392,0,.14157.0953.14157.28314,0,.18922-.04765.28314-.14157.28314h-22.134c-.0953,0-.14157-.09392-.14157-.28314,0-.18784.04627-.28314.14157-.28314H404.812c.28314,0,.42471-.09392.42471-.28314V503.38527q0-.28175-.42471-.28175h-6.22287c-.0953,0-.14157-.09392-.14157-.28314,0-.18784.04627-.28315.14157-.28315h20.93167a27.07355,27.07355,0,0,1,8.41548,1.20162,18.6675,18.6675,0,0,1,6.18766,3.28858,13.60554,13.60554,0,0,1,3.783,4.91559,14.64325,14.64325,0,0,1,1.27344,6.0813A13.525,13.525,0,0,1,437.907,523.89293Zm-10.39471-17.18317a9.81644,9.81644,0,0,0-7.99146-3.60624h-5.091c-.23687,0-.35358.09392-.35358.28175v27.43838a11.12371,11.12371,0,0,0,3.11109.91986,29.02359,29.02359,0,0,0,3.81894.21132q4.9484,0,7.21317-3.14631,2.26237-3.147,2.26237-10.7842Q430.48181,510.31738,427.51228,506.70976Z"/><path class="cls-1" d="M512.61876,553.20555a9.90559,9.90559,0,0,1-3.85416.67125,12.93276,12.93276,0,0,1-4.243-.70716,9.26788,9.26788,0,0,1-3.64215-2.3328,11.69514,11.69514,0,0,1-2.5455-4.243,18.89587,18.89587,0,0,1-.95508-6.43627v-4.59654q0-4.6656-2.96952-6.68211a13.74423,13.74423,0,0,0-7.8499-2.01513H480.9022v24.96193c0,.18922.14157.28314.42471.28314h7.07161c.04627,0,.07044.0953.07044.28314,0,.18922-.02417.28314-.07044.28314H465.48624c-.0953,0-.14157-.09392-.14157-.28314,0-.18784.04627-.28314.14157-.28314h6.22288c.28314,0,.42471-.09392.42471-.28314V503.38527q0-.28175-.42471-.28175h-6.22288c-.0953,0-.14157-.09392-.14157-.28314,0-.18784.04627-.28315.14157-.28315h21.85154a24.45706,24.45706,0,0,1,7.10682.9544,16.42863,16.42863,0,0,1,5.3037,2.61732,11.81975,11.81975,0,0,1,3.32379,3.88938,10.28231,10.28231,0,0,1,1.1664,4.84377,9.62545,9.62545,0,0,1-1.13118,4.59654,12.18065,12.18065,0,0,1-3.07656,3.7126,14.72016,14.72016,0,0,1-4.667,2.50959,18.33791,18.33791,0,0,1-5.90451.91986,24.6214,24.6214,0,0,1,7.67241,1.06074,15.0353,15.0353,0,0,1,5.3037,2.89908,10.9076,10.9076,0,0,1,3.04065,4.34931,15.0924,15.0924,0,0,1,.95509,5.41005v6.36445a8.10537,8.10537,0,0,0,1.13118,4.45428,3.57151,3.57151,0,0,0,3.18222,1.7679,5.18459,5.18459,0,0,0,2.47506-.5649,7.697,7.697,0,0,0,1.83834-1.34388q.07044-.07044.24792.14088c.11671.14226.12914.23756.03522.28314A8.449,8.449,0,0,1,512.61876,553.20555Zm-19.6237-47.41565q-2.47679-2.68707-7.49632-2.68638h-4.17183q-.42471,0-.42471.28175v22.91228h5.65728a15.72974,15.72974,0,0,0,4.3141-.49446,5.39162,5.39162,0,0,0,2.72229-1.73337,7.50862,7.50862,0,0,0,1.44954-3.39355,29.64426,29.64426,0,0,0,.42471-5.55093Q495.47012,508.479,492.99506,505.7899Z"/><path class="cls-1" d="M535.49443,552.67518c-.0953,0-.14157-.09392-.14157-.28314,0-.18784.04627-.28314.14157-.28314h6.22287c.28314,0,.42471-.09392.42471-.28314V503.38527q0-.28175-.42471-.28175h-6.22287c-.0953,0-.14157-.09392-.14157-.28314,0-.18784.04627-.28315.14157-.28315h22.134c.09392,0,.14157.09531.14157.28315,0,.18922-.04765.28314-.14157.28314H551.3351q-.42471,0-.42471.28175v48.44049c0,.18922.14157.28314.42471.28314h6.29331c.09392,0,.14157.0953.14157.28314,0,.18922-.04765.28314-.14157.28314Z"/><path class="cls-1" d="M625.37424,503.10352q-.42471,0-.42471.28175v50.20839c0,.09392-.09461.15331-.28245.17679a.40707.40707,0,0,1-.42471-.17679l-32.883-49.85481v48.15873c0,.18784.1174.28176.35358.28176h6.294c.09392,0,.14157.0953.14157.28314,0,.18922-.04765.28314-.14157.28314H584.0758c-.09531,0-.14157-.09392-.14157-.28314,0-.18784.04626-.28314.14157-.28314h6.22287q.42471,0,.42471-.28176V503.38527q0-.28175-.42471-.28175H584.0758c-.09531,0-.14157-.09392-.14157-.28314,0-.18784.04626-.28315.14157-.28315h16.05267a1.23476,1.23476,0,0,1,.70716.24723,3.78527,3.78527,0,0,1,.84873,1.02622l22.62914,34.65085V503.38527q0-.28175-.42471-.28175h-6.22288c-.0953,0-.14157-.09392-.14157-.28314,0-.18784.04627-.28315.14157-.28315h13.9312c.09392,0,.14157.09531.14157.28315,0,.18922-.04765.28314-.14157.28314Z"/><path class="cls-1" d="M698.28151,518.80192c-.14158,0-.212-.047-.212-.14088a19.598,19.598,0,0,0-.884-5.87,14.08881,14.08881,0,0,0-2.723-4.986,13.18162,13.18162,0,0,0-4.63176-3.42945,16.0351,16.0351,0,0,0-6.6828-1.27206h-1.06074q-.42368,0-.424.28175v48.44049c0,.18922.14157.28314.424.28314h6.22287c.09392,0,.14157.0953.14157.28314,0,.18922-.04765.28314-.14157.28314h-22.134c-.09461,0-.14157-.09392-.14157-.28314,0-.18784.047-.28314.14157-.28314H672.399c.28314,0,.42471-.09392.42471-.28314V503.38527q0-.28175-.42471-.28175h-1.06074a15.78019,15.78019,0,0,0-6.64689,1.27206,12.55429,12.55429,0,0,0-4.52611,3.42945,14.23525,14.23525,0,0,0-2.61663,4.986,20.32635,20.32635,0,0,0-.848,5.87c0,.09392-.0953.14088-.28314.14088-.18922,0-.28314-.047-.28314-.14088v-15.9111a.18791.18791,0,0,1,.2127-.21271h42.07605c.09391,0,.14087.07044.14087.21271V518.661C698.564,518.755,698.46934,518.80192,698.28151,518.80192Z"/><path class="cls-2" d="M188.97232,116.41317c0-9.05083,2.60282-20.93167,10.52316-30.32365,13.3511-15.95392,60.42077-56.34769,162.02812-56.34769,4.86518,0,9.84431,0,14.936.22651C449.66589,32.797,477.27415,60.51849,477.27415,88.24c0,14.70949-7.69382,29.419-20.47934,40.507-32.13436,27.72152-87.23762,37.67839-111.67747,43.56218-3.62074,5.99706-7.35474,12.33249-11.08874,18.66931,10.749,3.28167,23.761,7.468,38.13072,12.559,37.67839,13.35179,85.99319,36.5472,106.81229,50.352,20.70585,13.91669,35.75511,29.98387,38.58375,36.77233a7.60923,7.60923,0,0,1,.7921,2.9419,2.18221,2.18221,0,0,1-2.48956,2.26374,5.20209,5.20209,0,0,1-1.471-.22651c-.56559-.11325-6.33613-30.21039-73.77257-59.28959A1144.29741,1144.29741,0,0,0,331.2,195.84441c-16.51951,27.83339-32.24692,53.63231-33.83113,53.63231-2.60282-.33977-8.03359-8.82569-8.03359-14.36972a6.66224,6.66224,0,0,1,.22651-1.58421c.56559-2.03723,10.86154-20.59328,23.53449-42.99728-11.76759-3.28029-20.48-5.20426-24.77961-5.43077h-1.92329c-13.012,0-29.98456,5.20426-42.20449,5.20426a31.26853,31.26853,0,0,1-4.75192-.33839c-6.22357-1.01931-11.42852-5.8838-11.42852-10.18339,0-3.84794,4.07377-7.24148,15.16252-7.24148,2.03654,0,4.41215.11325,7.015.33838,23.53449,2.49026,29.305,6.33682,40.0547,6.33682a71.00749,71.00749,0,0,0,14.36972-1.69746c7.58057-1.47095,13.3511-2.60213,17.87721-3.39354,17.65138-31.00318,36.65977-63.8157,40.8468-70.7188,0,0,3.16771-3.84656,7.92033-3.84656,2.82864,0,5.99636,1.35769,9.50454,5.43077a5.65007,5.65007,0,0,1,1.35769,3.9612c0,6.67521-8.59918,15.95392-12.44644,22.17611-8.03359,12.89877-10.86223,17.8779-20.027,33.49205,13.12459-3.95982,28.966-8.37267,28.966-8.37267,59.17634-17.8779,81.91873-46.39082,81.91873-70.15252a37.51935,37.51935,0,0,0-12.44574-27.72013c-14.59624-13.57831-53.18-23.875-97.421-23.875-32.92578,0-69.13322,5.77054-100.81525,20.027-51.02949,22.85565-58.94982,49.78575-58.94982,64.26873a31.65007,31.65007,0,0,0,1.5842,10.52315C190.55653,128.52053,188.97232,123.31627,188.97232,116.41317Zm116.88243,66.41921s3.734.90467,10.07013,2.71538l3.84725-6.67658Z"/><path class="cls-2" d="M437.27827,84.34024C446.443,85.92445,449.838,92.148,449.838,97.12576a10.505,10.505,0,0,1-.56628,3.28166c-1.471,3.73331-29.07852,45.598-42.09054,67.43575l26.13662-.56489c6.56264.67815,8.93894,3.7333,8.93894,6.78846a6.33956,6.33956,0,0,1-2.3763,4.86587,40.40256,40.40256,0,0,1-9.16477,5.091s-2.71539-7.015-15.61416-7.58125h-11.9941l-4.41285,7.58125a11.06415,11.06415,0,0,1,7.01567,10.86292c0,25.34452-54.76419,79.8815-63.0236,79.8815a.95447.95447,0,0,1-.67885-.22513,1.41121,1.41121,0,0,1-.453-1.24582c0-11.08805,40.8468-83.16316,45.03313-90.5179-2.60213-.56629-5.65728-1.13119-9.278-1.58421-12.21993-1.471-20.93237-2.71539-20.93237-5.77054v-.453a10.91809,10.91809,0,0,1,4.07308-5.77054s15.27508-.5649,33.60531-1.01793l21.3847-41.29844v-1.0193c0-7.69314-2.60213-15.38765-11.54108-20.14026-23.42193-12.78552-54.1979-7.69452-54.1979-17.76465V87.847C350.04064,77.665,394.62144,55.37429,494.079,51.188c12.10667-.453,23.42124-.67954,33.83113-.67954,75.92237,0,110.54561,12.10736,110.54561,25.23264,0,12.106-14.483,17.08511-22.29006,17.08511a7.81157,7.81157,0,0,1-4.18633-.79142c-4.187-2.94189,4.41284-17.31161-25.45847-22.06423-14.936-2.377-44.12777-4.07308-76.37539-4.07308-32.58669,0-68.11529,1.69608-95.38378,5.99706-42.65682,6.78846-55.66885,13.23715-55.66885,16.74533,0,.90467.90536,1.69746,2.48887,2.14911,7.24149,2.15048,35.30277,4.41284,46.84385,13.69156,5.20495,4.18633,8.48593,10.63641,9.16477,18.10441Zm-40.8468,101.94711-41.86472,76.03494s2.82864-1.471,25.00613-26.25057c19.00838-21.3847,22.85564-33.039,22.85564-39.71424a20.43415,20.43415,0,0,0-.22651-2.82864C401.29734,189.00274,400.50524,187.64505,396.43147,186.28735Zm-6.56264-9.845c-8.71244,0-15.04857.11325-15.04857.11325a79.34571,79.34571,0,0,1,13.465,2.9419Z"/><path class="cls-2" d="M569.45375,82.22846V318.53328H257.97784V203.20951c-2.376.36774-4.73794.66469-7.07161.89085V325.60488H576.52536V82.9073C574.319,82.667,571.95713,82.44047,569.45375,82.22846ZM255.64434,67.42056c-1.61251.72132-3.19637,1.45679-4.73811,2.20642v89.11637c.16989.01415.32527.02831.49515.04212l.26864.02832c2.24872.24067,4.34206.481,6.30782.73547v-93.147C257.18591,66.72756,256.42212,67.067,255.64434,67.42056ZM250.90623,0V35.00444q3.47926-1.42175,7.07161-2.72954V7.0716H569.45375V37.71982c2.41852.15573,4.76626.35358,7.07161.55144V0Z"/></g></g></svg>