<svg xmlns="http://www.w3.org/2000/svg" viewBox="0 0 328.70774 80"><defs><style>.cls-1{fill:#fff;}.cls-2{fill:#ad8226;}</style></defs><g id="Layer_2" data-name="Layer 2"><g id="Layer_1-2" data-name="Layer 1"><path class="cls-1" d="M143.99547,38.70016a3.89014,3.89014,0,0,1-1.515.264,5.09038,5.09038,0,0,1-1.66807-.27793,3.64061,3.64061,0,0,1-1.43155-.91726,4.59926,4.59926,0,0,1-1.00091-1.6679,7.43221,7.43221,0,0,1-.37532-2.52985v-1.807a2.94178,2.94178,0,0,0-1.16753-2.62691,5.40145,5.40145,0,0,0-3.08571-.79238h-2.22392v9.81331c0,.07431.05548.111.16679.111h2.77995c.01815,0,.02783.03733.02783.11131,0,.07432-.00968.11131-.02783.11131h-9.007c-.0375,0-.05566-.037-.05566-.11131,0-.074.01816-.11131.05566-.11131h2.44637c.11113,0,.16679-.03665.16679-.111V19.11563c0-.074-.05566-.11131-.16679-.11131h-2.44637c-.0375,0-.05566-.037-.05566-.11131,0-.07363.01816-.1113.05566-.1113h8.59a9.62,9.62,0,0,1,2.79386.37532,6.46948,6.46948,0,0,1,2.085,1.02857,4.65187,4.65187,0,0,1,1.30667,1.5291,4.04336,4.04336,0,0,1,.45863,1.90443,3.7819,3.7819,0,0,1-.44489,1.8067,4.785,4.785,0,0,1-1.20927,1.45954,5.78628,5.78628,0,0,1-1.83469.98683,7.20342,7.20342,0,0,1-2.32132.36141,9.68112,9.68112,0,0,1,3.01631.41706,5.90715,5.90715,0,0,1,2.085,1.13987,4.28918,4.28918,0,0,1,1.19536,1.70964,5.93239,5.93239,0,0,1,.37532,2.1267v2.502a3.18949,3.18949,0,0,0,.44471,1.75138,1.40525,1.40525,0,0,0,1.251.695,2.03812,2.03812,0,0,0,.97308-.22262,3.02308,3.02308,0,0,0,.72264-.528c.01833-.01833.05091,0,.0974.05565.046.05531.05073.09264.01391.111A3.32782,3.32782,0,0,1,143.99547,38.70016ZM136.281,20.06072a3.81581,3.81581,0,0,0-2.94674-1.0564h-1.64007c-.11131,0-.16679.03733-.16679.11131v9.007h2.22392a6.17116,6.17116,0,0,0,1.69573-.19479,2.11786,2.11786,0,0,0,1.07031-.68107,2.95664,2.95664,0,0,0,.56994-1.33432,11.66769,11.66769,0,0,0,.16679-2.18236A5.41037,5.41037,0,0,0,136.281,20.06072Z"/><path class="cls-1" d="M170.71041,32.66788a10.54767,10.54767,0,0,1-1.946,3.28015,9.19153,9.19153,0,0,1-2.89125,2.21019,8.13567,8.13567,0,0,1-7.061,0A9.02572,9.02572,0,0,1,155.935,35.948a10.89861,10.89861,0,0,1-1.946-3.28015,11.0721,11.0721,0,0,1-.72281-4.01721,11.514,11.514,0,0,1,.68107-3.96157,10.58747,10.58747,0,0,1,1.89035-3.29406,9.137,9.137,0,0,1,2.86343-2.25193,8.25157,8.25157,0,0,1,7.17215-.02748,9.19546,9.19546,0,0,1,2.89125,2.20984,10.51842,10.51842,0,0,1,1.946,3.2944,11.77536,11.77536,0,0,1,0,8.048Zm-3.51668-9.86895A6.39505,6.39505,0,0,0,165.637,19.588a3.56788,3.56788,0,0,0-1.48737-.83378,6.95039,6.95039,0,0,0-1.82078-.22261,6.83229,6.83229,0,0,0-1.79312.22261,3.36,3.36,0,0,0-1.45937.83378,6.46988,6.46988,0,0,0-1.57068,3.21093,26.51215,26.51215,0,0,0-.51428,5.85174q0,2.085.12505,3.57233a15.8409,15.8409,0,0,0,.38923,2.52985,7.1592,7.1592,0,0,0,.65325,1.73746,4.97724,4.97724,0,0,0,.91743,1.19519,3.47711,3.47711,0,0,0,1.45937.848,6.4703,6.4703,0,0,0,1.79312.23618,6.58156,6.58156,0,0,0,1.82078-.23618,3.6968,3.6968,0,0,0,1.48737-.848,5.00774,5.00774,0,0,0,.91743-1.19519,6.8417,6.8417,0,0,0,.63933-1.73746,17.21826,17.21826,0,0,0,.37533-2.52985q.125-1.48686.125-3.57233A27.25047,27.25047,0,0,0,167.19373,22.79893Z"/><path class="cls-1" d="M195.39638,34.75285A6.49186,6.49186,0,0,1,194.11771,36.81a6.88773,6.88773,0,0,1-2.09887,1.54268,6.50826,6.50826,0,0,1-2.89126.61151,5.1084,5.1084,0,0,1-1.39-.18053q-.63985-.18122-1.20928-.38924-.57011-.20869-1.0703-.38923a2.86424,2.86424,0,0,0-.97292-.18053,1.64986,1.64986,0,0,0-1.04248.33358,1.13855,1.13855,0,0,0-.48646.72281.11283.11283,0,0,1-.1113.05532c-.05549,0-.08331-.01867-.08331-.05532V32.45918c0-.037.02782-.05565.08331-.05565.074,0,.1113.01866.1113.05565a5.15234,5.15234,0,0,0,.44472,1.91835,7.96285,7.96285,0,0,0,1.26493,2.071,7.43289,7.43289,0,0,0,1.946,1.654,4.7876,4.7876,0,0,0,2.48794.66716,6.29129,6.29129,0,0,0,2.12671-.33358,4.99728,4.99728,0,0,0,1.55676-.86194,3.54755,3.54755,0,0,0,.94526-1.20911,3.15961,3.15961,0,0,0,.31967-1.34823,3.3901,3.3901,0,0,0-1.43172-2.96082,8.59585,8.59585,0,0,0-1.87643-1.0564q-1.14021-.48612-2.75212-1.07031a14.98072,14.98072,0,0,1-1.83487-.81986,5.82663,5.82663,0,0,1-1.48719-1.112,4.78989,4.78989,0,0,1-.98683-1.55694,5.7874,5.7874,0,0,1-.36141-2.15419,6.31112,6.31112,0,0,1,1.58459-4.22557,5.52048,5.52048,0,0,1,1.68182-1.279,4.62159,4.62159,0,0,1,3.044-.36107,7.72037,7.72037,0,0,1,.88961.264q.41713.15322.83395.264a3.43211,3.43211,0,0,0,.8896.1113,1.23344,1.23344,0,0,0,.86178-.22261.985.985,0,0,0,.2781-.44455c0-.037.03682-.05565.11113-.05565.07381,0,.11114.01866.11114.05565V23.313c0,.03767-.03733.05565-.11114.05565-.07431,0-.11113-.018-.11113-.05565a4.3448,4.3448,0,0,0-.40315-1.86235,5.17212,5.17212,0,0,0-1.07031-1.51519,5.05683,5.05683,0,0,0-1.52894-1.02857,4.35108,4.35108,0,0,0-1.75138-.37532,4.08754,4.08754,0,0,0-1.52894.27792,3.75,3.75,0,0,0-1.19536.75065,3.37869,3.37869,0,0,0-1.05639,2.47419,3.28811,3.28811,0,0,0,1.2371,2.57159,12.44327,12.44327,0,0,0,3.87791,2.0154,25.68549,25.68549,0,0,1,2.41871.98682,7.52878,7.52878,0,0,1,1.84861,1.20945,4.94972,4.94972,0,0,1,1.18144,1.59833,5.18191,5.18191,0,0,1,.41707,2.18236A6.02736,6.02736,0,0,1,195.39638,34.75285Z"/><path class="cls-1" d="M219.19258,34.75285A6.49186,6.49186,0,0,1,217.91391,36.81a6.8879,6.8879,0,0,1-2.09888,1.54268,6.50821,6.50821,0,0,1-2.89125.61151,5.10847,5.10847,0,0,1-1.39-.18053q-.63984-.18122-1.20927-.38924-.57011-.20869-1.07031-.38923a2.86423,2.86423,0,0,0-.97291-.18053,1.64986,1.64986,0,0,0-1.04248.33358,1.13855,1.13855,0,0,0-.48646.72281.11284.11284,0,0,1-.11131.05532c-.05548,0-.08331-.01867-.08331-.05532V32.45918c0-.037.02783-.05565.08331-.05565.074,0,.11131.01866.11131.05565a5.15214,5.15214,0,0,0,.44472,1.91835,7.96308,7.96308,0,0,0,1.26492,2.071,7.43293,7.43293,0,0,0,1.946,1.654,4.78754,4.78754,0,0,0,2.48794.66716,6.29127,6.29127,0,0,0,2.1267-.33358,4.99733,4.99733,0,0,0,1.55677-.86194,3.54752,3.54752,0,0,0,.94525-1.20911,3.15946,3.15946,0,0,0,.31967-1.34823,3.39006,3.39006,0,0,0-1.43171-2.96082,8.5957,8.5957,0,0,0-1.87644-1.0564q-1.14021-.48612-2.75212-1.07031a14.98125,14.98125,0,0,1-1.83486-.81986,5.82651,5.82651,0,0,1-1.4872-1.112,4.78989,4.78989,0,0,1-.98683-1.55694,5.78741,5.78741,0,0,1-.3614-2.15419,6.31112,6.31112,0,0,1,1.58459-4.22557,5.52044,5.52044,0,0,1,1.68181-1.279,4.62162,4.62162,0,0,1,3.044-.36107,7.72079,7.72079,0,0,1,.8896.264q.41715.15322.83395.264a3.43219,3.43219,0,0,0,.88961.1113,1.23339,1.23339,0,0,0,.86177-.22261.985.985,0,0,0,.2781-.44455c0-.037.03682-.05565.11114-.05565.07381,0,.11113.01866.11113.05565V23.313c0,.03767-.03732.05565-.11113.05565-.07432,0-.11114-.018-.11114-.05565a4.34465,4.34465,0,0,0-.40315-1.86235,5.17209,5.17209,0,0,0-1.0703-1.51519,5.05683,5.05683,0,0,0-1.52894-1.02857,4.35108,4.35108,0,0,0-1.75138-.37532,4.0875,4.0875,0,0,0-1.52894.27792,3.75,3.75,0,0,0-1.19536.75065,3.37865,3.37865,0,0,0-1.0564,2.47419,3.28811,3.28811,0,0,0,1.2371,2.57159,12.44323,12.44323,0,0,0,3.87792,2.0154,25.68659,25.68659,0,0,1,2.41871.98682,7.52916,7.52916,0,0,1,1.84861,1.20945,4.94986,4.94986,0,0,1,1.18144,1.59833,5.18192,5.18192,0,0,1,.41706,2.18236A6.02734,6.02734,0,0,1,219.19258,34.75285Z"/><path class="cls-1" d="M245.088,38.4918H229.88174c-.0375,0-.05565-.037-.05565-.11131,0-.074.01815-.11131.05565-.11131h2.44637c.11114,0,.16679-.03665.16679-.111V19.11563c0-.074-.05565-.11131-.16679-.11131h-2.44637c-.0375,0-.05565-.037-.05565-.11131,0-.07363.01815-.1113.05565-.1113H238.583c.03682,0,.05548.03767.05548.1113,0,.07432-.01866.11131-.05548.11131h-2.4742c-.093,0-.139.03733-.139.11131V38.15822c0,.07431.046.111.139.111H239.111a5.97673,5.97673,0,0,0,2.69664-.55585,5.42232,5.42232,0,0,0,1.82078-1.43172,5.60237,5.60237,0,0,0,1.02873-1.95974,7.55319,7.55319,0,0,0,.31967-2.14061c0-.037.02783-.05566.08331-.05566.07381,0,.11131.01867.11131.05566v6.22706A.07379.07379,0,0,1,245.088,38.4918Z"/><path class="cls-1" d="M264.32485,38.4918c-.03732,0-.05565-.037-.05565-.11131,0-.074.01833-.11131.05565-.11131h2.58534c.09247,0,.139-.03665.139-.111l-2.27958-6.394h-6.3382l-1.946,5.33762a8.82362,8.82362,0,0,0-.31966.959c-.02783.13914.00441.20836.09722.20836h2.4742c.037,0,.05565.03733.05565.11131,0,.07432-.01866.11131-.05565.11131H253.483c-.03682,0-.05548-.037-.05548-.11131,0-.074.01866-.11131.05548-.11131h2.085a.31317.31317,0,0,0,.292-.18053q.097-.18071.403-.98683l6.75526-18.709a.139.139,0,0,1,.22244,0l7.5059,19.76541a.22362.22362,0,0,0,.22245.111h2.36288c.037,0,.05566.03733.05566.11131,0,.07432-.01867.11131-.05566.11131Zm-2.69664-15.65113L258.487,31.54192h6.19923Z"/><path class="cls-1" d="M298.101,19.00432c-.11113,0-.16679.03733-.16679.11131V38.8532c0,.037-.03732.05973-.11113.06957a.16088.16088,0,0,1-.16679-.06957L284.72942,19.25442V38.186c0,.07432.046.111.139.111h2.47419c.03682,0,.05566.03733.05566.11131,0,.07431-.01884.1113-.05566.1113H281.866c-.03733,0-.05548-.037-.05548-.1113,0-.074.01815-.11131.05548-.11131h2.44637c.11131,0,.16679-.03665.16679-.111V19.11563c0-.074-.05548-.11131-.16679-.11131H281.866c-.03733,0-.05548-.037-.05548-.11131,0-.07363.01815-.1113.05548-.1113h6.31054a.48358.48358,0,0,1,.27793.09739,1.49207,1.49207,0,0,1,.33375.40315l8.8957,13.62182V19.11563c0-.074-.05548-.11131-.16679-.11131h-2.44637c-.03732,0-.05548-.037-.05548-.11131,0-.07363.01816-.1113.05548-.1113h5.47659c.03682,0,.05566.03767.05566.1113,0,.07432-.01884.11131-.05566.11131Z"/><path class="cls-1" d="M327.98493,32.4731a10.24837,10.24837,0,0,1-1.946,3.12744,9.14508,9.14508,0,0,1-2.87717,2.11279,8.155,8.155,0,0,1-3.51668.77847h-8.92353c-.0375,0-.05566-.037-.05566-.11131,0-.074.01816-.11131.05566-.11131h2.41854c.12946,0,.19462-.03665.19462-.111V19.11563c0-.074-.06516-.11131-.19462-.11131h-2.41854c-.0375,0-.05566-.037-.05566-.11131,0-.07363.01816-.1113.05566-.1113h8.92353a8.16465,8.16465,0,0,1,3.51668.77847,9.16064,9.16064,0,0,1,2.87717,2.11278,10.46023,10.46023,0,0,1,1.946,10.80014Zm-3.51668-9.39625a6.01837,6.01837,0,0,0-1.57051-3.044,3.49332,3.49332,0,0,0-1.47345-.8063,6.89717,6.89717,0,0,0-1.77921-.22227h-2.69647c-.11131,0-.16679.03733-.16679.11131V38.15822c0,.07431.05548.111.16679.111h2.69647a6.86729,6.86729,0,0,0,1.77921-.22227,3.64168,3.64168,0,0,0,1.47345-.77847A5.37325,5.37325,0,0,0,323.815,36.115a6.48191,6.48191,0,0,0,.65325-1.65432,14.64909,14.64909,0,0,0,.38923-2.40463q.12522-1.40338.12522-3.40537A24.05957,24.05957,0,0,0,324.46825,23.07685Z"/><path class="cls-1" d="M134.48114,50.49764c-.0465,0-.06957-.01154-.06957-.03462a3.72406,3.72406,0,0,0-.19971-1.19892,3.2026,3.2026,0,0,0-.59946-1.05978,2.9858,2.9858,0,0,0-.999-.75607,3.25324,3.25324,0,0,0-1.41611-.28642H129.3383q-.10435,0-.10435.06923V52.9474h.50393a2.48083,2.48083,0,0,0,.947-.17375,2.25319,2.25319,0,0,0,.7296-.469,2.07236,2.07236,0,0,0,.46916-.6865,2.14477,2.14477,0,0,0,.16509-.8426c0-.02308.01731-.03462.05209-.03462.04615,0,.06957.01154.06957.03462v4.4828c0,.02342-.02342.03461-.06957.03461-.03478,0-.05209-.01119-.05209-.03461a2.16786,2.16786,0,0,0-.16509-.83412,2.05283,2.05283,0,0,0-.46916-.695,2.25915,2.25915,0,0,0-.7296-.469,2.48732,2.48732,0,0,0-.947-.17375H129.234v6.04619c0,.04649.03478.06957.10435.06957h1.54624c.02308,0,.03478.02341.03478.06957,0,.04649-.0117.06956-.03478.06956H125.4463c-.02342,0-.03479-.02307-.03479-.06956,0-.04616.01137-.06957.03479-.06957h1.52894c.06956,0,.10435-.02308.10435-.06957V47.23106q0-.06922-.10435-.06923H125.4463c-.02342,0-.03479-.02307-.03479-.06956,0-.04615.01137-.06957.03479-.06957h9.05214a.04617.04617,0,0,1,.05226.05226V50.463C134.5507,50.4861,134.52729,50.49764,134.48114,50.49764Z"/><path class="cls-1" d="M152.26423,55.70122a6.591,6.591,0,0,1-1.21623,2.05035,5.73682,5.73682,0,0,1-1.807,1.38115,5.08263,5.08263,0,0,1-4.41307,0,5.63543,5.63543,0,0,1-1.79838-1.38115,6.81683,6.81683,0,0,1-1.21623-2.05035,6.91853,6.91853,0,0,1-.45168-2.51051,7.19414,7.19414,0,0,1,.42572-2.47589,6.61617,6.61617,0,0,1,1.18144-2.05883,5.707,5.707,0,0,1,1.78956-1.40728,5.15836,5.15836,0,0,1,4.48264-.01765,5.75309,5.75309,0,0,1,1.807,1.38149,6.57146,6.57146,0,0,1,1.21623,2.05884,7.11666,7.11666,0,0,1,.443,2.51932A7.04267,7.04267,0,0,1,152.26423,55.70122Zm-2.198-6.168a3.99489,3.99489,0,0,0-.97291-2.00658,2.226,2.226,0,0,0-.92948-.52124,4.3476,4.3476,0,0,0-1.13818-.13913,4.27044,4.27044,0,0,0-1.12053.13913,2.09585,2.09585,0,0,0-.91217.52124,4.04284,4.04284,0,0,0-.98174,2.00658,16.57528,16.57528,0,0,0-.32136,3.6575q0,1.30311.07805,2.23258a9.91486,9.91486,0,0,0,.24331,1.581,4.478,4.478,0,0,0,.40824,1.08592,3.10921,3.10921,0,0,0,.5735.74725,2.17339,2.17339,0,0,0,.91217.53006,4.04717,4.04717,0,0,0,1.12053.14762,4.11988,4.11988,0,0,0,1.13818-.14762,2.31151,2.31151,0,0,0,.92948-.53006,3.12168,3.12168,0,0,0,.57333-.74725,4.26794,4.26794,0,0,0,.39958-1.08592,10.728,10.728,0,0,0,.23466-1.581q.07814-.929.07822-2.23258A17.02868,17.02868,0,0,0,150.06626,49.53321Z"/><path class="cls-1" d="M169.52591,51.01888c-.03478,0-.05209-.01154-.05209-.03461a4.81526,4.81526,0,0,0-.21718-1.44224,3.46159,3.46159,0,0,0-.669-1.225,3.23867,3.23867,0,0,0-1.138-.84261,3.93976,3.93976,0,0,0-1.64194-.31254H165.547q-.10408,0-.10418.06923V59.13272c0,.04649.03479.06957.10418.06957H167.076c.02308,0,.03478.02341.03478.06957,0,.04649-.0117.06956-.03478.06956h-5.43824c-.02325,0-.03479-.02307-.03479-.06956,0-.04616.01154-.06957.03479-.06957h1.52894c.06956,0,.10435-.02308.10435-.06957V47.23106q0-.06922-.10435-.06923h-.26062a3.87714,3.87714,0,0,0-1.63312.31254,3.08451,3.08451,0,0,0-1.11205.84261,3.49742,3.49742,0,0,0-.6429,1.225,4.99424,4.99424,0,0,0-.20836,1.44224c0,.02307-.02341.03461-.06957.03461-.04649,0-.06956-.01154-.06956-.03461V47.075a.04617.04617,0,0,1,.05226-.05226H169.5607c.02307,0,.03461.01731.03461.05226v3.90931C169.59531,51.00734,169.57206,51.01888,169.52591,51.01888Z"/><path class="cls-1" d="M186.944,55.70122a6.59118,6.59118,0,0,1-1.21623,2.05035,5.73675,5.73675,0,0,1-1.807,1.38115,5.08261,5.08261,0,0,1-4.41306,0,5.63558,5.63558,0,0,1-1.79839-1.38115,6.817,6.817,0,0,1-1.21622-2.05035,6.91853,6.91853,0,0,1-.45168-2.51051,7.19438,7.19438,0,0,1,.42571-2.47589,6.61639,6.61639,0,0,1,1.18145-2.05883,5.70692,5.70692,0,0,1,1.78956-1.40728,5.15834,5.15834,0,0,1,4.48263-.01765,5.753,5.753,0,0,1,1.807,1.38149,6.57165,6.57165,0,0,1,1.21623,2.05884,7.11666,7.11666,0,0,1,.443,2.51932A7.04267,7.04267,0,0,1,186.944,55.70122Zm-2.198-6.168a3.995,3.995,0,0,0-.97291-2.00658,2.22608,2.22608,0,0,0-.92948-.52124,4.34765,4.34765,0,0,0-1.13818-.13913,4.27044,4.27044,0,0,0-1.12053.13913,2.09585,2.09585,0,0,0-.91217.52124,4.04276,4.04276,0,0,0-.98174,2.00658,16.57528,16.57528,0,0,0-.32136,3.6575q0,1.30311.07805,2.23258a9.91486,9.91486,0,0,0,.24331,1.581,4.478,4.478,0,0,0,.40824,1.08592,3.10921,3.10921,0,0,0,.5735.74725,2.17339,2.17339,0,0,0,.91217.53006,4.04717,4.04717,0,0,0,1.12053.14762,4.11993,4.11993,0,0,0,1.13818-.14762,2.31158,2.31158,0,0,0,.92948-.53006,3.12168,3.12168,0,0,0,.57333-.74725,4.26794,4.26794,0,0,0,.39958-1.08592,10.728,10.728,0,0,0,.23466-1.581q.07813-.929.07822-2.23258A17.02868,17.02868,0,0,0,184.74607,49.53321Z"/><path class="cls-1" d="M203.84075,52.26972a3.18441,3.18441,0,0,1-.89469,1.12936,4.26247,4.26247,0,0,1-1.40746.72994,6.13083,6.13083,0,0,1-1.8503.26062,6.432,6.432,0,0,1-.95561-.06075q-.39982-.06108-.74707-.148v4.95178c0,.04649.02867.06957.08687.06957h1.54625c.02307,0,.03478.02341.03478.06957,0,.04649-.01171.06956-.03478.06956h-5.43825c-.02341,0-.03478-.02307-.03478-.06956,0-.04616.01137-.06957.03478-.06957h1.52894c.06957,0,.10435-.02308.10435-.06957V47.23106q0-.06922-.10435-.06923h-1.52894c-.02341,0-.03478-.02307-.03478-.06956,0-.04615.01137-.06957.03478-.06957h5.14284a6.652,6.652,0,0,1,2.06766.29523,4.58661,4.58661,0,0,1,1.52028.808,3.34271,3.34271,0,0,1,.92948,1.20774,3.59781,3.59781,0,0,1,.31288,1.49416A3.323,3.323,0,0,1,203.84075,52.26972Zm-2.55394-4.22184a2.41187,2.41187,0,0,0-1.96348-.886h-1.25084c-.0582,0-.08687.02308-.08687.06923v6.74152a2.73315,2.73315,0,0,0,.76438.226,7.12988,7.12988,0,0,0,.9383.05192,2.034,2.034,0,0,0,1.77225-.773,4.70775,4.70775,0,0,0,.55586-2.64964A4.33927,4.33927,0,0,0,201.28681,48.04788Z"/><path class="cls-1" d="M222.19718,59.47173a2.43378,2.43378,0,0,1-.947.16493,3.17749,3.17749,0,0,1-1.04248-.17375,2.277,2.277,0,0,1-.89486-.57316,2.87344,2.87344,0,0,1-.62542-1.04248,4.64267,4.64267,0,0,1-.23466-1.58137V55.13654a1.83906,1.83906,0,0,0-.72961-1.64177,3.37694,3.37694,0,0,0-1.92869-.49511h-1.39v6.13306c0,.04649.03478.06957.10435.06957h1.73747c.01136,0,.0173.02341.0173.06957,0,.04649-.00594.06956-.0173.06956h-5.62947c-.02342,0-.03478-.02307-.03478-.06956,0-.04616.01136-.06957.03478-.06957h1.52894c.06956,0,.10435-.02308.10435-.06957V47.23106q0-.06922-.10435-.06923h-1.52894c-.02342,0-.03478-.02307-.03478-.06956,0-.04615.01136-.06957.03478-.06957h5.36885a6.00912,6.00912,0,0,1,1.74612.23449,4.03642,4.03642,0,0,1,1.3031.64307,2.90408,2.90408,0,0,1,.81664.95561,2.52624,2.52624,0,0,1,.28658,1.19009,2.365,2.365,0,0,1-.27792,1.12936,2.99284,2.99284,0,0,1-.7559.91217,3.61667,3.61667,0,0,1-1.14667.6166,4.50552,4.50552,0,0,1-1.45071.226,6.04957,6.04957,0,0,1,1.88508.26062,3.69417,3.69417,0,0,1,1.3031.7123,2.67991,2.67991,0,0,1,.74708,1.06861,3.70819,3.70819,0,0,1,.23466,1.32923v1.56372a1.99144,1.99144,0,0,0,.27793,1.09441.8775.8775,0,0,0,.78186.43436,1.27384,1.27384,0,0,0,.60811-.13879,1.891,1.891,0,0,0,.45168-.33019q.01729-.01731.06091.03462c.02868.035.03173.05836.00865.06956A2.07575,2.07575,0,0,1,222.19718,59.47173ZM217.3757,47.82187a2.38512,2.38512,0,0,0-1.84182-.66h-1.025q-.10435,0-.10435.06923v5.62947h1.39a3.86454,3.86454,0,0,0,1.06-.12149,1.32468,1.32468,0,0,0,.66886-.42588,1.84474,1.84474,0,0,0,.35614-.83378,7.28327,7.28327,0,0,0,.10435-1.36385A3.38351,3.38351,0,0,0,217.3757,47.82187Z"/><path class="cls-1" d="M227.81765,59.34142c-.02342,0-.03478-.02307-.03478-.06956,0-.04616.01136-.06957.03478-.06957h1.52894c.06957,0,.10435-.02308.10435-.06957V47.23106q0-.06922-.10435-.06923h-1.52894c-.02342,0-.03478-.02307-.03478-.06956,0-.04615.01136-.06957.03478-.06957h5.43824c.02308,0,.03479.02342.03479.06957,0,.04649-.01171.06956-.03479.06956h-1.54624q-.10435,0-.10435.06923V59.13272c0,.04649.03478.06957.10435.06957h1.54624c.02308,0,.03479.02341.03479.06957,0,.04649-.01171.06956-.03479.06956Z"/><path class="cls-1" d="M249.90081,47.16183q-.10435,0-.10435.06923v12.336c0,.02308-.02325.03767-.0694.04344a.1.1,0,0,1-.10435-.04344l-8.07923-12.24916V59.15037c0,.04615.02885.06923.08688.06923h1.54641c.02308,0,.03478.02341.03478.06956,0,.04649-.0117.06957-.03478.06957h-3.42285c-.02341,0-.03478-.02308-.03478-.06957,0-.04615.01137-.06956.03478-.06956h1.52894q.10435,0,.10435-.06923V47.23106q0-.06922-.10435-.06923h-1.52894c-.02341,0-.03478-.02307-.03478-.06956,0-.04615.01137-.06957.03478-.06957H243.698a.30338.30338,0,0,1,.17375.06074.93013.93013,0,0,1,.20853.25214l5.5599,8.5136V47.23106q0-.06922-.10435-.06923H248.0069c-.02341,0-.03478-.02307-.03478-.06956,0-.04615.01137-.06957.03478-.06957h3.42285c.02307,0,.03478.02342.03478.06957,0,.04649-.01171.06956-.03478.06956Z"/><path class="cls-1" d="M267.81387,51.01888c-.03478,0-.05209-.01154-.05209-.03461a4.81526,4.81526,0,0,0-.21718-1.44224,3.46143,3.46143,0,0,0-.669-1.225,3.23872,3.23872,0,0,0-1.138-.84261,3.93984,3.93984,0,0,0-1.642-.31254H263.835q-.10408,0-.10418.06923V59.13272c0,.04649.03479.06957.10418.06957h1.52894c.02308,0,.03479.02341.03479.06957,0,.04649-.01171.06956-.03479.06956H259.9257c-.02325,0-.03478-.02307-.03478-.06956,0-.04616.01153-.06957.03478-.06957h1.52894c.06956,0,.10435-.02308.10435-.06957V47.23106q0-.06922-.10435-.06923H261.194a3.87714,3.87714,0,0,0-1.63312.31254,3.08459,3.08459,0,0,0-1.11205.84261,3.49775,3.49775,0,0,0-.6429,1.225,4.99424,4.99424,0,0,0-.20836,1.44224c0,.02307-.02341.03461-.06956.03461-.0465,0-.06957-.01154-.06957-.03461V47.075a.04617.04617,0,0,1,.05226-.05226h10.33794c.02307,0,.03461.01731.03461.05226v3.90931C267.88327,51.00734,267.86,51.01888,267.81387,51.01888Z"/><path class="cls-2" d="M0,28.60232A11.737,11.737,0,0,1,2.5855,21.1519C5.86582,17.23208,17.43068,7.30746,42.39526,7.30746c1.19535,0,2.41871,0,3.66972.05566,17.98653.695,24.76979,7.50607,24.76979,14.31715a13.51555,13.51555,0,0,1-5.03171,9.95244c-7.8953,6.81108-21.434,9.25745-27.43877,10.70307-.8896,1.47346-1.807,3.03005-2.72446,4.587,2.641.80629,5.838,1.83486,9.36858,3.0857C54.26587,53.289,66.13665,58.988,71.25183,62.37979c5.08735,3.41929,8.7849,7.36694,9.47989,9.03484a1.86942,1.86942,0,0,1,.19462.72281.53617.53617,0,0,1-.61168.5562,1.27821,1.27821,0,0,1-.36141-.05565c-.139-.02783-1.55676-7.42259-18.12566-14.56725A281.14809,281.14809,0,0,0,34.94484,48.1183c-4.05879,6.83857-7.923,13.17727-8.31219,13.17727-.63951-.08348-1.97383-2.16844-1.97383-3.53059a1.63715,1.63715,0,0,1,.05565-.38923c.139-.50054,2.66865-5.0597,5.78235-10.56429a36.04351,36.04351,0,0,0-6.08827-1.33432H23.936c-3.197,0-7.36711,1.27867-10.3695,1.27867a7.68285,7.68285,0,0,1-1.16753-.08314C10.86987,46.42223,9.591,45.227,9.591,44.17065c0-.94543,1.00091-1.77921,3.72538-1.77921.50037,0,1.08405.02782,1.72355.08314,5.78235.61184,7.20015,1.55693,9.8413,1.55693a17.446,17.446,0,0,0,3.5306-.41706c1.86251-.3614,3.28032-.63933,4.39236-.83378,4.33689-7.61737,9.00718-15.6793,10.03592-17.37536a2.77636,2.77636,0,0,1,1.946-.94509,3.126,3.126,0,0,1,2.33523,1.33432,1.38821,1.38821,0,0,1,.33358.97325c0,1.64008-2.11279,3.91983-3.058,5.4486-1.97383,3.16918-2.66882,4.39253-4.92057,8.22888,3.22467-.97292,7.11684-2.05714,7.11684-2.05714C61.1326,33.99559,66.72033,26.99007,66.72033,21.1519a9.21836,9.21836,0,0,0-3.05788-6.81074c-3.58624-3.33615-13.06614-5.866-23.936-5.866a61.47094,61.47094,0,0,0-24.77,4.92056C2.41871,19.01128.47271,25.62792.47271,29.18634A7.77617,7.77617,0,0,0,.862,31.77184C.38923,31.57705,0,30.29838,0,28.60232Zm28.71761,16.319s.91743.22227,2.4742.66716l.94525-1.64042Z"/><path class="cls-2" d="M61.00792,20.72211c2.25175.38923,3.08587,1.91834,3.08587,3.14135a2.58109,2.58109,0,0,1-.13913.8063c-.36141.91726-7.14449,11.20328-10.3415,16.56873l6.42167-.13879c1.61242.16662,2.19627.91726,2.19627,1.6679a1.55761,1.55761,0,0,1-.58385,1.19553A9.92681,9.92681,0,0,1,59.3955,45.214s-.66716-1.72356-3.83635-1.86269H52.61224L51.528,45.214a2.71842,2.71842,0,0,1,1.72373,2.669c0,6.22706-13.45537,19.62661-15.48468,19.62661a.23453.23453,0,0,1-.16679-.05531.34674.34674,0,0,1-.11131-.3061c0-2.72429,10.03592-20.4329,11.06449-22.23993-.63934-.13914-1.39-.27793-2.27958-.38924-3.0024-.36141-5.143-.66716-5.143-1.4178v-.11131a2.68252,2.68252,0,0,1,1.00074-1.4178s3.753-.13879,8.25671-.2501l5.25414-10.14688v-.25044a5.19706,5.19706,0,0,0-2.8356-4.9484c-5.75469-3.14135-13.31624-1.89051-13.31624-4.36471v-.02782c.08331-2.50169,11.03666-7.97845,35.473-9.007,2.97457-.1113,5.75452-.167,8.31219-.167,18.65387,0,27.16068,2.97474,27.16068,6.19958,0,2.9744-3.55842,4.19775-5.47659,4.19775a1.91922,1.91922,0,0,1-1.02857-.19445c-1.02874-.72281,1.08422-4.2534-6.25506-5.4211a141.4198,141.4198,0,0,0-18.76517-1.00074,161.66364,161.66364,0,0,0-23.43547,1.47345C44.995,19.33213,41.798,20.91655,41.798,21.7785c0,.22228.22244.41706.61151.528,1.7792.52837,8.67377,1.08422,11.50937,3.364a6.35717,6.35717,0,0,1,2.25175,4.44819ZM50.972,45.77016,40.686,64.45168s.695-.3614,6.14392-6.44967c4.6703-5.25415,5.61555-8.11758,5.61555-9.75765a5.01994,5.01994,0,0,0-.05565-.695C52.16753,46.43732,51.97291,46.10374,50.972,45.77016Zm-1.61242-2.41888c-2.14062,0-3.69738.02783-3.69738.02783a19.4952,19.4952,0,0,1,3.30832.72281Z"/><path class="cls-2" d="M93.483,20.20325V78.26253H16.95442V49.92788c-.58377.09035-1.1641.16331-1.73747.21888V80h80.0035V20.37C94.67836,20.311,94.09805,20.25534,93.483,20.20325ZM16.38109,16.565c-.39619.17722-.78534.35793-1.16414.54211V39.00269l.12166.01035.066.007c.5525.05913,1.06683.11818,1.54981.1807V16.31481C16.75984,16.39473,16.57218,16.47813,16.38109,16.565ZM15.217,0V8.60047q.85483-.34932,1.73747-.67064V1.73747H93.483V9.26763c.59422.03826,1.17105.08687,1.73747.13549V0Z"/></g></g></svg>