<svg xmlns="http://www.w3.org/2000/svg" viewBox="0 0 780.71756 565.55025"><defs><style>.cls-1{fill:#ad8226;}</style></defs><g id="Layer_2" data-name="Layer 2"><g id="Layer_1-2" data-name="Layer 1"><g id="logo_2_dark"><path class="cls-1" d="M0,202.20058C0,186.48,4.52089,165.8439,18.2779,149.53078c23.18982-27.71072,104.94617-97.87155,281.43019-97.87155,8.45043,0,17.09879,0,25.94266.39343,127.15361,4.91313,175.107,53.06324,175.107,101.21335,0,25.54923-13.36357,51.09846-35.571,70.35754-55.81487,48.15011-151.52493,65.44442-193.975,75.66411-6.28895,10.41641-12.77462,21.42058-19.26029,32.42714,18.67013,5.7,41.271,12.97133,66.23009,21.814,65.44442,23.191,149.36345,63.47965,185.52461,87.45754,35.96444,24.17222,62.10383,52.07965,67.017,63.87068a13.21658,13.21658,0,0,1,1.37583,5.10985c0,3.14508-2.35941,3.93194-4.32418,3.93194a9.03579,9.03579,0,0,1-2.55493-.39343c-.98238-.19672-11.00536-52.47309-128.13719-102.9814a1987.55957,1987.55957,0,0,0-190.04431-70.35755c-28.6931,48.34443-56.01039,93.15514-58.762,93.15514-4.52089-.59015-13.95372-15.32954-13.95372-24.95908a11.57149,11.57149,0,0,1,.39343-2.75164c.98239-3.53851,18.86565-35.76892,40.87758-74.68292-20.43939-5.6976-35.57221-9.03939-43.04026-9.43283h-3.3406c-22.60087,0-52.08085,9.03939-73.3059,9.03939a54.30976,54.30976,0,0,1-8.25372-.58775c-10.80985-1.77045-19.85044-10.21969-19.85044-17.68774,0-6.68359,7.07582-12.5779,26.3361-12.5779,3.53731,0,7.66357.19671,12.18447.58775,40.87757,4.32538,50.90055,11.00656,69.57188,11.00656,6.68118,0,14.34595-.78687,24.95908-2.94836,13.16685-2.55492,23.18983-4.51969,31.05131-5.89431,30.65908-53.85011,63.67517-110.84289,70.9477-122.833,0,0,5.50208-6.68119,13.757-6.68119,4.91313,0,10.41521,2.35821,16.50864,9.43283a9.81368,9.81368,0,0,1,2.35821,6.8803c0,11.59431-14.9361,27.71072-21.61849,38.51816-13.95372,22.40416-18.86685,31.05252-34.78534,58.17309,22.7964-6.87791,50.3116-14.54268,50.3116-14.54268C432.16946,240.32771,471.67121,190.803,471.67121,149.53078c0-18.47222-7.86029-35.37549-21.61729-48.14771-25.35251-23.58446-92.36947-41.46892-169.21268-41.46892-57.1895,0-120.079,10.023-175.1082,34.78534C17.09879,134.398,3.34179,181.17344,3.34179,206.32924c0,11.20088,2.75164,18.2779,2.75164,18.2779C2.75164,223.23012,0,214.19073,0,202.20058Zm203.01564,115.365s6.48566,1.57134,17.491,4.71641l6.68238-11.59671Z"/><path class="cls-1" d="M431.288,146.49241c15.91849,2.75164,21.81521,13.56149,21.81521,22.20744a18.24666,18.24666,0,0,1-.98359,5.7c-2.55492,6.48447-50.50711,79.20022-73.108,117.13063l45.39727-.98118c11.3988,1.1779,15.52626,6.48446,15.52626,11.791a11.01137,11.01137,0,0,1-4.12746,8.45164c-6.68119,5.30416-15.9185,8.84267-15.9185,8.84267s-4.71641-12.18447-27.12057-13.168H371.93584l-7.66477,13.168c8.45044,3.73523,12.18567,10.41641,12.18567,18.868,0,44.02144-95.12111,138.74792-109.46707,138.74792a1.65787,1.65787,0,0,1-1.1791-.391,2.45115,2.45115,0,0,1-.78687-2.16389c0-19.25909,70.9477-144.44792,78.219-157.22254-4.5197-.98358-9.82626-1.96477-16.11521-2.75164-21.22506-2.55492-36.35788-4.71641-36.35788-10.023v-.78686c1.37582-6.091,7.07462-10.023,7.07462-10.023s26.53162-.98119,58.3698-1.76805l37.14355-71.73217V218.618c0-13.36236-4.5197-26.72713-20.046-34.982-40.68205-22.20744-94.13752-13.36477-94.13752-30.8558v-.19672c.58895-17.68534,78.02232-56.40262,250.77231-63.674,21.02834-.78687,40.68085-1.1803,58.762-1.1803,131.87123,0,192.00908,21.02953,192.00908,43.82713,0,21.02713-25.1558,29.67549-38.71608,29.67549-3.34059,0-5.89552-.39343-7.27134-1.37462-7.27253-5.10985,7.66477-30.06893-44.21936-38.32385-25.94267-4.12866-76.6465-7.07462-132.65809-7.07462-56.60055,0-118.31094,2.946-165.67418,10.41641-74.09157,11.791-96.69245,22.99191-96.69245,29.08534,0,1.57134,1.57254,2.94836,4.323,3.73283,12.5779,3.73523,61.31816,7.66477,81.36411,23.78118,9.04059,7.27133,14.73939,18.47461,15.91849,31.446Zm-70.9477,177.07417L287.62458,455.63332s4.91313-2.55492,43.43369-45.59518c33.01609-37.14355,39.69847-57.38622,39.69847-68.98053a35.492,35.492,0,0,0-.39343-4.91313C368.792,328.283,367.41615,325.92479,360.34033,323.56658Zm-11.39879-17.1c-15.13283,0-26.13819.19672-26.13819.19672a137.817,137.817,0,0,1,23.38774,5.10984Z"/><path class="cls-1" d="M660.86652,142.82441v410.443H119.85719V352.959c-4.12687.63873-8.22944,1.15452-12.28283,1.54735V565.55025h565.575V144.00351C669.31711,143.58608,665.21469,143.19265,660.86652,142.82441ZM115.80409,117.10425c-2.80082,1.25287-5.55186,2.53033-8.22973,3.83238V275.72479c.29508.02459.565.04918.86.07317l.4666.04918c3.90586.418,7.54182.83545,10.95619,1.27746v-161.789C118.48166,115.90055,117.155,116.4901,115.80409,117.10425ZM107.57436,0V60.8q6.0432-2.46946,12.28283-4.741V12.28282H660.86652V65.51639c4.20078.27048,8.27861.61414,12.28283.95779V0Z"/></g></g></g></svg>