<svg width="460" height="452" viewBox="0 0 460 452" fill="none" xmlns="http://www.w3.org/2000/svg">
<g filter="url(#filter0_d)">
<path d="M213.5 37.4C198.7 42.1 189.1 52.3 181.9 71L178.2 80.5L154.6 80.8L131 81V74.9C131 69.5 130.7 68.5 128.1 65.9L125.2 63H89.7001H54.3001L51.6001 65.6C49.2001 68.1 49.0001 68.9 49.0001 76.6C49.0001 83.1 48.7001 85 47.6001 85C46.9001 85 42.5001 86.9 37.9001 89.2C26.1001 95.1 15.7001 105.5 10.2001 117.1C8.00007 121.7 5.70007 128 5.00007 131C4.20007 135 4.00007 165.7 4.20007 243L4.50007 349.5L6.90007 355.9C10.1001 364.5 17.9001 375.8 24.7001 381.9C31.7001 388.1 43.6001 394.5 52.1001 396.5C57.7001 397.8 80.8001 398 230 398C420.9 398 407.6 398.5 421.9 391C435.9 383.7 446.3 372.2 452.4 357.2L455.5 349.5V239.5V129.5L452.8 122.6C444.6 102.4 428.8 88.2 408.4 83C402.5 81.5 397.3 81 386.5 81H372.3L368.5 71.2C366.4 65.9 363.3 59.2 361.5 56.5C357.4 49.9 349.3 42.8 342.2 39.3L336.5 36.5L277 36.3C230.9 36.1 216.6 36.4 213.5 37.4ZM334.6 58C342.7 62.6 346.4 67.7 352 82.4C359.1 100.7 357.9 100 379.8 100C399.3 100 405.7 101.1 414.2 105.7C421.9 109.9 428.8 117.4 432.9 125.9L436.5 133.5L436.8 237.7C437 341.2 437 342 434.9 348.2C429.9 363.2 418.8 373.6 403.5 377.6C399.4 378.7 367.4 379 230 379C49.6001 379 57.2001 379.2 47.0001 374C36.5001 368.7 28.4001 359.1 24.8001 347.8C23.1001 342.1 23.0001 336.2 23.0001 239.4C23.0001 139 23.0001 136.8 25.0001 130.9C26.2001 127.6 28.2001 123 29.6001 120.8C35.4001 111.6 46.8001 103.6 57.5001 101.1C65.9001 99.1 68.0001 96.3 68.0001 87.6V82H90.0001H112V87.9C112 92.8 112.4 94.4 114.4 96.7L116.8 99.5L151.6 99.8C175.3 100 187.2 99.7 189.1 99C192.2 97.7 192.7 96.9 198.4 82.1C200.9 75.9 204.1 69.1 205.5 67C208.1 63.2 214.9 57.8 219.2 56.1C220.5 55.5 244.4 55.1 275.5 55.1L329.5 55L334.6 58Z" fill="white"/>
<path d="M259.5 118C234.2 121.4 210.6 133.2 191.9 151.9C157.1 186.7 147.6 237.4 167.5 283.2C178.5 308.6 202.5 332.3 228.7 343.5C272.8 362.5 325.3 352.2 359 318C394.6 282 403.2 227.4 380.5 182C357.9 137.2 309.4 111.5 259.5 118ZM288.6 137.1C309.4 140 327.5 148.9 343.4 164C353.1 173.3 358.7 181 364.4 193.1C371.6 208.3 373.4 216.8 373.4 235C373.4 248 373.1 251.9 371.1 259C368.6 268.4 361.9 283.3 356.9 290.7C352.2 297.6 339.5 310.5 332.5 315.5C304.7 335.3 268.4 339.3 236.7 326C214.5 316.7 193.8 296.2 184.7 274.7C173.1 247 173.7 217.9 186.4 192C205.3 153.4 246.6 131.2 288.6 137.1Z" fill="white"/>
<path d="M59.4002 127.9C48.6002 132.8 45.4002 147.7 53.3002 156.7C57.2002 161.1 61.5002 163 67.5002 163C78.9002 163 87.2002 153.5 85.6002 142.2C83.9002 129.6 71.0002 122.6 59.4002 127.9Z" fill="white"/>
</g>
<defs>
<filter id="filter0_d" x="0" y="0" width="460" height="460" filterUnits="userSpaceOnUse" color-interpolation-filters="sRGB">
<feFlood flood-opacity="0" result="BackgroundImageFix"/>
<feColorMatrix in="SourceAlpha" type="matrix" values="0 0 0 0 0 0 0 0 0 0 0 0 0 0 0 0 0 0 127 0"/>
<feOffset dy="4"/>
<feGaussianBlur stdDeviation="2"/>
<feColorMatrix type="matrix" values="0 0 0 0 0 0 0 0 0 0 0 0 0 0 0 0 0 0 0.25 0"/>
<feBlend mode="normal" in2="BackgroundImageFix" result="effect1_dropShadow"/>
<feBlend mode="normal" in="SourceGraphic" in2="effect1_dropShadow" result="shape"/>
</filter>
</defs>
</svg>
