<svg width="452" height="452" viewBox="0 0 452 452" fill="none" xmlns="http://www.w3.org/2000/svg">
<g filter="url(#filter0_d)">
<path d="M20.5 47.5L18 49.9V124.2C18 165.1 18 223.9 18 255V311.5L21 314.3L24.1 317L181.6 316.8L339.2 316.5L341.6 313.7L344 310.9V181V51.2L341.4 48.1L338.8 45H180.9H22.9L20.5 47.5ZM325 137.7V211.4L300.8 187.3C287.4 174.1 275.5 162.9 274.2 162.5C269.3 161 266.5 163.1 246.4 183.1L226.4 203.1L179.6 152C153.9 123.9 132 100.5 131 100C127.4 98.1 123.2 98.9 119.3 102.2C117.2 104 98.4 121 77.5 140C56.6 159 38.9 174.9 38.3 175.4C37.3 176 37 164.6 37 120.1V64H181H325V137.7ZM169.4 169.5C192.8 195 212 216.3 212 216.7C212 217.2 207.1 222.5 201 228.5C193 236.4 189.8 240.3 189.4 242.6C188.2 249.3 194.6 255.3 201.1 253.4C203.1 252.8 215.3 241.3 237.5 219L271 185.5L298 212.5L325 239.5V268.7V298H181H37V250.5V203.1L80.8 163.1C104.8 141.1 125 123.1 125.6 123.1C126.2 123 145.9 143.9 169.4 169.5Z" fill="white"/>
<path d="M263.5 91.3999C259.8 93.0999 255.5 97.5999 254.1 101.3C252.5 105.6 252.8 113.1 254.8 116.9C261.1 129.4 279.1 130.4 286.8 118.7C289 115.4 289.5 113.5 289.5 108.5C289.5 103.5 289 101.6 286.8 98.2999C282.1 91.0999 271.3 87.9999 263.5 91.3999Z" fill="white"/>
<path d="M361 99.5V109H365.5H370V226V343H226H82V338.5V334H72.5H63V345.1C63 356 63 356.2 65.9 359.1L68.8 362H226H383.2L386.1 359.1L389 356.2V226V95.8L386.1 92.9C383.2 90 383 90 372.1 90H361V99.5Z" fill="white"/>
<path d="M406 144.5V154H410.5H415V271V388H271H127V383.5V379H117.5H108V389.9C108 400.2 108.1 401 110.6 403.9L113.2 407H271.1H429.1L431.5 404.5L434 402.1V271.1V140.2L430.9 137.6C428 135.1 427.2 135 416.9 135H406V144.5Z" fill="white"/>
</g>
<defs>
<filter id="filter0_d" x="-4" y="0" width="460" height="460" filterUnits="userSpaceOnUse" color-interpolation-filters="sRGB">
<feFlood flood-opacity="0" result="BackgroundImageFix"/>
<feColorMatrix in="SourceAlpha" type="matrix" values="0 0 0 0 0 0 0 0 0 0 0 0 0 0 0 0 0 0 127 0"/>
<feOffset dy="4"/>
<feGaussianBlur stdDeviation="2"/>
<feColorMatrix type="matrix" values="0 0 0 0 0 0 0 0 0 0 0 0 0 0 0 0 0 0 0.25 0"/>
<feBlend mode="normal" in2="BackgroundImageFix" result="effect1_dropShadow"/>
<feBlend mode="normal" in="SourceGraphic" in2="effect1_dropShadow" result="shape"/>
</filter>
</defs>
</svg>
