<svg width="452" height="452" viewBox="0 0 452 452" fill="none" xmlns="http://www.w3.org/2000/svg">
<g filter="url(#filter0_d)">
<path d="M36 226V416H226H416V226V36H226H36V226ZM90 68V81H72.5H55V68V55H72.5H90V68ZM343 135.5V216H226H109V135.5V55H226H343V135.5ZM397 68V81H379.5H362V68V55H379.5H397V68ZM90 113V126H72.5H55V113V100H72.5H90V113ZM397 113V126H379.5H362V113V100H379.5H397V113ZM90 158V171H72.5H55V158V145H72.5H90V158ZM397 158V171H379.5H362V158V145H379.5H397V158ZM90 203V216H72.5H55V203V190H72.5H90V203ZM397 203V216H379.5H362V203V190H379.5H397V203ZM90 249V262H72.5H55V249V236H72.5H90V249ZM343 316.5V397H226H109V316.5V236H226H343V316.5ZM397 249V262H379.5H362V249V236H379.5H397V249ZM90 294V307H72.5H55V294V281H72.5H90V294ZM397 294V307H379.5H362V294V281H379.5H397V294ZM90 339V352H72.5H55V339V326H72.5H90V339ZM397 339V352H379.5H362V339V326H379.5H397V339ZM90 384V397H72.5H55V384V371H72.5H90V384ZM397 384V397H379.5H362V384V371H379.5H397V384Z" fill="white"/>
</g>
<defs>
<filter id="filter0_d" x="-4" y="0" width="460" height="460" filterUnits="userSpaceOnUse" color-interpolation-filters="sRGB">
<feFlood flood-opacity="0" result="BackgroundImageFix"/>
<feColorMatrix in="SourceAlpha" type="matrix" values="0 0 0 0 0 0 0 0 0 0 0 0 0 0 0 0 0 0 127 0"/>
<feOffset dy="4"/>
<feGaussianBlur stdDeviation="2"/>
<feColorMatrix type="matrix" values="0 0 0 0 0 0 0 0 0 0 0 0 0 0 0 0 0 0 0.25 0"/>
<feBlend mode="normal" in2="BackgroundImageFix" result="effect1_dropShadow"/>
<feBlend mode="normal" in="SourceGraphic" in2="effect1_dropShadow" result="shape"/>
</filter>
</defs>
</svg>
