<svg width="452" height="452" viewBox="0 0 452 452" fill="none" xmlns="http://www.w3.org/2000/svg">
<g filter="url(#filter0_d)">
<path d="M131.6 38.2C129.6 40 121.3 62.2 91.5 145.5C70.9 203.2 54 251.9 54 253.6C54 258.6 57.3 261.8 63.1 262.6C65.8 263 68 263.4 68 263.5C68 263.7 64.9 273 61 284.3C57.2 295.5 54 306.2 54 308C54 312.8 58.6 317 63.9 317C66.2 317 68 317.2 68 317.5C68 317.8 64.9 327.3 61 338.6C57.2 350 54 360.7 54 362.5C54 367.1 58.7 371 64.1 371C66.2 371 68 371.4 68 371.8C68 372.2 64.9 381.7 61 392.9C57.2 404 54 414.7 54 416.6C54 419 54.8 420.9 56.5 422.5L58.9 425H226H393.1L395.5 422.5C397.2 420.9 398 419 398 416.6C398 414.7 394.9 404 391 392.8C387.2 381.6 384 372.2 384 371.7C384 371.3 385.8 371 387.9 371C393.4 371 398 367.1 398 362.4C398 360.6 394.8 349.8 391 338.5C387.2 327.2 384 317.7 384 317.5C384 317.2 385.8 317 388.1 317C393.4 317 398 312.8 398 307.8C398 306 395.1 296.2 391.6 286C388.1 275.8 385 266.5 384.6 265.4C384 263.5 384.4 263.2 388.9 262.6C394.8 261.8 398 258.6 398 253.5C398 248.7 338.4 83 335.7 80.3C334.5 79.1 320 68.7 303.5 57.1L273.5 36H203.8H134.1L131.6 38.2ZM244 79.4V103.8L247.1 106.4L250.2 109H288.5H326.8L327.9 111.7C329.3 115.5 375 243.2 375 243.7C375 243.8 307.9 244 225.9 244C107 244 76.9 243.7 77.3 242.7C77.5 242.1 92.7 199.5 111 148.2L144.4 55H194.2H244V79.4ZM369.2 280C372.3 289.1 374.9 296.8 374.9 297.2C375 297.7 308 298 226 298C144 298 77 297.9 77 297.7C77 297 87.9 265 88.5 264C88.9 263.3 131.3 263.1 226.3 263.2L363.5 263.5L369.2 280ZM369.2 334C372.3 343.1 374.9 350.8 374.9 351.2C375 351.7 308 352 226 352C144 352 77 351.8 77 351.6C77 351.2 86.6 323.3 88.1 319.2L89 317L226.2 317.2L363.4 317.5L369.2 334ZM368.5 386.5C371.4 394.7 374 402.5 374.4 403.7L375.1 406H226.1C144.1 406 77 405.8 77 405.6C77 405.3 85.1 381.9 88.5 372.2C88.8 371.2 116.9 371 226.1 371.2L363.2 371.5L368.5 386.5Z" fill="white"/>
</g>
<defs>
<filter id="filter0_d" x="-4" y="0" width="460" height="460" filterUnits="userSpaceOnUse" color-interpolation-filters="sRGB">
<feFlood flood-opacity="0" result="BackgroundImageFix"/>
<feColorMatrix in="SourceAlpha" type="matrix" values="0 0 0 0 0 0 0 0 0 0 0 0 0 0 0 0 0 0 127 0"/>
<feOffset dy="4"/>
<feGaussianBlur stdDeviation="2"/>
<feColorMatrix type="matrix" values="0 0 0 0 0 0 0 0 0 0 0 0 0 0 0 0 0 0 0.25 0"/>
<feBlend mode="normal" in2="BackgroundImageFix" result="effect1_dropShadow"/>
<feBlend mode="normal" in="SourceGraphic" in2="effect1_dropShadow" result="shape"/>
</filter>
</defs>
</svg>
