<svg width="452" height="452" viewBox="0 0 452 452" fill="none" xmlns="http://www.w3.org/2000/svg">
<g filter="url(#filter0_d)">
<path d="M292.1 56.2L254.2 94.5L249.5 90.1C242.3 83.5 235.3 80.7 227.2 81.2C223.5 81.4 218.7 82.4 216.5 83.5C211.8 85.7 51.6 244.8 41.4 257.5C26 276.6 18 299.9 18 325.4C18 344.6 21.5 359 30.1 375.8C35.2 385.9 47.6 402.3 52.1 404.9C53.6 405.8 57.7 408.8 61.4 411.7C74.9 422.1 93.3 429.9 110.7 432.5C138.7 436.7 164.1 431.1 188.5 415.2C198.2 408.9 363.5 244.1 367.7 236.6C370.1 232.2 370.5 230.4 370.5 223.5C370.5 214.3 368.6 209.8 361.7 202.3L357.5 197.8L395.8 159.9L434 122V117.2V112.5L386.7 65.3L339.5 18H334.8H330L292.1 56.2ZM392.7 135.8C382.7 145.9 367.5 160.8 358.9 169L343.4 183.9L305.6 146.1L267.9 108.4L301.1 74.6L334.3 40.9L372.7 79.2L411 117.5L392.7 135.8ZM291.7 160.3C344.4 212.9 352 220.9 352 223.5C352 226.1 341.7 236.8 268.3 310.3C222.2 356.4 181.8 396.1 178.5 398.5C164 408.8 149.1 414 131.1 414.8C112 415.6 97.8 412.2 81.4 402.9C70.6 396.8 55.2 381.4 49.1 370.6C39.8 354.1 36.4 340 37.3 320.9C38.1 302.8 43.2 287.7 53.5 273.6C55.9 270.2 95.6 229.8 141.7 183.7C215.2 110.3 225.9 100 228.5 100C231.1 100 239.1 107.6 291.7 160.3Z" fill="white"/>
<path d="M315.5 81L306.5 90L316 99.5L325.5 109L335 99.5L344.5 90L335.5 81C330.6 76.1 326.1 72 325.5 72C324.9 72 320.4 76.1 315.5 81Z" fill="white"/>
<path d="M352.2 117.3L343 126.5L352.5 136L362 145.5L371 136.5C375.9 131.6 380 127.1 380 126.5C380 125.5 363 108 362 108C361.7 108 357.3 112.2 352.2 117.3Z" fill="white"/>
<path d="M119.4 291C112.3 293.8 105.7 299.9 102.3 306.8C99.9 311.7 99.5 313.7 99.5 321C99.5 331.3 101.7 336.7 108.5 343.5C115.3 350.3 120.7 352.5 131 352.5C138.3 352.5 140.3 352.1 145.2 349.7C152.3 346.2 158.2 339.6 161.1 332.1C163.9 324.7 163.4 313.7 160.1 307C157 300.9 151.5 295.3 145.5 292.2C138.6 288.7 126.7 288.1 119.4 291ZM137.7 310C146.7 315.5 145.5 329.1 135.7 332.9C130.8 334.7 125.8 333.6 122.1 329.9C111.5 319.3 124.9 302.2 137.7 310Z" fill="white"/>
</g>
<defs>
<filter id="filter0_d" x="-4" y="0" width="460" height="460" filterUnits="userSpaceOnUse" color-interpolation-filters="sRGB">
<feFlood flood-opacity="0" result="BackgroundImageFix"/>
<feColorMatrix in="SourceAlpha" type="matrix" values="0 0 0 0 0 0 0 0 0 0 0 0 0 0 0 0 0 0 127 0"/>
<feOffset dy="4"/>
<feGaussianBlur stdDeviation="2"/>
<feColorMatrix type="matrix" values="0 0 0 0 0 0 0 0 0 0 0 0 0 0 0 0 0 0 0.25 0"/>
<feBlend mode="normal" in2="BackgroundImageFix" result="effect1_dropShadow"/>
<feBlend mode="normal" in="SourceGraphic" in2="effect1_dropShadow" result="shape"/>
</filter>
</defs>
</svg>
